<svg width="371" height="35" viewBox="0 0 371 35" fill="none" xmlns="http://www.w3.org/2000/svg">
<path d="M100.604 10.5823L105.295 7.1338H89.5922V27.7913H105.295V24.3427H94.0786V19.0685H103.663V15.6199H94.0786V10.5823H100.604Z" fill="#21A038"/>
<path d="M77.7304 15.1804H72.2923V10.5823H80.9932L85.6836 7.1338H67.8059V27.7913H77.1526C82.3867 27.7913 85.4117 25.4246 85.4117 21.2999C85.4117 17.3442 82.6926 15.1804 77.7304 15.1804ZM76.9827 24.3427H72.2923V18.6289H76.9827C79.8376 18.6289 81.1632 19.5756 81.1632 21.5027C81.1632 23.4299 79.7357 24.3427 76.9827 24.3427Z" fill="#21A038"/>
<path d="M118.006 7.1338H109.475V27.7913H113.961V21.9423H118.04C123.478 21.9423 126.877 19.1023 126.877 14.538C126.877 9.97378 123.478 7.1338 118.006 7.1338ZM117.904 18.4937H113.928V10.5823H117.904C120.793 10.5823 122.357 12.0023 122.357 14.538C122.357 17.0737 120.793 18.4937 117.904 18.4937Z" fill="#21A038"/>
<path d="M60.1246 23.3284C58.935 23.9708 57.6095 24.3089 56.25 24.3089C52.2054 24.3089 49.2825 21.4351 49.2825 17.4794C49.2825 13.5237 52.2054 10.65 56.25 10.65C57.7115 10.6162 59.139 11.0895 60.3285 11.9347L63.5574 9.56807L63.3535 9.36521C61.4841 7.70856 58.969 6.86333 56.114 6.86333C53.0211 6.86333 50.2001 7.91141 48.1609 9.80473C46.1216 11.7657 44.966 14.5042 45.034 17.3442C45 20.218 46.1216 22.9903 48.1609 25.0189C50.3021 27.0136 53.1571 28.1293 56.08 28.0617C59.3089 28.0617 62.1299 26.946 64.0332 24.9175L61.1442 22.7875L60.1246 23.3284Z" fill="#21A038"/>
<path d="M30.997 6.99856C31.8127 8.04664 32.4925 9.19616 33.0703 10.4133L17.3679 21.9422L10.7742 17.8175V12.8814L17.3339 16.9723L30.997 6.99856Z" fill="#21A038"/>
<path d="M4.07858 17.4795C4.07858 17.2428 4.07858 17.0399 4.11256 16.8033L0.135978 16.6004C0.135978 16.8709 0.10199 17.1752 0.10199 17.4457C0.10199 22.179 2.0393 26.4727 5.16619 29.5832L7.98719 26.777C5.57404 24.4104 4.07858 21.1309 4.07858 17.4795Z" fill="url(#paint0_linear)"/>
<path d="M17.3338 4.29384C17.5718 4.29384 17.7757 4.29384 18.0136 4.32765L18.2175 0.371965C17.9456 0.371965 17.6397 0.338156 17.3678 0.338156C12.6095 0.338156 8.29306 2.26528 5.16617 5.37573L7.98716 8.1819C10.3663 5.78145 13.6971 4.29384 17.3338 4.29384Z" fill="url(#paint1_linear)"/>
<path d="M17.3338 30.6651C17.0959 30.6651 16.892 30.6651 16.6541 30.6313L16.4502 34.5869C16.7221 34.5869 17.028 34.6207 17.2999 34.6207C22.0582 34.6207 26.3746 32.6936 29.5015 29.5832L26.6805 26.777C24.3014 29.2113 21.0045 30.6651 17.3338 30.6651Z" fill="url(#paint2_linear)"/>
<path d="M24.8112 6.59283L28.176 4.12476C25.2191 1.75811 21.4464 0.304312 17.3339 0.304312V4.25999C20.1209 4.2938 22.7039 5.13903 24.8112 6.59283Z" fill="url(#paint3_linear)"/>
<path d="M34.5997 17.4794C34.5997 16.4313 34.4978 15.417 34.3278 14.4028L30.6231 17.1413C30.6231 17.2427 30.6231 17.378 30.6231 17.4794C30.6231 21.3675 28.9238 24.8498 26.2387 27.2503L28.9238 30.1917C32.3905 27.0812 34.5997 22.517 34.5997 17.4794Z" fill="#21A038"/>
<path d="M17.3338 30.665C13.4252 30.665 9.92447 28.9745 7.51133 26.3036L4.55438 28.9745C7.71526 32.4569 12.2696 34.6207 17.3338 34.6207V30.665Z" fill="url(#paint4_linear)"/>
<path d="M8.46302 7.70853L5.77797 4.76712C2.27722 7.91138 0.10199 12.4418 0.10199 17.4794H4.07858C4.07858 13.6251 5.77797 10.109 8.46302 7.70853Z" fill="url(#paint5_linear)"/>
<mask id="path-13-outside-1" maskUnits="userSpaceOnUse" x="137" y="6" width="234" height="23" fill="black">
<rect fill="white" x="137" y="6" width="234" height="23"/>
<path fill-rule="evenodd" clip-rule="evenodd" d="M156.491 25.6109C156.181 25.974 155.819 26.2884 155.415 26.5435C154.9 26.8741 154.352 27.1493 153.778 27.3642C153.096 27.6256 152.392 27.8268 151.674 27.9657C150.855 28.1268 150.021 28.2049 149.186 28.1989C147.625 28.2191 146.072 27.9715 144.596 27.4668C143.29 27.0178 142.091 26.3033 141.077 25.3684C140.09 24.4332 139.317 23.2968 138.811 22.0367C138.251 20.6171 137.976 19.1017 138.002 17.5765C137.984 16.1192 138.255 14.6727 138.797 13.3192C139.304 12.0548 140.075 10.9121 141.058 9.96653C142.078 9.00457 143.286 8.26111 144.605 7.78192C146.091 7.2445 147.662 6.98064 149.242 7.00319C150.659 6.97158 152.072 7.17485 153.423 7.60472C154.358 7.90006 155.249 8.31962 156.072 8.85208V13.9581C155.729 13.4792 155.337 13.0369 154.903 12.6384C154.429 12.198 153.906 11.8138 153.343 11.4937C152.74 11.15 152.098 10.8792 151.431 10.687C150.718 10.4795 149.979 10.3758 149.237 10.3792C148.2 10.3629 147.169 10.5417 146.197 10.9061C145.337 11.2303 144.555 11.7307 143.901 12.375C143.261 13.0193 142.768 13.795 142.458 14.6482C142.115 15.5933 141.946 16.5924 141.958 17.5975C141.955 18.5497 142.113 19.4956 142.426 20.3953C142.713 21.2543 143.184 22.0407 143.807 22.6998C144.429 23.3589 145.189 23.8749 146.031 24.212C147.024 24.6098 148.084 24.814 149.153 24.8135C149.99 24.8209 150.825 24.7222 151.636 24.5197C152.353 24.3395 153.044 24.0733 153.697 23.727C154.293 23.4148 154.844 23.0226 155.333 22.5613C155.788 22.1331 156.175 21.6387 156.481 21.0948L156.491 25.6109ZM175.698 10.701H168.751V27.8702H165.072V10.701H158.245V7.3273H175.698V10.701ZM182.615 27.8702V21.4725H185.795C188.836 21.4725 191.142 20.8757 192.712 19.6819C194.281 18.4882 195.066 16.6883 195.066 14.2822C195.068 11.974 194.337 10.2378 192.875 9.0736C191.413 7.9094 189.053 7.3273 185.795 7.3273H178.939V27.8702H182.615ZM182.615 18.0965V10.701H186.117C187.923 10.6994 189.227 10.9637 190.032 11.4937C190.836 12.0237 191.238 12.9237 191.238 14.1936C191.238 15.6018 190.807 16.6043 189.943 17.2012C189.079 17.7981 187.785 18.0965 186.059 18.0965H182.615ZM216.375 27.8702H212.459L210.488 22.9973H201.041L199.098 27.8702H195.356L203.725 7.3273H207.904L216.375 27.8702ZM209.127 19.6236L205.743 11.1999L202.364 19.6236H209.127ZM217.905 7.3273L224.88 17.4227L217.521 27.8702H221.831L227.482 19.5933L233.328 27.8702H237.72L230.097 17.2175L237.455 7.3273H233.188L227.588 15.1029L222.319 7.3273H217.905ZM238.449 17.5696C238.432 16.1138 238.697 14.6685 239.228 13.3123C239.728 12.0549 240.485 10.9154 241.452 9.9666C242.446 9.00763 243.628 8.26387 244.924 7.78198C246.383 7.24395 247.93 6.97992 249.486 7.00326C251.021 6.98392 252.548 7.23085 253.999 7.73302C255.296 8.18218 256.484 8.89694 257.488 9.83137C258.467 10.7667 259.23 11.9037 259.723 13.1631C260.274 14.5848 260.544 16.0993 260.518 17.6232C260.535 19.0783 260.271 20.5229 259.74 21.8782C259.241 23.1363 258.484 24.2762 257.516 25.2239C256.518 26.1858 255.331 26.9306 254.029 27.4109C252.574 27.9445 251.032 28.2076 249.481 28.1873C247.946 28.2051 246.418 27.9623 244.964 27.4692C243.666 27.0286 242.477 26.3181 241.475 25.3848C240.493 24.446 239.73 23.3039 239.24 22.0391C238.692 20.6134 238.424 19.0961 238.449 17.5696ZM242.333 17.5976C242.329 18.5567 242.487 19.5096 242.801 20.4164C243.088 21.2673 243.554 22.0472 244.169 22.7036C244.803 23.3684 245.57 23.8934 246.421 24.2447C248.369 24.994 250.525 25.0097 252.484 24.289C253.322 23.9588 254.083 23.4596 254.719 22.8225C255.352 22.1737 255.839 21.398 256.148 20.5469C256.491 19.6016 256.66 18.6027 256.648 17.5976C256.651 16.6393 256.493 15.6874 256.181 14.7811C255.893 13.9292 255.426 13.1485 254.81 12.4916C254.176 11.8281 253.41 11.3032 252.561 10.9505C251.576 10.5515 250.519 10.3571 249.456 10.3793C248.44 10.3638 247.43 10.5426 246.481 10.9062C245.634 11.2306 244.868 11.7344 244.235 12.3829C243.603 13.0314 243.119 13.8091 242.817 14.6622C242.484 15.6048 242.32 16.5984 242.333 17.5976ZM264.522 7.3273V27.8701L272.979 27.8725C274.112 27.8856 275.242 27.7722 276.349 27.5344C277.253 27.3474 278.113 26.9888 278.881 26.4782C279.569 26.0059 280.122 25.3631 280.485 24.613C280.877 23.7571 281.068 22.8234 281.044 21.8829C281.049 20.5321 280.754 19.4612 280.16 18.6701C279.566 17.8789 278.631 17.3745 277.354 17.1569C278.414 16.7419 279.19 16.1458 279.681 15.3686C280.198 14.4786 280.452 13.4611 280.415 12.4333C280.415 9.0293 278.1 7.3273 273.47 7.3273H264.522ZM275.722 15.28C275.046 15.7681 274.118 16.0121 272.94 16.0121H268.202V10.701H273.028C274.343 10.7025 275.29 10.9178 275.869 11.3468C276.157 11.5653 276.387 11.8509 276.538 12.1786C276.689 12.5062 276.758 12.8659 276.737 13.226C276.753 13.6256 276.669 14.0229 276.491 14.3817C276.314 14.7404 276.05 15.0493 275.722 15.28ZM276.325 23.7947C275.658 24.261 274.618 24.4941 273.206 24.4941L268.202 24.4755V18.8799H273.265C274.56 18.8783 275.561 19.0835 276.267 19.4954C276.973 19.9073 277.326 20.6122 277.326 21.6101C277.326 22.6002 276.993 23.3284 276.325 23.7947ZM303.908 27.8702H299.994L298.02 22.9973H288.574L286.63 27.8702H282.889L291.246 7.3273H295.427L303.908 27.8702ZM296.66 19.6236L293.283 11.1999L289.897 19.6236H296.66ZM310.647 18.9778H321.92V27.8702H325.601V7.3273H321.92V15.6018H310.647V7.3273H306.969V27.8702H310.647V18.9778ZM334.784 22.6756L346.026 7.3273H350.03V27.8702H346.363V12.2864L335.06 27.8702H331.115V7.3273H334.795L334.784 22.6756ZM359.224 18.9778H368.689L368.701 15.5971H359.224V10.701H369.791V7.3273H355.546V27.8702H370.116V24.4942H359.224V18.9778Z"/>
</mask>
<path fill-rule="evenodd" clip-rule="evenodd" d="M156.491 25.6109C156.181 25.974 155.819 26.2884 155.415 26.5435C154.9 26.8741 154.352 27.1493 153.778 27.3642C153.096 27.6256 152.392 27.8268 151.674 27.9657C150.855 28.1268 150.021 28.2049 149.186 28.1989C147.625 28.2191 146.072 27.9715 144.596 27.4668C143.29 27.0178 142.091 26.3033 141.077 25.3684C140.09 24.4332 139.317 23.2968 138.811 22.0367C138.251 20.6171 137.976 19.1017 138.002 17.5765C137.984 16.1192 138.255 14.6727 138.797 13.3192C139.304 12.0548 140.075 10.9121 141.058 9.96653C142.078 9.00457 143.286 8.26111 144.605 7.78192C146.091 7.2445 147.662 6.98064 149.242 7.00319C150.659 6.97158 152.072 7.17485 153.423 7.60472C154.358 7.90006 155.249 8.31962 156.072 8.85208V13.9581C155.729 13.4792 155.337 13.0369 154.903 12.6384C154.429 12.198 153.906 11.8138 153.343 11.4937C152.74 11.15 152.098 10.8792 151.431 10.687C150.718 10.4795 149.979 10.3758 149.237 10.3792C148.2 10.3629 147.169 10.5417 146.197 10.9061C145.337 11.2303 144.555 11.7307 143.901 12.375C143.261 13.0193 142.768 13.795 142.458 14.6482C142.115 15.5933 141.946 16.5924 141.958 17.5975C141.955 18.5497 142.113 19.4956 142.426 20.3953C142.713 21.2543 143.184 22.0407 143.807 22.6998C144.429 23.3589 145.189 23.8749 146.031 24.212C147.024 24.6098 148.084 24.814 149.153 24.8135C149.99 24.8209 150.825 24.7222 151.636 24.5197C152.353 24.3395 153.044 24.0733 153.697 23.727C154.293 23.4148 154.844 23.0226 155.333 22.5613C155.788 22.1331 156.175 21.6387 156.481 21.0948L156.491 25.6109ZM175.698 10.701H168.751V27.8702H165.072V10.701H158.245V7.3273H175.698V10.701ZM182.615 27.8702V21.4725H185.795C188.836 21.4725 191.142 20.8757 192.712 19.6819C194.281 18.4882 195.066 16.6883 195.066 14.2822C195.068 11.974 194.337 10.2378 192.875 9.0736C191.413 7.9094 189.053 7.3273 185.795 7.3273H178.939V27.8702H182.615ZM182.615 18.0965V10.701H186.117C187.923 10.6994 189.227 10.9637 190.032 11.4937C190.836 12.0237 191.238 12.9237 191.238 14.1936C191.238 15.6018 190.807 16.6043 189.943 17.2012C189.079 17.7981 187.785 18.0965 186.059 18.0965H182.615ZM216.375 27.8702H212.459L210.488 22.9973H201.041L199.098 27.8702H195.356L203.725 7.3273H207.904L216.375 27.8702ZM209.127 19.6236L205.743 11.1999L202.364 19.6236H209.127ZM217.905 7.3273L224.88 17.4227L217.521 27.8702H221.831L227.482 19.5933L233.328 27.8702H237.72L230.097 17.2175L237.455 7.3273H233.188L227.588 15.1029L222.319 7.3273H217.905ZM238.449 17.5696C238.432 16.1138 238.697 14.6685 239.228 13.3123C239.728 12.0549 240.485 10.9154 241.452 9.9666C242.446 9.00763 243.628 8.26387 244.924 7.78198C246.383 7.24395 247.93 6.97992 249.486 7.00326C251.021 6.98392 252.548 7.23085 253.999 7.73302C255.296 8.18218 256.484 8.89694 257.488 9.83137C258.467 10.7667 259.23 11.9037 259.723 13.1631C260.274 14.5848 260.544 16.0993 260.518 17.6232C260.535 19.0783 260.271 20.5229 259.74 21.8782C259.241 23.1363 258.484 24.2762 257.516 25.2239C256.518 26.1858 255.331 26.9306 254.029 27.4109C252.574 27.9445 251.032 28.2076 249.481 28.1873C247.946 28.2051 246.418 27.9623 244.964 27.4692C243.666 27.0286 242.477 26.3181 241.475 25.3848C240.493 24.446 239.73 23.3039 239.24 22.0391C238.692 20.6134 238.424 19.0961 238.449 17.5696ZM242.333 17.5976C242.329 18.5567 242.487 19.5096 242.801 20.4164C243.088 21.2673 243.554 22.0472 244.169 22.7036C244.803 23.3684 245.57 23.8934 246.421 24.2447C248.369 24.994 250.525 25.0097 252.484 24.289C253.322 23.9588 254.083 23.4596 254.719 22.8225C255.352 22.1737 255.839 21.398 256.148 20.5469C256.491 19.6016 256.66 18.6027 256.648 17.5976C256.651 16.6393 256.493 15.6874 256.181 14.7811C255.893 13.9292 255.426 13.1485 254.81 12.4916C254.176 11.8281 253.41 11.3032 252.561 10.9505C251.576 10.5515 250.519 10.3571 249.456 10.3793C248.44 10.3638 247.43 10.5426 246.481 10.9062C245.634 11.2306 244.868 11.7344 244.235 12.3829C243.603 13.0314 243.119 13.8091 242.817 14.6622C242.484 15.6048 242.32 16.5984 242.333 17.5976ZM264.522 7.3273V27.8701L272.979 27.8725C274.112 27.8856 275.242 27.7722 276.349 27.5344C277.253 27.3474 278.113 26.9888 278.881 26.4782C279.569 26.0059 280.122 25.3631 280.485 24.613C280.877 23.7571 281.068 22.8234 281.044 21.8829C281.049 20.5321 280.754 19.4612 280.16 18.6701C279.566 17.8789 278.631 17.3745 277.354 17.1569C278.414 16.7419 279.19 16.1458 279.681 15.3686C280.198 14.4786 280.452 13.4611 280.415 12.4333C280.415 9.0293 278.1 7.3273 273.47 7.3273H264.522ZM275.722 15.28C275.046 15.7681 274.118 16.0121 272.94 16.0121H268.202V10.701H273.028C274.343 10.7025 275.29 10.9178 275.869 11.3468C276.157 11.5653 276.387 11.8509 276.538 12.1786C276.689 12.5062 276.758 12.8659 276.737 13.226C276.753 13.6256 276.669 14.0229 276.491 14.3817C276.314 14.7404 276.05 15.0493 275.722 15.28ZM276.325 23.7947C275.658 24.261 274.618 24.4941 273.206 24.4941L268.202 24.4755V18.8799H273.265C274.56 18.8783 275.561 19.0835 276.267 19.4954C276.973 19.9073 277.326 20.6122 277.326 21.6101C277.326 22.6002 276.993 23.3284 276.325 23.7947ZM303.908 27.8702H299.994L298.02 22.9973H288.574L286.63 27.8702H282.889L291.246 7.3273H295.427L303.908 27.8702ZM296.66 19.6236L293.283 11.1999L289.897 19.6236H296.66ZM310.647 18.9778H321.92V27.8702H325.601V7.3273H321.92V15.6018H310.647V7.3273H306.969V27.8702H310.647V18.9778ZM334.784 22.6756L346.026 7.3273H350.03V27.8702H346.363V12.2864L335.06 27.8702H331.115V7.3273H334.795L334.784 22.6756ZM359.224 18.9778H368.689L368.701 15.5971H359.224V10.701H369.791V7.3273H355.546V27.8702H370.116V24.4942H359.224V18.9778Z" fill="#21A038"/>
<path d="M155.415 26.5435L155.308 26.3744L155.307 26.3752L155.415 26.5435ZM156.491 25.6109L156.643 25.7406L156.691 25.6844L156.691 25.6105L156.491 25.6109ZM153.778 27.3642L153.708 27.1769L153.707 27.1774L153.778 27.3642ZM151.674 27.9657L151.636 27.7693L151.635 27.7695L151.674 27.9657ZM149.186 28.1989L149.187 27.9988L149.183 27.9989L149.186 28.1989ZM144.596 27.4668L144.531 27.6559L144.531 27.656L144.596 27.4668ZM141.077 25.3684L140.939 25.5136L140.941 25.5155L141.077 25.3684ZM138.811 22.0367L138.625 22.1101L138.625 22.1113L138.811 22.0367ZM138.002 17.5765L138.202 17.5799L138.202 17.5742L138.002 17.5765ZM138.797 13.3192L138.611 13.2447L138.611 13.2449L138.797 13.3192ZM141.058 9.96653L140.921 9.82099L140.919 9.82239L141.058 9.96653ZM144.605 7.78192L144.537 7.59385L144.537 7.59393L144.605 7.78192ZM149.242 7.00319L149.239 7.20331L149.246 7.20315L149.242 7.00319ZM153.423 7.60472L153.362 7.7953L153.363 7.79544L153.423 7.60472ZM156.072 8.85208H156.272V8.74326L156.181 8.68416L156.072 8.85208ZM156.072 13.9581L155.91 14.0745L156.272 14.5807V13.9581H156.072ZM154.903 12.6384L154.767 12.7849L154.768 12.7858L154.903 12.6384ZM153.343 11.4937L153.244 11.6674L153.245 11.6675L153.343 11.4937ZM151.431 10.687L151.375 10.879L151.375 10.8792L151.431 10.687ZM149.237 10.3792L149.234 10.5792L149.238 10.5792L149.237 10.3792ZM146.197 10.9061L146.127 10.7189L146.127 10.719L146.197 10.9061ZM143.901 12.375L143.761 12.2325L143.759 12.234L143.901 12.375ZM142.458 14.6482L142.646 14.7165L142.646 14.7164L142.458 14.6482ZM141.958 17.5975L142.158 17.5982L142.158 17.595L141.958 17.5975ZM142.426 20.3953L142.615 20.3319L142.615 20.3297L142.426 20.3953ZM146.031 24.212L146.106 24.0263L146.106 24.0263L146.031 24.212ZM149.153 24.8135L149.155 24.6135H149.153L149.153 24.8135ZM151.636 24.5197L151.685 24.7138L151.685 24.7137L151.636 24.5197ZM153.697 23.727L153.604 23.5498L153.603 23.5504L153.697 23.727ZM155.333 22.5613L155.196 22.4157L155.196 22.4157L155.333 22.5613ZM156.481 21.0948L156.681 21.0944L156.68 20.3345L156.307 20.9967L156.481 21.0948ZM168.751 10.701V10.501H168.551V10.701H168.751ZM175.698 10.701V10.901H175.898V10.701H175.698ZM168.751 27.8702V28.0702H168.951V27.8702H168.751ZM165.072 27.8702H164.872V28.0702H165.072V27.8702ZM165.072 10.701H165.272V10.501H165.072V10.701ZM158.245 10.701H158.045V10.901H158.245V10.701ZM158.245 7.3273V7.1273H158.045V7.3273H158.245ZM175.698 7.3273H175.898V7.1273H175.698V7.3273ZM182.615 21.4725V21.2725H182.415V21.4725H182.615ZM182.615 27.8702V28.0702H182.815V27.8702H182.615ZM192.712 19.6819L192.833 19.8411L192.712 19.6819ZM195.066 14.2822L194.866 14.282V14.2822H195.066ZM192.875 9.0736L192.751 9.23006V9.23006L192.875 9.0736ZM178.939 7.3273V7.1273H178.739V7.3273H178.939ZM178.939 27.8702H178.739V28.0702H178.939V27.8702ZM182.615 10.701V10.501H182.415V10.701H182.615ZM182.615 18.0965H182.415V18.2965H182.615V18.0965ZM186.117 10.701V10.901H186.118L186.117 10.701ZM190.032 11.4937L190.142 11.3267V11.3267L190.032 11.4937ZM212.459 27.8702L212.273 27.9452L212.324 28.0702H212.459V27.8702ZM216.375 27.8702V28.0702H216.674L216.56 27.7939L216.375 27.8702ZM210.488 22.9973L210.673 22.9223L210.622 22.7973H210.488V22.9973ZM201.041 22.9973V22.7973H200.905L200.855 22.9232L201.041 22.9973ZM199.098 27.8702V28.0702H199.233L199.283 27.9442L199.098 27.8702ZM195.356 27.8702L195.171 27.7947L195.059 28.0702H195.356V27.8702ZM203.725 7.3273V7.1273H203.591L203.54 7.25185L203.725 7.3273ZM207.904 7.3273L208.089 7.25105L208.038 7.1273H207.904V7.3273ZM205.743 11.1999L205.929 11.1254L205.743 10.663L205.557 11.1255L205.743 11.1999ZM209.127 19.6236V19.8236H209.422L209.312 19.5491L209.127 19.6236ZM202.364 19.6236L202.179 19.5492L202.068 19.8236H202.364V19.6236ZM224.88 17.4227L225.043 17.5379L225.124 17.4238L225.044 17.309L224.88 17.4227ZM217.905 7.3273V7.1273H217.523L217.74 7.44099L217.905 7.3273ZM217.521 27.8702L217.358 27.755L217.136 28.0702H217.521V27.8702ZM221.831 27.8702V28.0702H221.936L221.996 27.9829L221.831 27.8702ZM227.482 19.5933L227.646 19.4779L227.48 19.2427L227.317 19.4805L227.482 19.5933ZM233.328 27.8702L233.165 27.9855L233.225 28.0702H233.328V27.8702ZM237.72 27.8702V28.0702H238.109L237.882 27.7538L237.72 27.8702ZM230.097 17.2175L229.936 17.0981L229.849 17.2152L229.934 17.3339L230.097 17.2175ZM237.455 7.3273L237.616 7.44669L237.854 7.1273H237.455V7.3273ZM233.188 7.3273V7.1273H233.086L233.026 7.21041L233.188 7.3273ZM227.588 15.1029L227.422 15.215L227.583 15.452L227.75 15.2197L227.588 15.1029ZM222.319 7.3273L222.485 7.21512L222.425 7.1273H222.319V7.3273ZM239.228 13.3123L239.042 13.2384L239.042 13.2394L239.228 13.3123ZM238.449 17.5696L238.649 17.573L238.649 17.5673L238.449 17.5696ZM241.452 9.9666L241.313 9.82265L241.311 9.82386L241.452 9.9666ZM244.924 7.78198L244.855 7.59433L244.854 7.59452L244.924 7.78198ZM249.486 7.00326L249.483 7.20331L249.489 7.20325L249.486 7.00326ZM253.999 7.73302L254.064 7.54403L254.064 7.54403L253.999 7.73302ZM257.488 9.83137L257.626 9.68673L257.624 9.68501L257.488 9.83137ZM259.723 13.1631L259.91 13.0908L259.909 13.0901L259.723 13.1631ZM260.518 17.6232L260.318 17.6199L260.318 17.6255L260.518 17.6232ZM259.74 21.8782L259.926 21.9519L259.926 21.9512L259.74 21.8782ZM257.516 25.2239L257.655 25.3679L257.656 25.3668L257.516 25.2239ZM254.029 27.4109L254.098 27.5987L254.099 27.5985L254.029 27.4109ZM249.481 28.1873L249.484 27.9872L249.479 27.9873L249.481 28.1873ZM244.964 27.4692L244.899 27.6586L244.9 27.6586L244.964 27.4692ZM241.475 25.3848L241.337 25.5294L241.339 25.5311L241.475 25.3848ZM239.24 22.0391L239.053 22.1108L239.053 22.1115L239.24 22.0391ZM242.801 20.4164L242.99 20.3524L242.99 20.351L242.801 20.4164ZM242.333 17.5976L242.533 17.5984L242.533 17.595L242.333 17.5976ZM244.169 22.7036L244.023 22.8402L244.024 22.8417L244.169 22.7036ZM246.421 24.2447L246.344 24.4296L246.349 24.4314L246.421 24.2447ZM252.484 24.289L252.553 24.4768L252.557 24.4751L252.484 24.289ZM254.719 22.8225L254.861 22.9638L254.862 22.9621L254.719 22.8225ZM256.148 20.5469L256.336 20.6152L256.336 20.6151L256.148 20.5469ZM256.648 17.5976L256.448 17.597L256.448 17.5999L256.648 17.5976ZM256.181 14.7811L255.991 14.8451L255.992 14.8463L256.181 14.7811ZM254.81 12.4916L254.956 12.3549L254.955 12.3534L254.81 12.4916ZM252.561 10.9505L252.638 10.7658L252.636 10.7651L252.561 10.9505ZM249.456 10.3793L249.453 10.5794L249.46 10.5792L249.456 10.3793ZM246.481 10.9062L246.553 11.093L246.553 11.0929L246.481 10.9062ZM244.235 12.3829L244.379 12.5226L244.235 12.3829ZM242.817 14.6622L242.629 14.5955L242.629 14.5956L242.817 14.6622ZM264.522 27.8701H264.322V28.0701L264.521 28.0702L264.522 27.8701ZM264.522 7.3273V7.1273H264.322V7.3273H264.522ZM272.979 27.8725L272.982 27.6725L272.979 27.6725L272.979 27.8725ZM276.349 27.5344L276.308 27.3386L276.307 27.3389L276.349 27.5344ZM278.881 26.4782L278.992 26.6448L278.994 26.6431L278.881 26.4782ZM280.485 24.613L280.665 24.7002L280.667 24.6963L280.485 24.613ZM281.044 21.8829L280.844 21.8822L280.844 21.8879L281.044 21.8829ZM277.354 17.1569L277.281 16.9707L276.611 17.2331L277.321 17.3541L277.354 17.1569ZM279.681 15.3686L279.85 15.4756L279.854 15.4691L279.681 15.3686ZM280.415 12.4333H280.215L280.215 12.4405L280.415 12.4333ZM275.722 15.28L275.607 15.1165L275.605 15.1178L275.722 15.28ZM268.202 16.0121H268.002V16.2121H268.202V16.0121ZM268.202 10.701V10.501H268.002V10.701H268.202ZM273.028 10.701L273.029 10.501H273.028V10.701ZM275.869 11.3468L275.99 11.1875L275.988 11.186L275.869 11.3468ZM276.737 13.226L276.537 13.2145L276.537 13.2243L276.537 13.2341L276.737 13.226ZM276.491 14.3817L276.671 14.4703V14.4703L276.491 14.3817ZM273.206 24.4941L273.205 24.6941H273.206V24.4941ZM276.325 23.7947L276.211 23.6308L276.325 23.7947ZM268.202 24.4755H268.002V24.6747L268.201 24.6755L268.202 24.4755ZM268.202 18.8799V18.6799H268.002V18.8799H268.202ZM273.265 18.8799V19.0799H273.265L273.265 18.8799ZM276.267 19.4954L276.166 19.6682L276.267 19.4954ZM299.994 27.8702L299.809 27.9452L299.859 28.0702H299.994V27.8702ZM303.908 27.8702V28.0702H304.207L304.093 27.7938L303.908 27.8702ZM298.02 22.9973L298.206 22.9222L298.155 22.7973H298.02V22.9973ZM288.574 22.9973V22.7973H288.438L288.388 22.9232L288.574 22.9973ZM286.63 27.8702V28.0702H286.766L286.816 27.9442L286.63 27.8702ZM282.889 27.8702L282.704 27.7948L282.592 28.0702H282.889V27.8702ZM291.246 7.3273V7.1273H291.112L291.061 7.25194L291.246 7.3273ZM295.427 7.3273L295.612 7.25098L295.561 7.1273H295.427V7.3273ZM293.283 11.1999L293.469 11.1255L293.283 10.663L293.097 11.1253L293.283 11.1999ZM296.66 19.6236V19.8236H296.955L296.845 19.5492L296.66 19.6236ZM289.897 19.6236L289.712 19.5491L289.601 19.8236H289.897V19.6236ZM321.92 18.9778H322.12V18.7778H321.92V18.9778ZM310.647 18.9778V18.7778H310.447V18.9778H310.647ZM321.92 27.8702H321.72V28.0702H321.92V27.8702ZM325.601 27.8702V28.0702H325.801V27.8702H325.601ZM325.601 7.3273H325.801V7.1273H325.601V7.3273ZM321.92 7.3273V7.1273H321.72V7.3273H321.92ZM321.92 15.6018V15.8018H322.12V15.6018H321.92ZM310.647 15.6018H310.447V15.8018H310.647V15.6018ZM310.647 7.3273H310.847V7.1273H310.647V7.3273ZM306.969 7.3273V7.1273H306.769V7.3273H306.969ZM306.969 27.8702H306.769V28.0702H306.969V27.8702ZM310.647 27.8702V28.0702H310.847V27.8702H310.647ZM346.026 7.3273V7.1273H345.925L345.865 7.20912L346.026 7.3273ZM334.784 22.6756L334.584 22.6754L334.583 23.2877L334.945 22.7938L334.784 22.6756ZM350.03 7.3273H350.23V7.1273H350.03V7.3273ZM350.03 27.8702V28.0702H350.23V27.8702H350.03ZM346.363 27.8702H346.163V28.0702H346.363V27.8702ZM346.363 12.2864H346.563V11.67L346.201 12.169L346.363 12.2864ZM335.06 27.8702V28.0702H335.162L335.222 27.9876L335.06 27.8702ZM331.115 27.8702H330.915V28.0702H331.115V27.8702ZM331.115 7.3273V7.1273H330.915V7.3273H331.115ZM334.795 7.3273L334.995 7.32745L334.996 7.1273H334.795V7.3273ZM368.689 18.9778V19.1778H368.889L368.889 18.9785L368.689 18.9778ZM359.224 18.9778V18.7778H359.024V18.9778H359.224ZM368.701 15.5971L368.901 15.5978L368.902 15.3971H368.701V15.5971ZM359.224 15.5971H359.024V15.7971H359.224V15.5971ZM359.224 10.701V10.501H359.024V10.701H359.224ZM369.791 10.701V10.901H369.991V10.701H369.791ZM369.791 7.3273H369.991V7.1273H369.791V7.3273ZM355.546 7.3273V7.1273H355.346V7.3273H355.546ZM355.546 27.8702H355.346V28.0702H355.546V27.8702ZM370.116 27.8702V28.0702H370.316V27.8702H370.116ZM370.116 24.4942H370.316V24.2942H370.116V24.4942ZM359.224 24.4942H359.024V24.6942H359.224V24.4942ZM155.522 26.7125C155.943 26.4467 156.321 26.119 156.643 25.7406L156.339 25.4812C156.042 25.8289 155.695 26.1301 155.308 26.3744L155.522 26.7125ZM153.849 27.5514C154.435 27.3316 154.996 27.0501 155.523 26.7118L155.307 26.3752C154.804 26.6982 154.268 26.967 153.708 27.1769L153.849 27.5514ZM151.712 28.1621C152.441 28.021 153.156 27.8165 153.85 27.551L153.707 27.1774C153.035 27.4346 152.342 27.6327 151.636 27.7693L151.712 28.1621ZM149.184 28.3988C150.033 28.405 150.88 28.3256 151.712 28.1619L151.635 27.7695C150.829 27.928 150.009 28.0048 149.187 27.9989L149.184 28.3988ZM144.531 27.656C146.029 28.1681 147.605 28.4194 149.188 28.3988L149.183 27.9989C147.645 28.0188 146.115 27.7748 144.66 27.2775L144.531 27.656ZM140.941 25.5155C141.976 26.4692 143.198 27.198 144.531 27.6559L144.661 27.2776C143.381 26.8377 142.206 26.1375 141.212 25.2213L140.941 25.5155ZM138.625 22.1113C139.142 23.3981 139.931 24.5586 140.939 25.5136L141.214 25.2232C140.248 24.3079 139.492 23.1955 138.996 21.9622L138.625 22.1113ZM137.802 17.5732C137.776 19.1246 138.055 20.666 138.625 22.1101L138.997 21.9633C138.447 20.5681 138.176 19.0788 138.202 17.5799L137.802 17.5732ZM138.611 13.2449C138.059 14.6227 137.784 16.0953 137.802 17.5789L138.202 17.5742C138.185 16.1431 138.45 14.7227 138.982 13.3936L138.611 13.2449ZM140.919 9.82239C139.916 10.7875 139.129 11.954 138.611 13.2447L138.982 13.3937C139.479 12.1556 140.234 11.0366 141.196 10.1107L140.919 9.82239ZM144.537 7.59393C143.192 8.08242 141.961 8.84032 140.921 9.821L141.195 10.1121C142.196 9.16883 143.379 8.4398 144.673 7.96991L144.537 7.59393ZM149.245 6.80322C147.641 6.78031 146.045 7.04821 144.537 7.59385L144.673 7.96999C146.136 7.44079 147.683 7.18096 149.239 7.20317L149.245 6.80322ZM153.484 7.41414C152.112 6.97757 150.677 6.77113 149.238 6.80324L149.246 7.20315C150.642 7.17202 152.033 7.37213 153.362 7.7953L153.484 7.41414ZM156.181 8.68416C155.343 8.14196 154.435 7.71474 153.483 7.41401L153.363 7.79544C154.281 8.08539 155.156 8.49728 155.964 9.01999L156.181 8.68416ZM156.272 13.9581V8.85208H155.872V13.9581H156.272ZM154.768 12.7858C155.192 13.175 155.575 13.6069 155.91 14.0745L156.235 13.8416C155.884 13.3515 155.483 12.8989 155.038 12.4911L154.768 12.7858ZM153.245 11.6675C153.794 11.98 154.305 12.355 154.767 12.7849L155.039 12.492C154.554 12.041 154.018 11.6476 153.442 11.3198L153.245 11.6675ZM151.375 10.8792C152.028 11.067 152.655 11.3316 153.244 11.6674L153.442 11.3199C152.825 10.9683 152.169 10.6913 151.486 10.4948L151.375 10.8792ZM149.238 10.5792C149.961 10.5759 150.681 10.6769 151.375 10.879L151.487 10.4949C150.756 10.2821 149.998 10.1757 149.236 10.1792L149.238 10.5792ZM146.268 11.0934C147.215 10.7377 148.222 10.5633 149.234 10.5792L149.24 10.1792C148.178 10.1625 147.122 10.3456 146.127 10.7189L146.268 11.0934ZM144.042 12.5174C144.676 11.8928 145.434 11.4076 146.268 11.0933L146.127 10.719C145.241 11.053 144.435 11.5686 143.761 12.2325L144.042 12.5174ZM142.646 14.7164C142.946 13.8906 143.423 13.1397 144.043 12.516L143.759 12.234C143.098 12.8989 142.59 13.6994 142.271 14.5799L142.646 14.7164ZM142.158 17.595C142.146 16.6141 142.311 15.6389 142.646 14.7165L142.271 14.5799C141.919 15.5477 141.745 16.5708 141.758 17.6L142.158 17.595ZM142.615 20.3297C142.309 19.4513 142.155 18.5278 142.158 17.5982L141.758 17.5969C141.755 18.5716 141.917 19.5399 142.237 20.461L142.615 20.3297ZM143.952 22.5625C143.349 21.9245 142.893 21.1633 142.615 20.3319L142.236 20.4587C142.532 21.3453 143.019 22.157 143.661 22.8372L143.952 22.5625ZM146.106 24.0263C145.29 23.7 144.555 23.2005 143.952 22.5625L143.661 22.8372C144.304 23.5174 145.087 24.0499 145.957 24.3977L146.106 24.0263ZM149.153 24.6135C148.109 24.614 147.075 24.4146 146.106 24.0263L145.957 24.3976C146.973 24.8049 148.058 25.014 149.153 25.0135L149.153 24.6135ZM151.588 24.3257C150.793 24.5241 149.975 24.6208 149.155 24.6135L149.151 25.0135C150.005 25.0211 150.856 24.9204 151.685 24.7138L151.588 24.3257ZM153.603 23.5504C152.965 23.8891 152.288 24.1495 151.588 24.3258L151.685 24.7137C152.417 24.5295 153.124 24.2575 153.79 23.9037L153.603 23.5504ZM155.196 22.4157C154.72 22.8645 154.184 23.2461 153.604 23.5499L153.789 23.9042C154.402 23.5835 154.968 23.1807 155.47 22.7069L155.196 22.4157ZM156.307 20.9967C156.011 21.5229 155.636 22.0014 155.196 22.4157L155.47 22.7069C155.94 22.2649 156.34 21.7544 156.656 21.1929L156.307 20.9967ZM156.691 25.6105L156.681 21.0944L156.281 21.0952L156.291 25.6113L156.691 25.6105ZM168.751 10.901H175.698V10.501H168.751V10.901ZM168.951 27.8702V10.701H168.551V27.8702H168.951ZM165.072 28.0702H168.751V27.6702H165.072V28.0702ZM164.872 10.701V27.8702H165.272V10.701H164.872ZM158.245 10.901H165.072V10.501H158.245V10.901ZM158.045 7.3273V10.701H158.445V7.3273H158.045ZM175.698 7.1273H158.245V7.5273H175.698V7.1273ZM175.898 10.701V7.3273H175.498V10.701H175.898ZM182.415 21.4725V27.8702H182.815V21.4725H182.415ZM185.795 21.2725H182.615V21.6725H185.795V21.2725ZM192.591 19.5227C191.07 20.6791 188.815 21.2725 185.795 21.2725V21.6725C188.858 21.6725 191.214 21.0722 192.833 19.8411L192.591 19.5227ZM194.866 14.2822C194.866 16.6411 194.1 18.3752 192.591 19.5227L192.833 19.8411C194.463 18.6012 195.266 16.7354 195.266 14.2822H194.866ZM192.751 9.23006C194.154 10.3474 194.868 12.019 194.866 14.282L195.266 14.2823C195.268 11.9289 194.521 10.1282 193 8.91713L192.751 9.23006ZM185.795 7.5273C189.038 7.5273 191.342 8.1084 192.751 9.23006L193 8.91713C191.484 7.71041 189.068 7.1273 185.795 7.1273V7.5273ZM178.939 7.5273H185.795V7.1273H178.939V7.5273ZM179.139 27.8702V7.3273H178.739V27.8702H179.139ZM182.615 27.6702H178.939V28.0702H182.615V27.6702ZM182.415 10.701V18.0965H182.815V10.701H182.415ZM186.117 10.501H182.615V10.901H186.117V10.501ZM190.142 11.3267C189.287 10.7633 187.933 10.4994 186.117 10.501L186.118 10.901C187.913 10.8994 189.168 11.164 189.922 11.6607L190.142 11.3267ZM191.438 14.1936C191.438 12.8803 191.02 11.9052 190.142 11.3267L189.922 11.6607C190.653 12.1423 191.038 12.9671 191.038 14.1936H191.438ZM190.057 17.3657C190.992 16.7194 191.438 15.6429 191.438 14.1936H191.038C191.038 15.5607 190.621 16.4893 189.829 17.0367L190.057 17.3657ZM186.059 18.2965C187.802 18.2965 189.144 17.9963 190.057 17.3657L189.829 17.0367C189.014 17.5999 187.768 17.8965 186.059 17.8965V18.2965ZM182.615 18.2965H186.059V17.8965H182.615V18.2965ZM212.459 28.0702H216.375V27.6702H212.459V28.0702ZM210.302 23.0723L212.273 27.9452L212.644 27.7952L210.673 22.9223L210.302 23.0723ZM201.041 23.1973H210.488V22.7973H201.041V23.1973ZM199.283 27.9442L201.226 23.0714L200.855 22.9232L198.912 27.7961L199.283 27.9442ZM195.356 28.0702H199.098V27.6702H195.356V28.0702ZM203.54 7.25185L195.171 27.7947L195.541 27.9456L203.91 7.40276L203.54 7.25185ZM207.904 7.1273H203.725V7.5273H207.904V7.1273ZM216.56 27.7939L208.089 7.25105L207.719 7.40355L216.191 27.9464L216.56 27.7939ZM205.557 11.2745L208.941 19.6982L209.312 19.5491L205.929 11.1254L205.557 11.2745ZM202.55 19.6981L205.929 11.2744L205.557 11.1255L202.179 19.5492L202.55 19.6981ZM209.127 19.4236H202.364V19.8236H209.127V19.4236ZM225.044 17.309L218.069 7.21361L217.74 7.44099L224.715 17.5364L225.044 17.309ZM217.685 27.9853L225.043 17.5379L224.716 17.3075L217.358 27.755L217.685 27.9853ZM221.831 27.6702H217.521V28.0702H221.831V27.6702ZM227.317 19.4805L221.666 27.7574L221.996 27.9829L227.648 19.7061L227.317 19.4805ZM233.492 27.7548L227.646 19.4779L227.319 19.7087L233.165 27.9855L233.492 27.7548ZM237.72 27.6702H233.328V28.0702H237.72V27.6702ZM229.934 17.3339L237.557 27.9865L237.882 27.7538L230.259 17.1011L229.934 17.3339ZM237.295 7.20791L229.936 17.0981L230.257 17.3369L237.616 7.44669L237.295 7.20791ZM233.188 7.5273H237.455V7.1273H233.188V7.5273ZM227.75 15.2197L233.35 7.44419L233.026 7.21041L227.425 14.986L227.75 15.2197ZM222.154 7.43948L227.422 15.215L227.753 14.9907L222.485 7.21512L222.154 7.43948ZM217.905 7.5273H222.319V7.1273H217.905V7.5273ZM239.042 13.2394C238.501 14.6195 238.232 16.0904 238.249 17.5719L238.649 17.5673C238.633 16.1373 238.892 14.7174 239.414 13.3852L239.042 13.2394ZM241.311 9.82386C240.325 10.7921 239.552 11.9551 239.042 13.2384L239.414 13.3862C239.903 12.1547 240.645 11.0386 241.592 10.1093L241.311 9.82386ZM244.854 7.59452C243.532 8.08599 242.327 8.84455 241.313 9.82265L241.59 10.1105C242.565 9.17071 243.723 8.44175 244.994 7.96945L244.854 7.59452ZM249.489 6.80328C247.909 6.77957 246.337 7.04777 244.855 7.59433L244.993 7.96964C246.43 7.44012 247.952 7.18027 249.483 7.20324L249.489 6.80328ZM254.064 7.54403C252.592 7.03429 251.042 6.78365 249.484 6.80328L249.489 7.20325C251.001 7.1842 252.505 7.42741 253.934 7.92202L254.064 7.54403ZM257.624 9.68501C256.6 8.73157 255.388 8.0023 254.064 7.54403L253.934 7.92201C255.204 8.36206 256.369 9.06231 257.352 9.97773L257.624 9.68501ZM259.909 13.0901C259.406 11.8036 258.626 10.6421 257.626 9.68674L257.35 9.976C258.308 10.8912 259.054 12.0037 259.537 13.236L259.909 13.0901ZM260.718 17.6266C260.744 16.0769 260.47 14.5367 259.91 13.0908L259.537 13.2353C260.078 14.633 260.344 16.1218 260.318 17.6199L260.718 17.6266ZM259.926 21.9512C260.466 20.5719 260.735 19.1017 260.718 17.6209L260.318 17.6255C260.335 19.0548 260.075 20.4739 259.553 21.8053L259.926 21.9512ZM257.656 25.3668C258.644 24.3995 259.417 23.2361 259.926 21.9519L259.554 21.8046C259.066 23.0366 258.324 24.1528 257.376 25.081L257.656 25.3668ZM254.099 27.5985C255.426 27.1086 256.637 26.3491 257.655 25.3679L257.377 25.08C256.399 26.0226 255.236 26.7525 253.96 27.2232L254.099 27.5985ZM249.479 28.3873C251.054 28.4079 252.62 28.1406 254.098 27.5987L253.961 27.2231C252.528 27.7483 251.011 28.0073 249.484 27.9873L249.479 28.3873ZM244.9 27.6586C246.375 28.1589 247.925 28.4053 249.484 28.3873L249.479 27.9873C247.966 28.0048 246.461 27.7656 245.028 27.2798L244.9 27.6586ZM241.339 25.5311C242.361 26.4838 243.575 27.2089 244.899 27.6586L245.028 27.2798C243.757 26.8483 242.592 26.1525 241.611 25.2385L241.339 25.5311ZM239.053 22.1115C239.554 23.4036 240.334 24.5703 241.337 25.5293L241.613 25.2403C240.653 24.3217 239.906 23.2042 239.426 21.9668L239.053 22.1115ZM238.249 17.5663C238.223 19.1184 238.496 20.6612 239.053 22.1108L239.426 21.9674C238.888 20.5656 238.624 19.0738 238.649 17.573L238.249 17.5663ZM242.99 20.351C242.684 19.4655 242.529 18.535 242.533 17.5984L242.133 17.5968C242.129 18.5784 242.291 19.5537 242.612 20.4817L242.99 20.351ZM244.315 22.5669C243.72 21.9313 243.268 21.1763 242.99 20.3524L242.611 20.4803C242.908 21.3584 243.389 22.163 244.023 22.8402L244.315 22.5669ZM246.497 24.0599C245.672 23.7192 244.929 23.2101 244.313 22.5655L244.024 22.8417C244.678 23.5267 245.468 24.0676 246.344 24.4295L246.497 24.0599ZM252.415 24.1013C250.501 24.8053 248.396 24.7899 246.492 24.058L246.349 24.4314C248.342 25.1981 250.548 25.2142 252.553 24.4767L252.415 24.1013ZM254.578 22.6812C253.961 23.2988 253.223 23.7828 252.411 24.1029L252.557 24.4751C253.421 24.1348 254.205 23.6203 254.861 22.9638L254.578 22.6812ZM255.96 20.4787C255.661 21.303 255.189 22.0543 254.576 22.6828L254.862 22.9621C255.515 22.293 256.017 21.4929 256.336 20.6152L255.96 20.4787ZM256.448 17.5999C256.46 18.581 256.294 19.5561 255.96 20.4788L256.336 20.6151C256.687 19.6472 256.86 18.6244 256.848 17.5953L256.448 17.5999ZM255.992 14.8463C256.297 15.7314 256.451 16.6611 256.448 17.597L256.848 17.5982C256.851 16.6175 256.69 15.6433 256.37 14.716L255.992 14.8463ZM254.664 12.6284C255.26 13.2644 255.713 14.0203 255.991 14.8451L256.37 14.7172C256.073 13.8381 255.591 13.0326 254.956 12.3549L254.664 12.6284ZM252.484 11.1352C253.307 11.4773 254.05 11.9863 254.666 12.6298L254.955 12.3534C254.301 11.6698 253.512 11.1292 252.638 10.7658L252.484 11.1352ZM249.46 10.5792C250.496 10.5577 251.526 10.7471 252.486 11.1359L252.636 10.7651C251.625 10.3559 250.542 10.1566 249.451 10.1793L249.46 10.5792ZM246.553 11.0929C247.478 10.7385 248.462 10.5641 249.453 10.5793L249.459 10.1793C248.417 10.1634 247.382 10.3467 246.41 10.7194L246.553 11.0929ZM244.379 12.5226C244.991 11.8948 245.733 11.407 246.553 11.093L246.41 10.7194C245.536 11.0542 244.745 11.5741 244.092 12.2433L244.379 12.5226ZM243.006 14.7289C243.298 13.9031 243.766 13.1503 244.379 12.5226L244.092 12.2433C243.439 12.9125 242.94 13.715 242.629 14.5955L243.006 14.7289ZM242.533 17.595C242.521 16.6194 242.681 15.6492 243.006 14.7289L242.629 14.5956C242.288 15.5603 242.12 16.5774 242.133 17.6001L242.533 17.595ZM264.722 27.8701V7.3273H264.322V27.8701H264.722ZM272.979 27.6725L264.522 27.6701L264.521 28.0702L272.979 28.0725L272.979 27.6725ZM276.307 27.3389C275.214 27.5735 274.099 27.6854 272.982 27.6725L272.977 28.0725C274.124 28.0857 275.269 27.9708 276.391 27.73L276.307 27.3389ZM278.771 26.3117C278.023 26.8081 277.187 27.1567 276.308 27.3386L276.389 27.7303C277.319 27.5381 278.202 27.1696 278.992 26.6448L278.771 26.3117ZM280.305 24.5259C279.957 25.2446 279.428 25.8607 278.768 26.3134L278.994 26.6431C279.711 26.1512 280.287 25.4816 280.665 24.7002L280.305 24.5259ZM280.844 21.8879C280.867 22.7981 280.682 23.7015 280.303 24.5298L280.667 24.6963C281.072 23.8126 281.269 22.8488 281.244 21.8778L280.844 21.8879ZM280 18.7901C280.56 19.5357 280.849 20.5593 280.844 21.8822L281.244 21.8836C281.249 20.505 280.948 19.3867 280.32 18.55L280 18.7901ZM277.321 17.3541C278.563 17.5658 279.446 18.0513 280 18.7901L280.32 18.55C279.687 17.7065 278.699 17.1832 277.388 16.9598L277.321 17.3541ZM279.512 15.2618C279.049 15.9951 278.311 16.5674 277.281 16.9707L277.427 17.3431C278.517 16.9164 279.331 16.2965 279.85 15.4755L279.512 15.2618ZM280.215 12.4405C280.251 13.4306 280.006 14.4107 279.508 15.2682L279.854 15.4691C280.39 14.5464 280.654 13.4916 280.615 12.4261L280.215 12.4405ZM273.47 7.5273C275.767 7.5273 277.453 7.95043 278.56 8.76493C279.657 9.571 280.215 10.7816 280.215 12.4333H280.615C280.615 10.681 280.016 9.33859 278.797 8.44266C277.59 7.55517 275.804 7.1273 273.47 7.1273V7.5273ZM264.522 7.5273H273.47V7.1273H264.522V7.5273ZM272.94 16.2121C274.143 16.2121 275.117 15.9632 275.839 15.4422L275.605 15.1178C274.974 15.5731 274.093 15.8121 272.94 15.8121V16.2121ZM268.202 16.2121H272.94V15.8121H268.202V16.2121ZM268.002 10.701V16.0121H268.402V10.701H268.002ZM273.028 10.501H268.202V10.901H273.028V10.501ZM275.988 11.186C275.356 10.718 274.355 10.5026 273.029 10.501L273.028 10.901C274.33 10.9025 275.223 11.1176 275.751 11.5076L275.988 11.186ZM276.72 12.0947C276.555 11.7373 276.304 11.4258 275.99 11.1875L275.749 11.5061C276.01 11.7048 276.219 11.9645 276.357 12.2624L276.72 12.0947ZM276.937 13.2375C276.959 12.8446 276.885 12.4522 276.72 12.0947L276.357 12.2624C276.494 12.5603 276.556 12.8872 276.537 13.2145L276.937 13.2375ZM276.671 14.4703C276.863 14.0815 276.954 13.651 276.937 13.2179L276.537 13.2341C276.552 13.6002 276.475 13.9643 276.312 14.2931L276.671 14.4703ZM275.837 15.4436C276.192 15.1936 276.479 14.859 276.671 14.4703L276.312 14.2931C276.15 14.6219 275.907 14.905 275.607 15.1165L275.837 15.4436ZM273.206 24.6941C274.633 24.6941 275.722 24.4601 276.44 23.9586L276.211 23.6308C275.594 24.0619 274.604 24.2941 273.206 24.2941V24.6941ZM268.201 24.6755L273.205 24.6941L273.207 24.2941L268.203 24.2755L268.201 24.6755ZM268.002 18.8799V24.4755H268.402V18.8799H268.002ZM273.265 18.6799H268.202V19.0799H273.265V18.6799ZM276.368 19.3226C275.618 18.8853 274.576 18.6783 273.264 18.6799L273.265 19.0799C274.544 19.0784 275.504 19.2817 276.166 19.6682L276.368 19.3226ZM277.526 21.6101C277.526 20.5594 277.15 19.7788 276.368 19.3226L276.166 19.6682C276.797 20.0358 277.126 20.6649 277.126 21.6101H277.526ZM276.44 23.9586C277.173 23.4466 277.526 22.6495 277.526 21.6101H277.126C277.126 22.5509 276.813 23.2102 276.211 23.6308L276.44 23.9586ZM299.994 28.0702H303.908V27.6702H299.994V28.0702ZM297.835 23.0724L299.809 27.9452L300.179 27.7951L298.206 22.9222L297.835 23.0724ZM288.574 23.1973H298.02V22.7973H288.574V23.1973ZM286.816 27.9442L288.759 23.0714L288.388 22.9232L286.445 27.7961L286.816 27.9442ZM282.889 28.0702H286.63V27.6702H282.889V28.0702ZM291.061 7.25194L282.704 27.7948L283.074 27.9455L291.432 7.40267L291.061 7.25194ZM295.427 7.1273H291.246V7.5273H295.427V7.1273ZM304.093 27.7938L295.612 7.25098L295.242 7.40362L303.723 27.9465L304.093 27.7938ZM293.097 11.2743L296.474 19.6981L296.845 19.5492L293.469 11.1255L293.097 11.2743ZM290.083 19.6982L293.469 11.2745L293.097 11.1253L289.712 19.5491L290.083 19.6982ZM296.66 19.4236H289.897V19.8236H296.66V19.4236ZM321.92 18.7778H310.647V19.1778H321.92V18.7778ZM322.12 27.8702V18.9778H321.72V27.8702H322.12ZM325.601 27.6702H321.92V28.0702H325.601V27.6702ZM325.401 7.3273V27.8702H325.801V7.3273H325.401ZM321.92 7.5273H325.601V7.1273H321.92V7.5273ZM322.12 15.6018V7.3273H321.72V15.6018H322.12ZM310.647 15.8018H321.92V15.4018H310.647V15.8018ZM310.447 7.3273V15.6018H310.847V7.3273H310.447ZM306.969 7.5273H310.647V7.1273H306.969V7.5273ZM307.169 27.8702V7.3273H306.769V27.8702H307.169ZM310.647 27.6702H306.969V28.0702H310.647V27.6702ZM310.447 18.9778V27.8702H310.847V18.9778H310.447ZM345.865 7.20912L334.622 22.5574L334.945 22.7938L346.188 7.44549L345.865 7.20912ZM350.03 7.1273H346.026V7.5273H350.03V7.1273ZM350.23 27.8702V7.3273H349.83V27.8702H350.23ZM346.363 28.0702H350.03V27.6702H346.363V28.0702ZM346.163 12.2864V27.8702H346.563V12.2864H346.163ZM335.222 27.9876L346.525 12.4038L346.201 12.169L334.898 27.7527L335.222 27.9876ZM331.115 28.0702H335.06V27.6702H331.115V28.0702ZM330.915 7.3273V27.8702H331.315V7.3273H330.915ZM334.795 7.1273H331.115V7.5273H334.795V7.1273ZM334.984 22.6757L334.995 7.32745L334.595 7.32715L334.584 22.6754L334.984 22.6757ZM368.689 18.7778H359.224V19.1778H368.689V18.7778ZM368.501 15.5964L368.489 18.9771L368.889 18.9785L368.901 15.5978L368.501 15.5964ZM359.224 15.7971H368.701V15.3971H359.224V15.7971ZM359.024 10.701V15.5971H359.424V10.701H359.024ZM369.791 10.501H359.224V10.901H369.791V10.501ZM369.591 7.3273V10.701H369.991V7.3273H369.591ZM355.546 7.5273H369.791V7.1273H355.546V7.5273ZM355.746 27.8702V7.3273H355.346V27.8702H355.746ZM370.116 27.6702H355.546V28.0702H370.116V27.6702ZM369.916 24.4942V27.8702H370.316V24.4942H369.916ZM359.224 24.6942H370.116V24.2942H359.224V24.6942ZM359.024 18.9778V24.4942H359.424V18.9778H359.024Z" fill="#21A038" mask="url(#path-13-outside-1)"/>
<defs>
<linearGradient id="paint0_linear" x1="4.75485" y1="29.1019" x2="0.722823" y2="17.4229" gradientUnits="userSpaceOnUse">
<stop offset="0.1444" stop-color="#F2E913"/>
<stop offset="0.3037" stop-color="#E7E518"/>
<stop offset="0.5823" stop-color="#CADB26"/>
<stop offset="0.891" stop-color="#A3CD39"/>
</linearGradient>
<linearGradient id="paint1_linear" x1="6.2997" y1="4.91711" x2="16.603" y2="0.982617" gradientUnits="userSpaceOnUse">
<stop offset="0.0592" stop-color="#0FA8E0"/>
<stop offset="0.5385" stop-color="#0099F9"/>
<stop offset="0.9234" stop-color="#0291EB"/>
</linearGradient>
<linearGradient id="paint2_linear" x1="16.2167" y1="31.2464" x2="28.5036" y2="28.4637" gradientUnits="userSpaceOnUse">
<stop offset="0.1226" stop-color="#A3CD39"/>
<stop offset="0.2846" stop-color="#86C339"/>
<stop offset="0.8693" stop-color="#21A038"/>
</linearGradient>
<linearGradient id="paint3_linear" x1="16.5168" y1="2.83523" x2="26.7321" y2="5.9936" gradientUnits="userSpaceOnUse">
<stop offset="0.0566" stop-color="#0291EB"/>
<stop offset="0.79" stop-color="#0C8ACB"/>
</linearGradient>
<linearGradient id="paint4_linear" x1="5.56549" y1="29.617" x2="16.5318" y2="33.7229" gradientUnits="userSpaceOnUse">
<stop offset="0.1324" stop-color="#F2E913"/>
<stop offset="0.2977" stop-color="#EBE716"/>
<stop offset="0.5306" stop-color="#D9E01F"/>
<stop offset="0.8023" stop-color="#BBD62D"/>
<stop offset="0.9829" stop-color="#A3CD39"/>
</linearGradient>
<linearGradient id="paint5_linear" x1="3.1278" y1="17.9572" x2="7.48855" y2="6.58985" gradientUnits="userSpaceOnUse">
<stop offset="0.0698" stop-color="#A3CD39"/>
<stop offset="0.2599" stop-color="#81C55F"/>
<stop offset="0.9216" stop-color="#0FA8E0"/>
</linearGradient>
</defs>
</svg>
