<?xml version="1.0" encoding="utf-8"?>
<!-- Generator: Adobe Illustrator 21.0.0, SVG Export Plug-In . SVG Version: 6.00 Build 0)  -->
<svg version="1.1" id="Слой_1" xmlns="http://www.w3.org/2000/svg" xmlns:xlink="http://www.w3.org/1999/xlink" x="0px" y="0px"
	 viewBox="0 0 119.3 121" style="enable-background:new 0 0 119.3 121;" xml:space="preserve">
<style type="text/css">
	.st0{fill:none;stroke:#FFFFFF;stroke-width:3;stroke-linecap:round;stroke-linejoin:round;stroke-miterlimit:10;}
	.st1{fill:none;stroke:#FFFFFF;stroke-width:2;stroke-linecap:round;stroke-miterlimit:10;}
	.st2{fill:none;stroke:#FFFFFF;stroke-width:2;stroke-linecap:round;stroke-miterlimit:10;stroke-dasharray:0.187,4.187;}
	.st3{fill:#FFFFFF;}
</style>
<path class="st0" d="M32.9,24.7c0,0-6.9-10-11.4-16c9-7,14.8,0.1,14.8,0.1s3.7-5.3,8.9-5.3c5.2,0,9,5.3,9,5.3S60.1,0.6,69.2,8
	C63.4,15.8,58,24.7,58,24.7 M51.3,106.9c-2,0.3-4,0.4-6,0.4c-22.9,0-41.4-16.2-41.4-39.1c0-17.5,15-35.9,29.1-43.6 M58,24.9
	c4.7,2.6,9.5,6.5,13.8,11.1"/>
<path class="st1" d="M58.5,24.8c0,0-4.8,1.9-13.2,1.9c-8.4,0-13.4-2-13.4-2"/>
<path class="st0" d="M105.4,105.2l-20.7,12.1l-20.7-12.1c-5.4-3.2-8.8-9-8.8-15.3V47.5c0,0,13.1-4.1,29.4-4.1
	c16.3,0,29.4,4.1,29.4,4.1v42.4C114.2,96.2,110.8,102,105.4,105.2z"/>
<path class="st2" d="M40.8,95.4c-11.4-2.1-20.6-9.5-24.5-19.8"/>
<path class="st1" d="M15.7,73.6C15.7,73.6,15.6,73.5,15.7,73.6 M45,95.9C45,95.9,45,95.9,45,95.9"/>
<polygon class="st3" points="99.1,62 81.7,79.4 71.8,70.8 66.6,76.8 81.6,89.9 82.1,90.3 82.1,90.3 82.2,90.3 83.1,89.3 104.7,67.7 
	"/>
</svg>
