<?xml version="1.0" encoding="utf-8"?>
<!-- Generator: Adobe Illustrator 21.0.0, SVG Export Plug-In . SVG Version: 6.00 Build 0)  -->
<svg version="1.1" id="Слой_1" xmlns="http://www.w3.org/2000/svg" xmlns:xlink="http://www.w3.org/1999/xlink" x="0px" y="0px"
	 viewBox="0 0 172.3 128" style="enable-background:new 0 0 172.3 128;" xml:space="preserve">
<style type="text/css">
	.st0{fill:none;stroke:#FFFFFF;stroke-width:3.155;stroke-linecap:round;stroke-linejoin:round;stroke-miterlimit:10;}
	.st1{fill:none;stroke:#FFFFFF;stroke-width:2.103;stroke-linecap:round;stroke-miterlimit:10;stroke-dasharray:0.395,5.395;}
	.st2{fill:none;stroke:#FFFFFF;stroke-width:2.103;stroke-linecap:round;stroke-miterlimit:10;stroke-dasharray:0.316,5.316;}
	.st3{fill:none;stroke:#FFFFFF;stroke-width:2.103;stroke-linecap:round;stroke-miterlimit:10;stroke-dasharray:0.518,5.518;}
	.st4{fill:none;stroke:#FFFFFF;stroke-width:2.103;stroke-linecap:round;stroke-miterlimit:10;}
	.st5{fill:none;stroke:#FFFFFF;stroke-width:1.514;stroke-linecap:round;stroke-linejoin:round;stroke-miterlimit:10;}
	
		.st6{fill:none;stroke:#FFFFFF;stroke-width:2.103;stroke-linecap:round;stroke-miterlimit:10;stroke-dasharray:1.300000e-02,5.013;}
	.st7{fill:none;stroke:#FFFFFF;stroke-width:2.103;stroke-linecap:round;stroke-miterlimit:10;stroke-dasharray:0.186,5.186;}
</style>
<path class="st0" d="M117.3,51.2h-9.8c-0.8,0-1.5,0.7-1.5,1.5v29.7c0,0.8,0.7,1.5,1.5,1.5h9.8c0.8,0,1.5-0.7,1.5-1.5V52.7
	C118.8,51.9,118.1,51.2,117.3,51.2z M95.7,39.1h-9.8c-0.8,0-1.5,0.7-1.5,1.5v41.7c0,0.8,0.7,1.5,1.5,1.5h9.8c0.8,0,1.5-0.7,1.5-1.5
	V40.6C97.2,39.8,96.5,39.1,95.7,39.1z M74.1,71h-9.8c-0.8,0-1.5,0.7-1.5,1.5v9.9c0,0.8,0.7,1.5,1.5,1.5h9.8c0.8,0,1.5-0.7,1.5-1.5
	v-9.9C75.6,71.6,74.9,71,74.1,71z M52.6,64.8h-9.8c-0.8,0-1.5,0.7-1.5,1.5v16c0,0.8,0.7,1.5,1.5,1.5h9.8c0.8,0,1.5-0.7,1.5-1.5v-16
	C54,65.5,53.4,64.8,52.6,64.8z"/>
<line class="st1" x1="2.5" y1="37.9" x2="2.5" y2="23.2"/>
<path class="st2" d="M3.3,14.9c2-6.4,7.5-11.3,14.3-12.3"/>
<line class="st3" x1="26.2" y1="2.4" x2="41.6" y2="2.4"/>
<path class="st4" d="M44.3,2.4h0.3 M20.3,2.4c0.1,0,0.1,0,0.2,0h0.3 M2.5,20.5v-0.2c0-0.1,0-0.1,0-0.2 M2.5,43.5v-0.2"/>
<path class="st0" d="M13.2,104.2V24.4c0-6.2,5-11.2,11.2-11.2H136c6.2,0,11.2,5,11.2,11.2v79.2 M12.9,114.4h134.7
	c4.9,0,8.8-4,8.8-8.8v-1.1H4v1.1C4,110.4,8,114.4,12.9,114.4z"/>
<path class="st5" d="M23.1,103.6V28.9c0-2.9,2.3-5.2,5.2-5.2h103.8c2.9,0,5.2,2.3,5.2,5.2v74.8"/>
<line class="st6" x1="106.9" y1="124.9" x2="144.6" y2="124.9"/>
<path class="st7" d="M152.3,124.3c8-2.1,14-8.8,15.1-17.2"/>
<path class="st4" d="M167.6,104.5C167.6,104.5,167.6,104.5,167.6,104.5 M147.1,124.9L147.1,124.9
	C147.1,124.9,147.2,124.9,147.1,124.9 M101.9,124.9L101.9,124.9"/>
</svg>
