<?xml version="1.0" encoding="utf-8"?>
<!-- Generator: Adobe Illustrator 21.0.0, SVG Export Plug-In . SVG Version: 6.00 Build 0)  -->
<svg version="1.1" id="Слой_1" xmlns="http://www.w3.org/2000/svg" xmlns:xlink="http://www.w3.org/1999/xlink" x="0px" y="0px"
	 viewBox="0 0 163 128" style="enable-background:new 0 0 163 128;" xml:space="preserve">
<style type="text/css">
	.st0{fill:none;stroke:#FFFFFF;stroke-width:2.103;stroke-linecap:round;stroke-miterlimit:10;stroke-dasharray:0.395,5.395;}
	.st1{fill:none;stroke:#FFFFFF;stroke-width:3;stroke-linecap:round;stroke-linejoin:round;stroke-miterlimit:10;}
	.st2{fill:none;stroke:#FFFFFF;stroke-width:2;stroke-linecap:round;stroke-linejoin:round;stroke-miterlimit:10;}
	.st3{fill:#FFFFFF;}
</style>
<line class="st0" x1="1.5" y1="37.9" x2="1.5" y2="23.2"/>
<path class="st1" d="M127.1,91.5c15.2,0,27.5-12.3,27.5-27.5h-55C99.5,79.2,111.9,91.5,127.1,91.5z"/>
<path class="st2" d="M58.7,113.8h45.5 M88.8,22.1c0,4.3-3.5,7.8-7.8,7.8c-4.3,0-7.8-3.5-7.8-7.8s3.5-7.8,7.8-7.8
	C85.3,14.3,88.8,17.8,88.8,22.1z M89.8,22.1h51.3 M112.9,56.2l12.1-27c0.8-1.8,3.3-1.8,4.1,0l12,27 M131.6,23.3c0,2.5-2,4.5-4.5,4.5
	s-4.5-2-4.5-4.5 M104.5,56.2h45.2"/>
<line class="st1" x1="52.5" y1="121.7" x2="110.4" y2="121.7"/>
<path class="st3" d="M158.4,82.1c-0.5-0.2-0.7-0.8-0.5-1.3c0.2-0.5,0.8-0.7,1.3-0.5c0.5,0.2,0.7,0.8,0.5,1.3
	c-0.2,0.4-0.5,0.6-0.9,0.6C158.6,82.2,158.5,82.2,158.4,82.1 M156.4,85.6c-0.5-0.3-0.6-0.9-0.4-1.4c0.3-0.5,0.9-0.6,1.4-0.3
	c0.5,0.3,0.6,0.9,0.3,1.4c-0.2,0.3-0.5,0.5-0.9,0.5C156.7,85.7,156.6,85.7,156.4,85.6 M154,88.8c-0.4-0.3-0.5-1-0.2-1.4h0
	c0.4-0.4,1-0.5,1.4-0.2c0.4,0.3,0.5,1,0.2,1.4h0c-0.2,0.2-0.5,0.4-0.8,0.4C154.4,89,154.2,89,154,88.8 M151.3,91.7
	c-0.4-0.4-0.4-1,0-1.4c0.4-0.4,1-0.4,1.4,0c0.4,0.4,0.4,1,0,1.4c-0.2,0.2-0.5,0.3-0.7,0.3C151.7,92,151.5,91.9,151.3,91.7
	 M148.2,94.2c-0.3-0.4-0.2-1.1,0.2-1.4c0.4-0.3,1.1-0.2,1.4,0.2c0.3,0.4,0.2,1.1-0.2,1.4c-0.2,0.1-0.4,0.2-0.6,0.2
	C148.7,94.6,148.4,94.5,148.2,94.2 M144.7,96.3c-0.3-0.5-0.1-1.1,0.4-1.4c0.5-0.3,1.1-0.1,1.4,0.4c0.3,0.5,0.1,1.1-0.4,1.4
	c-0.2,0.1-0.3,0.1-0.5,0.1C145.3,96.8,144.9,96.6,144.7,96.3 M141.1,97.9c-0.2-0.5,0-1.1,0.5-1.3c0.5-0.2,1.1,0,1.3,0.5
	c0.2,0.5,0,1.1-0.6,1.3c-0.1,0-0.2,0.1-0.4,0.1C141.6,98.6,141.3,98.3,141.1,97.9 M137.3,99.1c-0.1-0.5,0.2-1.1,0.7-1.2
	c0.5-0.1,1.1,0.2,1.2,0.7c0.1,0.5-0.2,1.1-0.7,1.2c-0.1,0-0.2,0-0.2,0C137.8,99.8,137.4,99.5,137.3,99.1 M133.3,99.7
	c-0.1-0.6,0.3-1.1,0.9-1.1c0.6-0.1,1.1,0.3,1.1,0.9c0.1,0.5-0.3,1-0.9,1.1c-0.1,0-0.1,0-0.1,0C133.8,100.6,133.4,100.2,133.3,99.7"
	/>
<path class="st1" d="M35.7,91.5C20.5,91.5,8.2,79.2,8.2,64h55C63.2,79.2,50.9,91.5,35.7,91.5z"/>
<path class="st2" d="M73,22.1H21.7 M49.8,56.2l-12.1-27c-0.8-1.8-3.3-1.8-4.1,0l-12,27 M31.1,23.3c0,2.5,2,4.5,4.5,4.5
	s4.5-2,4.5-4.5 M58.3,56.2H13.1"/>
<path class="st3" d="M4,82.2L4,82.2c-0.4,0-0.8-0.2-0.9-0.6c-0.2-0.5,0-1.1,0.5-1.3c0.5-0.2,1.1,0,1.3,0.5c0.2,0.5,0,1.1-0.5,1.3
	C4.3,82.2,4.1,82.2,4,82.2 M5.8,85.7L5.8,85.7c-0.3,0-0.7-0.2-0.9-0.5c-0.3-0.5-0.1-1.1,0.3-1.4c0.5-0.3,1.1-0.1,1.4,0.3
	c0.3,0.5,0.1,1.1-0.4,1.4C6.2,85.7,6,85.7,5.8,85.7 M8.1,89L8.1,89c-0.3,0-0.6-0.1-0.8-0.4h0C7,88.2,7,87.6,7.5,87.2
	c0.4-0.3,1.1-0.3,1.4,0.2h0c0.4,0.4,0.3,1.1-0.2,1.4C8.5,89,8.3,89,8.1,89 M10.8,92L10.8,92c-0.2,0-0.5-0.1-0.7-0.3
	c-0.4-0.4-0.4-1,0-1.4c0.4-0.4,1-0.4,1.4,0c0.4,0.4,0.4,1,0,1.4C11.3,91.9,11,92,10.8,92 M13.8,94.6L13.8,94.6
	c-0.2,0-0.4-0.1-0.6-0.2c-0.4-0.3-0.5-1-0.2-1.4c0.3-0.4,1-0.5,1.4-0.2s0.5,1,0.2,1.4C14.4,94.5,14.1,94.6,13.8,94.6 M17.1,96.8
	L17.1,96.8c-0.2,0-0.3-0.1-0.5-0.1c-0.5-0.3-0.6-0.9-0.4-1.4c0.3-0.5,0.9-0.7,1.4-0.4c0.5,0.3,0.7,0.9,0.4,1.4
	C17.8,96.6,17.5,96.8,17.1,96.8 M20.7,98.6L20.7,98.6c-0.1,0-0.2,0-0.4-0.1c-0.5-0.2-0.8-0.8-0.6-1.3c0.2-0.5,0.8-0.8,1.3-0.5
	c0.5,0.2,0.8,0.8,0.5,1.3C21.5,98.3,21.1,98.6,20.7,98.6 M24.5,99.8L24.5,99.8c-0.1,0-0.2,0-0.2,0c-0.5-0.1-0.9-0.7-0.7-1.2
	c0.1-0.5,0.7-0.9,1.2-0.7c0.5,0.1,0.8,0.7,0.7,1.2C25.4,99.5,25,99.8,24.5,99.8 M28.4,100.6L28.4,100.6c0,0-0.1,0-0.1,0
	c-0.5-0.1-0.9-0.6-0.9-1.1c0.1-0.5,0.6-0.9,1.1-0.9c0.5,0.1,0.9,0.6,0.9,1.1C29.4,100.2,28.9,100.6,28.4,100.6"/>
<path class="st2" d="M93.9,113.8L83.7,30.1 M67.8,113.8L78,30.1"/>
<path class="st3" d="M82.5,4.8L82.5,4.8c-0.5-0.1-1-0.5-0.9-1.1c0-0.6,0.5-1,1.1-0.9c0.5,0.1,0.9,0.5,0.9,1.1
	C83.6,4.4,83.1,4.8,82.5,4.8C82.6,4.8,82.6,4.8,82.5,4.8 M77.7,4c-0.1-0.6,0.3-1.1,0.9-1.1c0.5-0.1,1,0.3,1.1,0.9
	c0.1,0.6-0.3,1.1-0.9,1.1c0,0-0.1,0-0.1,0C78.2,4.9,77.8,4.5,77.7,4 M86.1,5.5c-0.5-0.2-0.8-0.7-0.7-1.2s0.7-0.8,1.3-0.7
	c0.5,0.2,0.8,0.7,0.7,1.2c-0.1,0.4-0.5,0.7-1,0.7C86.3,5.5,86.2,5.5,86.1,5.5 M74,5.1c-0.2-0.5,0.1-1.1,0.6-1.3
	c0.5-0.2,1.1,0.1,1.3,0.6c0.2,0.5-0.1,1.1-0.6,1.3c-0.1,0-0.2,0.1-0.3,0.1C74.6,5.8,74.2,5.5,74,5.1 M89.5,7
	c-0.5-0.3-0.7-0.9-0.4-1.4C89.4,5.1,90,5,90.5,5.2c0.5,0.3,0.7,0.9,0.4,1.4c-0.2,0.3-0.5,0.5-0.9,0.5C89.8,7.1,89.6,7.1,89.5,7
	 M70.6,7c-0.3-0.5-0.2-1.1,0.3-1.4s1.1-0.2,1.4,0.3C72.6,6.4,72.5,7,72,7.3c-0.2,0.1-0.4,0.2-0.5,0.2C71.2,7.5,70.8,7.3,70.6,7
	 M92.4,9.1L92.4,9.1c-0.4-0.4-0.4-1-0.1-1.4c0.4-0.4,1-0.4,1.4-0.1c0.4,0.4,0.4,1,0.1,1.4c-0.2,0.2-0.5,0.3-0.8,0.3
	C92.8,9.4,92.6,9.3,92.4,9.1 M67.7,9.6c-0.4-0.4-0.4-1,0-1.4c0.4-0.4,1-0.4,1.4,0c0.4,0.4,0.4,1,0,1.4c-0.2,0.2-0.5,0.3-0.7,0.3
	C68.2,9.9,67.9,9.8,67.7,9.6 M94.8,11.9c-0.3-0.4-0.2-1.1,0.2-1.4c0.4-0.3,1.1-0.2,1.4,0.2c0.3,0.4,0.2,1.1-0.2,1.4
	c-0.2,0.1-0.4,0.2-0.6,0.2C95.3,12.3,95,12.1,94.8,11.9 M65.4,12.7c-0.5-0.3-0.6-0.9-0.3-1.4c0.3-0.5,0.9-0.6,1.4-0.3
	c0.5,0.3,0.6,0.9,0.3,1.4c-0.2,0.3-0.5,0.4-0.8,0.4C65.8,12.8,65.6,12.8,65.4,12.7"/>
</svg>
