<svg width="41" height="43" viewBox="0 0 41 43" fill="none" xmlns="http://www.w3.org/2000/svg">
<path d="M23.6127 13.595L29.4687 9.18963C29.7097 9.00629 29.8087 8.68952 29.7147 8.39923C29.6267 8.12625 29.3367 7.91233 29.0557 7.91233H21.7477L19.3987 0.469565C19.3097 0.201678 19.0347 0 18.7587 0C18.4787 0 18.2017 0.205756 18.1157 0.476699L15.7687 7.91233H8.48467C8.18067 7.91233 7.91368 8.10995 7.81768 8.4033C7.73068 8.67526 7.84369 9.03379 8.06969 9.20288L13.9047 13.594L11.2267 20.6578C11.1227 20.9268 11.2067 21.2537 11.4237 21.4371C11.6337 21.6143 11.9907 21.6367 12.2217 21.4839L18.1097 17.5909V41.3503C18.1097 41.714 18.4007 42.0104 18.7577 42.0104C19.1137 42.0104 19.4037 41.714 19.4037 41.3503V17.5909L25.2977 21.487C25.5297 21.6367 25.8817 21.6133 26.0897 21.4391C26.3047 21.2598 26.3907 20.9257 26.2907 20.6609L23.6127 13.595ZM15.2937 13.6011C15.3987 13.3261 15.3097 13.0103 15.0747 12.8331L10.2917 9.23345H16.2437C16.5277 9.23345 16.7757 9.04908 16.8607 8.7761L18.7597 2.7573L20.6577 8.7761C20.7447 9.0501 20.9937 9.23345 21.2757 9.23345H27.2277L22.4437 12.8331C22.2117 13.0093 22.1217 13.3251 22.2257 13.6011L24.3917 19.3133L19.0997 15.8186L18.9827 15.7646C18.8407 15.7096 18.6847 15.7065 18.5317 15.7666L18.4057 15.8226L13.1257 19.3133L15.2937 13.6011Z" fill="#21A038"/>
<path d="M40.2457 30.5034C40.1537 30.2385 39.9077 30.0603 39.6327 30.0603H35.5507L34.1627 25.6641C34.0747 25.3911 33.8277 25.2078 33.5467 25.2078C33.2627 25.2078 33.0137 25.3911 32.9287 25.6641L31.5417 30.0603H27.4577C27.1817 30.0603 26.9357 30.2385 26.8457 30.5034C26.7557 30.7682 26.8397 31.0636 27.0547 31.2368L30.2947 33.8545L28.5907 38.4595C28.4877 38.7346 28.5727 39.0391 28.8027 39.2184C29.0267 39.3905 29.3507 39.3936 29.5777 39.2276L33.5477 36.2838L37.5617 39.2286C37.6727 39.3101 37.8037 39.3528 37.9417 39.3528C38.0847 39.3528 38.2247 39.304 38.3377 39.2164C38.5657 39.0361 38.6497 38.7295 38.5457 38.4544L36.7987 33.8515L40.0367 31.2368C40.2527 31.0616 40.3367 30.7662 40.2457 30.5034ZM31.6747 33.8678C31.7747 33.5978 31.6927 33.2974 31.4707 33.1191L29.3187 31.3794H32.0147C32.2967 31.3794 32.5447 31.195 32.6307 30.921L33.5467 28.0231L34.4607 30.92C34.5457 31.194 34.7927 31.3783 35.0777 31.3783H37.7727L35.6197 33.1181C35.3977 33.2974 35.3187 33.6009 35.4207 33.8729L36.5507 36.8604L33.9257 34.9332C33.8147 34.8517 33.6837 34.8089 33.5457 34.8089C33.4057 34.8089 33.2747 34.8527 33.1647 34.9352L30.5667 36.8604L31.6747 33.8678Z" fill="#21A038"/>
<path d="M10.5097 25.8058C10.4347 25.5796 10.2247 25.4279 9.98868 25.4279H6.85968L5.79568 22.0574C5.72268 21.8241 5.51169 21.6663 5.27069 21.6663C5.02869 21.6663 4.81669 21.8231 4.74469 22.0564L3.68069 25.4279H0.551692C0.316692 25.4279 0.107696 25.5796 0.0306959 25.8058C-0.0463042 26.0299 0.0246744 26.2815 0.208674 26.4302L2.69168 28.4368L1.38269 31.9713C1.29769 32.2025 1.37269 32.4673 1.56469 32.617C1.74669 32.7586 2.0387 32.7627 2.2247 32.6252L5.27069 30.368L8.31668 32.6252C8.41268 32.6955 8.52468 32.7332 8.64068 32.7332C8.76268 32.7332 8.87867 32.6934 8.97567 32.618C9.16967 32.4673 9.24367 32.2004 9.15667 31.9713L7.85067 28.4368L10.3327 26.4312C10.5157 26.2814 10.5867 26.0299 10.5097 25.8058ZM3.8667 28.449C3.9507 28.2178 3.88068 27.9601 3.69168 27.8093L2.13668 26.5524H4.08468C4.32468 26.5524 4.5347 26.3955 4.6087 26.1623L5.26968 24.0681L5.92968 26.1613C6.00568 26.3955 6.21769 26.5524 6.45669 26.5524H8.4017L6.8457 27.8083C6.6577 27.9611 6.5877 28.2188 6.6727 28.448L7.47268 30.6074L5.5957 29.217C5.5007 29.1457 5.38768 29.109 5.26968 29.109C5.15068 29.109 5.03868 29.1467 4.94567 29.216L3.06668 30.6084L3.8667 28.449Z" fill="#333F48"/>
</svg>
