<svg width="22" height="26" viewBox="0 0 22 26" fill="none" xmlns="http://www.w3.org/2000/svg">
<path d="M9.18175 6.14289H13.7272M6.45443 17.2859H11M6.45443 18.9999H10.0908M15.5454 1.00013V5.71448C15.5454 5.95107 15.749 6.14304 15.9999 6.14304H21M15.5454 1.00013L21 6.14304M15.5454 1.00013L4.18179 1C3.93073 1 3.72726 1.19183 3.72726 1.42868V4.42857V21.9998C3.72726 22.2365 3.93073 22.4285 4.18179 22.4285H20.5453C20.7964 22.4285 21 22.2365 21 21.9998L21 6.14304" stroke="#333F48" stroke-linecap="round" stroke-linejoin="round"/>
<path d="M6.45444 11.286H18.2727M14.6363 13.8573V8.71436M18.2727 13.4287C18.2727 13.6654 18.0691 13.8574 17.818 13.8574H6.9091C6.65803 13.8574 6.45457 13.6654 6.45457 13.4287V9.14304C6.45457 8.90632 6.65803 8.71436 6.9091 8.71436H17.818C18.0691 8.71436 18.2727 8.90632 18.2727 9.14304V13.4287Z" stroke="#333F48" stroke-linecap="round" stroke-linejoin="round"/>
<path d="M18.2727 24.5714C18.2727 24.8081 18.0691 25 17.8181 25H1.45453C1.20346 25 1 24.8081 1 24.5714V7.0001V4.00021C1 3.76337 1.20346 3.57153 1.45453 3.57153" stroke="#333F48" stroke-linecap="round" stroke-linejoin="round"/>
</svg>
