<?xml version="1.0" encoding="utf-8"?>
<!-- Generator: Adobe Illustrator 21.0.0, SVG Export Plug-In . SVG Version: 6.00 Build 0)  -->
<svg version="1.1" id="Слой_1" xmlns="http://www.w3.org/2000/svg" xmlns:xlink="http://www.w3.org/1999/xlink" x="0px" y="0px"
	 viewBox="0 0 95 92.8" style="enable-background:new 0 0 95 92.8;" xml:space="preserve">
<style type="text/css">
	.st0{fill:#FFFFFF;}
	.st1{fill:none;stroke:#FFFFFF;stroke-width:2;stroke-linecap:round;stroke-linejoin:round;stroke-miterlimit:10;}
	.st2{fill:none;stroke:#FFFFFF;stroke-linecap:round;stroke-linejoin:round;stroke-miterlimit:10;stroke-dasharray:0,2.087;}
	.st3{fill:none;stroke:#FFFFFF;stroke-linecap:round;stroke-linejoin:round;stroke-miterlimit:10;stroke-dasharray:0,2.115;}
	.st4{fill:none;stroke:#FFFFFF;stroke-linecap:round;stroke-linejoin:round;stroke-miterlimit:10;}
</style>
<path class="st0" d="M33,41.7h3c3.3,0,4.4,1.9,4.4,4.5c0,2.4-1.4,4.4-5.3,4.4H33V41.7z M35,55.4c7.8,0,12-4.3,12-9.4
	c0-5.8-4.2-9.2-10-9.2H26.8v20.7h-2.6v3.7h2.6v2.1H33v-2.1h7.9v-3.7H33v-2.1H35z"/>
<path class="st1" d="M24.7,18.5c0,0-5.4-7.7-8.9-12.4c7-5.5,11.6,0.1,11.6,0.1s2.9-4.1,6.9-4.1s7,4.1,7,4.1S45.9-0.2,53,5.6
	c-4.5,6.1-8.8,12.9-8.8,12.9 M44.2,18.6c8.6,4.7,17.5,14.4,21,24.8 M50.8,78.7c-4.8,2.6-10.4,4-16.4,4c-17.9,0-32.4-12.6-32.4-30.4
	c0-13.6,11.7-27.9,22.8-33.9"/>
<path class="st2" d="M42.7,19c-1.6,0.3-4.1,0.5-7.3,0.6"/>
<path class="st3" d="M32.3,19.5c-3.5-0.1-6-0.5-7.4-0.8"/>
<path class="st4" d="M23.9,18.5L23.9,18.5 M34.4,19.6L34.4,19.6 M44.7,18.5L44.7,18.5"/>
<path class="st1" d="M71.7,54.1l10.4-10.3l10.4,10.3 M82.1,43.7v37.4 M49.6,63.2l10.4-10.3l10.4,10.3 M59.9,52.8v37.4"/>
</svg>
