<?xml version="1.0" encoding="utf-8"?>
<!-- Generator: Adobe Illustrator 21.0.0, SVG Export Plug-In . SVG Version: 6.00 Build 0)  -->
<svg version="1.1" id="Слой_1" xmlns="http://www.w3.org/2000/svg" xmlns:xlink="http://www.w3.org/1999/xlink" x="0px" y="0px"
	 viewBox="0 0 107.2 87.2" style="enable-background:new 0 0 107.2 87.2;" xml:space="preserve">
<style type="text/css">
	.st0{fill:none;stroke:#FFFFFF;stroke-width:2;stroke-linecap:round;stroke-linejoin:round;stroke-miterlimit:10;}
	.st1{fill:#FFFFFF;}
	.st2{fill:none;stroke:#FFFFFF;stroke-width:2;stroke-linecap:round;stroke-miterlimit:10;}
	.st3{fill:none;stroke:#FFFFFF;stroke-linecap:round;stroke-linejoin:round;stroke-miterlimit:10;stroke-dasharray:0,2.112;}
	.st4{fill:none;stroke:#FFFFFF;stroke-linecap:round;stroke-linejoin:round;stroke-miterlimit:10;stroke-dasharray:0,2.14;}
	.st5{fill:none;stroke:#FFFFFF;stroke-linecap:round;stroke-linejoin:round;stroke-miterlimit:10;}
</style>
<path class="st0" d="M62.4,36c-0.5-0.9-1.1-1.8-1.7-2.7c-3.3-5-9.8-10.6-15.7-14c0,0,4.7-7,9.3-13.1c-7.2-5.8-11.8,0.6-11.8,0.6
	s-3-4.1-7.1-4.1c-4.1,0-7,4.1-7,4.1s-4.6-5.6-11.7-0.1c3.5,4.7,8.9,12.5,8.9,12.5l-0.8,0.4C14,25.8,2.8,39.9,2.8,53.2
	c0,17.9,14.6,30.5,32.6,30.5c6.1,0,10.8-1.2,13.6-2.2"/>
<polygon class="st1" points="53.7,53.5 43.6,53.5 43.6,43.3 37,43.3 37,53.5 26.8,53.5 26.8,60 37,60 37,70.1 43.6,70.1 43.6,60 
	53.7,60 "/>
<path class="st0" d="M61.5,71.8h24.9c3.7,0,6.1-1,9.5-4.1c2.3-2.1,8.9-8.5,8.9-8.5 M61.5,62.1h24.9c3.7,0,6.3-1.5,9.5-4.7
	c2.3-2.2,8.9-9.2,8.9-9.2"/>
<path class="st2" d="M61.5,81.3h24.9c3.3,0,6.3-1.1,9.8-4.3c2.4-2.2,8.6-8.6,8.6-8.6"/>
<path class="st0" d="M63,53h22.4c4.2,0,6-0.9,9.6-4.3c3.1-3,8.2-8.1,9.7-9.7c1.2-1.2,0.7-1.4-1.3-1.4c-5.6,0-21.5,0-24,0
	c-1.2,0-2.6,0.4-4,1.6C73,41,65.8,47.6,63,50.2C61.2,51.8,60.9,53,63,53z"/>
<path class="st3" d="M44.2,19.3c-1.6,0.3-4.1,0.6-7.4,0.6"/>
<path class="st4" d="M33.7,19.9c-3.5-0.1-6.1-0.5-7.4-0.8"/>
<path class="st5" d="M25.2,18.9L25.2,18.9 M35.8,19.9L35.8,19.9 M46.3,18.9L46.3,18.9"/>
</svg>
