<?xml version="1.0" encoding="utf-8"?>
<!-- Generator: Adobe Illustrator 21.0.0, SVG Export Plug-In . SVG Version: 6.00 Build 0)  -->
<svg version="1.1" id="Слой_1" xmlns="http://www.w3.org/2000/svg" xmlns:xlink="http://www.w3.org/1999/xlink" x="0px" y="0px"
	 viewBox="0 0 95 94.5" style="enable-background:new 0 0 95 94.5;" xml:space="preserve">
<style type="text/css">
	.st0{fill:none;stroke:#FFFFFF;stroke-width:2;stroke-linecap:round;stroke-linejoin:round;stroke-miterlimit:10;}
	.st1{fill:none;stroke:#FFFFFF;stroke-linecap:round;stroke-linejoin:round;stroke-miterlimit:10;stroke-dasharray:0,2.127;}
	.st2{fill:none;stroke:#FFFFFF;stroke-linecap:round;stroke-linejoin:round;stroke-miterlimit:10;stroke-dasharray:0,2.155;}
	.st3{fill:none;stroke:#FFFFFF;stroke-linecap:round;stroke-linejoin:round;stroke-miterlimit:10;}
	.st4{fill:#FFFFFF;}
</style>
<path class="st0" d="M25.9,18.7c0,0-5.6-7.9-9.2-12.6c7.3-5.5,12,0.1,12,0.1s3-4.2,7.2-4.2c4.2,0,7.3,4.2,7.3,4.2s4.7-6.5,12.1-0.6
	c-4.7,6.2-9.1,13.1-9.1,13.1 M40.8,83.7c-1.6,0.2-3.2,0.3-4.9,0.3C17.4,84,2.3,71.2,2.3,53.1c0-13.8,12.1-28.4,23.6-34.4 M46.3,18.9
	c3.8,2.1,7.7,5.1,11.2,8.7"/>
<path class="st1" d="M44.6,19.1c-1.6,0.3-4.1,0.6-7.4,0.6"/>
<path class="st2" d="M34,19.7c-3.6-0.1-6.2-0.5-7.5-0.8"/>
<path class="st3" d="M25.4,18.7L25.4,18.7 M36.1,19.8L36.1,19.8 M46.7,18.7L46.7,18.7"/>
<path class="st0" d="M85.6,82.5L68.9,92l-16.7-9.5c-4.4-2.5-7.1-7-7.1-12V37.3c0,0,10.6-3.2,23.8-3.2c13.1,0,23.8,3.2,23.8,3.2v33.2
	C92.7,75.5,90,80,85.6,82.5z"/>
<polygon class="st4" points="80.8,48.3 66.4,62.3 58.1,55.4 53.8,60.2 66.3,70.7 66.7,71.1 66.7,71.1 66.8,71.1 67.5,70.3 
	85.5,52.9 "/>
</svg>
