<?xml version="1.0" encoding="utf-8"?>
<!-- Generator: Adobe Illustrator 21.0.0, SVG Export Plug-In . SVG Version: 6.00 Build 0)  -->
<svg version="1.1" id="Слой_1" xmlns="http://www.w3.org/2000/svg" xmlns:xlink="http://www.w3.org/1999/xlink" x="0px" y="0px"
	 viewBox="0 0 98.2 90" style="enable-background:new 0 0 98.2 90;" xml:space="preserve">
<style type="text/css">
	.st0{fill:none;stroke:#FFFFFF;stroke-linecap:round;stroke-linejoin:round;stroke-miterlimit:10;stroke-dasharray:0,1.963;}
	.st1{fill:none;stroke:#FFFFFF;stroke-linecap:round;stroke-linejoin:round;stroke-miterlimit:10;}
	.st2{fill:none;stroke:#FFFFFF;stroke-width:2;stroke-linecap:round;stroke-linejoin:round;stroke-miterlimit:10;}
	.st3{fill:#FFFFFF;}
	.st4{fill:none;stroke:#FFFFFF;stroke-linecap:round;stroke-linejoin:round;stroke-miterlimit:10;stroke-dasharray:0,1.986;}
</style>
<line class="st0" x1="48.5" y1="27.9" x2="48.5" y2="64.2"/>
<path class="st1" d="M48.5,65.2L48.5,65.2 M48.5,25.9L48.5,25.9"/>
<path class="st2" d="M2,51.9L11,41.2l10.7,8.9 M15.1,27.9C24.7,6.6,49.7-2.8,70.9,6.8c21.2,9.6,30.6,34.7,21,56
	C82.3,84,57.3,93.5,36.1,83.8c-16.6-7.5-26-24.5-24.7-41.7"/>
<path class="st3" d="M50.7,38.6h-4.4c-1,0-1.8-0.8-1.8-1.8v-4.4c0-1,0.8-1.8,1.8-1.8h4.4c1,0,1.8,0.8,1.8,1.8v4.4
	C52.5,37.8,51.7,38.6,50.7,38.6"/>
<line class="st4" x1="60.1" y1="27.7" x2="60.1" y2="64.4"/>
<path class="st1" d="M60.1,65.4L60.1,65.4 M60.1,25.7L60.1,25.7"/>
<path class="st3" d="M62.3,61.5h-4.4c-1,0-1.8-0.8-1.8-1.8v-4.4c0-1,0.8-1.8,1.8-1.8h4.4c1,0,1.8,0.8,1.8,1.8v4.4
	C64.1,60.7,63.3,61.5,62.3,61.5"/>
<line class="st4" x1="72.4" y1="27.7" x2="72.4" y2="64.4"/>
<path class="st1" d="M72.4,65.4L72.4,65.4 M72.4,25.7L72.4,25.7"/>
<path class="st3" d="M74.6,47.1h-4.4c-1,0-1.8-0.8-1.8-1.8v-4.4c0-1,0.8-1.8,1.8-1.8h4.4c1,0,1.8,0.8,1.8,1.8v4.4
	C76.4,46.3,75.6,47.1,74.6,47.1"/>
<line class="st4" x1="36" y1="27.7" x2="36" y2="64.4"/>
<path class="st1" d="M36,65.4L36,65.4 M36,25.7L36,25.7"/>
<path class="st3" d="M38.6,52.3h-4.4c-1,0-1.8-0.8-1.8-1.8V46c0-1,0.8-1.8,1.8-1.8h4.4c1,0,1.8,0.8,1.8,1.8v4.4
	C40.4,51.5,39.6,52.3,38.6,52.3"/>
</svg>
