<?xml version="1.0" encoding="utf-8"?>
<!-- Generator: Adobe Illustrator 21.0.0, SVG Export Plug-In . SVG Version: 6.00 Build 0)  -->
<svg version="1.1" id="Слой_1" xmlns="http://www.w3.org/2000/svg" xmlns:xlink="http://www.w3.org/1999/xlink" x="0px" y="0px"
	 viewBox="0 0 100.2 97.8" style="enable-background:new 0 0 100.2 97.8;" xml:space="preserve">
<style type="text/css">
	.st0{fill:none;stroke:#FFFFFF;stroke-width:2;stroke-linecap:round;stroke-linejoin:round;stroke-miterlimit:10;}
	.st1{fill:none;stroke:#FFFFFF;stroke-linecap:round;stroke-linejoin:round;stroke-miterlimit:10;stroke-dasharray:0,1.859;}
	.st2{fill:none;stroke:#FFFFFF;stroke-linecap:round;stroke-linejoin:round;stroke-miterlimit:10;stroke-dasharray:0,1.883;}
	.st3{fill:none;stroke:#FFFFFF;stroke-linecap:round;stroke-linejoin:round;stroke-miterlimit:10;}
	.st4{fill:#FFFFFF;}
</style>
<path class="st0" d="M48.4,20.1c4,2.2,8.1,5.3,11.7,9 M42.7,86.8c-1.7,0.2-3.4,0.3-5.1,0.3c-19.4,0-35.1-13.2-35.1-31.8
	c0-14.2,12.7-29.2,24.7-35.4 M27.2,19.8c0,0-5.8-8.1-9.6-13c7.6-5.7,12.5,0.1,12.5,0.1s3.1-4.3,7.5-4.3c4.4,0,7.6,4.3,7.6,4.3
	s4.9-6.6,12.7-0.6c-4.9,6.3-9.5,13.5-9.5,13.5"/>
<path class="st1" d="M47.1,20.2c-1.7,0.3-4.5,0.7-8.3,0.7"/>
<path class="st2" d="M35.9,20.9c-4.1-0.1-7-0.6-8.4-0.9"/>
<path class="st3" d="M26.6,19.8L26.6,19.8 M37.8,20.9L37.8,20.9 M48.9,19.8L48.9,19.8"/>
<path class="st0" d="M89.6,85.5l-17.4,9.8l-17.4-9.8c-4.6-2.6-7.4-7.2-7.4-12.3V39c0,0,11.1-3.3,24.8-3.3C85.9,35.7,97,39,97,39
	v34.2C97,78.3,94.1,83,89.6,85.5z"/>
<path class="st4" d="M72.5,78.9c6.3,0,11.5-5,11.5-11.2c0-2.2-0.8-5-1.9-6.8c-0.4,3.8-1.9,5.1-3,4.2c-1.7-1.3-1.6-4.4-2.2-8.9
	c-0.4-3.4-2.2-4.2-0.9-9.3c-8.7,4.2-4.3,12.2-6.1,13.1c-0.9,0.4-3-0.8-3-6.3c-4.8,4.6,0,13.1-2.2,13.9c-1.3,0.4-2.6-1.3-3-3.4
	c-0.4,1.1-0.7,2.4-0.7,3.4C61,73.9,66.1,78.9,72.5,78.9"/>
</svg>
