<?xml version="1.0" encoding="utf-8"?>
<!-- Generator: Adobe Illustrator 21.0.0, SVG Export Plug-In . SVG Version: 6.00 Build 0)  -->
<svg version="1.1" id="Слой_1" xmlns="http://www.w3.org/2000/svg" xmlns:xlink="http://www.w3.org/1999/xlink" x="0px" y="0px"
	 viewBox="0 0 110.3 116.2" style="enable-background:new 0 0 110.3 116.2;" xml:space="preserve">
<style type="text/css">
	.st0{fill:none;stroke:#FFFFFF;stroke-width:2.817;stroke-linecap:round;stroke-linejoin:round;stroke-miterlimit:10;}
	.st1{fill:none;stroke:#FFFFFF;stroke-width:1.408;stroke-linecap:round;stroke-linejoin:round;stroke-miterlimit:10;}
	.st2{fill:none;stroke:#FFFFFF;stroke-width:2.817;stroke-linejoin:round;stroke-miterlimit:10;}
</style>
<path class="st0" d="M54.4,12.7L54.4,12.7c-21.5,0-38.9,17.4-38.9,38.9v51.8c0,5.2,4.2,9.4,9.4,9.4h59c5.2,0,9.4-4.2,9.4-9.4V51.6
	C93.3,30.1,75.9,12.7,54.4,12.7z"/>
<path class="st1" d="M15.6,98.7H11c-5.2,0-9.4-4.2-9.4-9.4V70.6c0-5.2,4.2-9.4,9.4-9.4h4.6c0,0,11.9-8.1,38.7-8.1
	c26.9,0,39.1,8.1,39.1,8.1h5.3c5.2,0,9.4,4.2,9.4,9.4v18.7c0,5.2-4.2,9.4-9.4,9.4h-5.3 M41.9,14.6c0-6.9,5.6-12.4,12.4-12.4
	c6.9,0,12.5,5.6,12.5,12.4"/>
<circle class="st0" cx="54.4" cy="34.6" r="7.1"/>
<path class="st1" d="M59.6,72.7v19c0,2.9-2.4,5.3-5.3,5.3c-2.9,0-5.3-2.4-5.3-5.3v-19"/>
<path class="st2" d="M15.4,62.1c0,0,4.2,23.2,33.4,25.5 M59.6,87.8c30.5-1.7,33.7-25.7,33.7-25.7"/>
<path class="st0" d="M61.3,72.6H47.4c-2.7,0-4.8-2.2-4.8-4.8V54.5c0,0,5.7-0.7,11.7-0.7c6.1,0,11.7,0.7,11.7,0.7v13.3
	C66.1,70.4,63.9,72.6,61.3,72.6z"/>
</svg>
