<?xml version="1.0" encoding="utf-8"?>
<!-- Generator: Adobe Illustrator 21.0.0, SVG Export Plug-In . SVG Version: 6.00 Build 0)  -->
<svg version="1.1" id="Слой_1" xmlns="http://www.w3.org/2000/svg" xmlns:xlink="http://www.w3.org/1999/xlink" x="0px" y="0px"
	 viewBox="0 0 140.5 101.5" style="enable-background:new 0 0 140.5 101.5;" xml:space="preserve">
<style type="text/css">
	.st0{fill:none;stroke:#FFFFFF;stroke-width:2.839;stroke-linecap:round;stroke-linejoin:round;stroke-miterlimit:10;}
	
		.st1{fill:none;stroke:#FFFFFF;stroke-width:1.893;stroke-linecap:round;stroke-linejoin:round;stroke-miterlimit:10;stroke-dasharray:8.600000e-02,4.086;}
	
		.st2{fill:none;stroke:#FFFFFF;stroke-width:1.893;stroke-linecap:round;stroke-linejoin:round;stroke-miterlimit:10;stroke-dasharray:7.000000e-03,4.007;}
	.st3{fill:none;stroke:#FFFFFF;stroke-width:1.893;stroke-linecap:round;stroke-linejoin:round;stroke-miterlimit:10;}
</style>
<path class="st0" d="M10.6,81.9L3.1,98.2H18l-7.5-15.9 M136.9,57V41.8L73.7,3.2L10.5,41.8V57 M10.5,57l26.1,8.3v15.1 M136.9,57
	l-28.6,9.9v12.9 M10.5,57l63.2-38.6L136.9,57 M37.1,80.1V56.4c0-4,13.5-13.7,35.4-13.7c22,0,35.4,9.8,35.4,13.7v23.7 M108.3,80
	c0,5.6-15,10.1-35.8,10.1c-20.8,0-35.8-4.5-35.8-10.1s15-10.1,35.8-10.1C93.3,69.9,108.3,74.4,108.3,80z"/>
<path class="st1" d="M10.5,61.9c-0.6,1.6-1.3,3.7-1.6,6.1"/>
<path class="st2" d="M8.9,74.1c0.2,2.5,0.7,4.6,1.1,5.9"/>
<path class="st3" d="M10.6,81.9C10.6,81.9,10.6,81.9,10.6,81.9 M8.8,70C8.8,70.1,8.8,70.1,8.8,70C8.8,70.1,8.8,70.1,8.8,70
	 M12.4,58.3C12.4,58.3,12.4,58.3,12.4,58.3"/>
</svg>
