<?xml version="1.0" encoding="utf-8"?>
<!-- Generator: Adobe Illustrator 21.0.0, SVG Export Plug-In . SVG Version: 6.00 Build 0)  -->
<svg version="1.1" id="Слой_1" xmlns="http://www.w3.org/2000/svg" xmlns:xlink="http://www.w3.org/1999/xlink" x="0px" y="0px"
	 viewBox="0 0 146 93" style="enable-background:new 0 0 146 93;" xml:space="preserve">
<style type="text/css">
	.st0{fill:none;stroke:#FFFFFF;stroke-width:3.171;stroke-linecap:round;stroke-linejoin:round;stroke-miterlimit:10;}
	.st1{fill:none;stroke:#FFFFFF;stroke-width:2;stroke-linecap:round;stroke-linejoin:round;stroke-miterlimit:10;}
</style>
<path class="st0" d="M124.7,40.3c0,0-5.5-4.2-5.9-7.4c-0.2-1.4-1.5-6.6-2.9-12c-2.3-9-9.8-15.7-19-16.9C90.4,3.1,82,2.4,72.2,2.4
	c-9.8,0-18.1,0.7-24.6,1.6c-9.2,1.2-16.8,7.9-19,16.9c-1.4,5.4-2.6,10.6-2.9,12c-0.5,3.2-6,7.8-6,7.8 M125.2,78.7H19.8
	c-5.8,0-10.6-4.7-10.6-10.6v-9.2C9.3,48.5,16.8,39.7,27,38c10.5-1.7,25.7-3.4,45.5-3.4s35,1.6,45.5,3.4
	c10.2,1.7,17.8,10.5,17.8,20.9v9.2C135.8,73.9,131.1,78.7,125.2,78.7z"/>
<path class="st1" d="M101.1,78.7v8.1c0,2.3,1.9,4.2,4.2,4.2h7.7c2.3,0,4.2-1.9,4.2-4.2v-8.1 M25.4,78.7v8.1c0,2.3,1.9,4.2,4.2,4.2
	h7.7c2.3,0,4.2-1.9,4.2-4.2v-8.1 M117.6,57.7c0,4.7-3.8,8.5-8.5,8.5c-4.7,0-8.5-3.8-8.5-8.5c0-4.7,3.8-8.5,8.5-8.5
	C113.8,49.3,117.6,53.1,117.6,57.7z M42.3,57.7c0,4.7-3.8,8.5-8.5,8.5c-4.7,0-8.5-3.8-8.5-8.5c0-4.7,3.8-8.5,8.5-8.5
	C38.5,49.3,42.3,53.1,42.3,57.7z M24.1,38.8H7.7c-2.9,0-5.3-2.4-5.3-5.3V33c0-2.9,2.4-5.3,5.3-5.3h4.6c2.9,0,5.3,2.4,5.3,5.3v5.8
	 M122.2,38.8h16.5c2.9,0,5.3-2.4,5.3-5.3V33c0-2.9-2.4-5.3-5.3-5.3H134c-2.9,0-5.3,2.4-5.3,5.3v5.8 M58.8,60.9H82 M51.5,54h37.7"/>
</svg>
