<?xml version="1.0" encoding="utf-8"?>
<!-- Generator: Adobe Illustrator 21.0.0, SVG Export Plug-In . SVG Version: 6.00 Build 0)  -->
<svg version="1.1" id="Слой_1" xmlns="http://www.w3.org/2000/svg" xmlns:xlink="http://www.w3.org/1999/xlink" x="0px" y="0px"
	 viewBox="0 0 131.8 99.9" style="enable-background:new 0 0 131.8 99.9;" xml:space="preserve">
<style type="text/css">
	.st0{fill:none;stroke:#FFFFFF;stroke-width:2.542;stroke-linecap:round;stroke-miterlimit:10;}
</style>
<path class="st0" d="M48.7,81.8c-1.7,0.3-3.3,0.4-5.1,0.5C21.6,83,3.2,65.6,2.5,43.6C1.9,21.5,19.2,3.1,41.2,2.5
	c22-0.7,40.5,16.7,41.1,38.7c0.4,12.2-4.8,23.4-13.2,30.9 M45.5,73.2c-0.7,0.1-1.4,0.1-2.1,0.1c-17.1,0.5-31.4-12.9-31.9-30
	c-0.5-17.1,12.9-31.4,30-31.9s31.4,12.9,31.9,30c0.3,8.5-2.9,16.3-8.3,22.1 M81.7,18.6c2.1-0.4,4.2-0.6,6.4-0.7
	c22-0.7,40.5,16.7,41.1,38.7c0.7,22-16.7,40.5-38.7,41.1c-22,0.7-40.5-16.7-41.1-38.7C49,46.3,54.6,34.8,63.7,27.2 M85,27.1
	c1.1-0.2,2.2-0.2,3.3-0.3c17.1-0.5,31.4,12.9,31.9,30c0.5,17.1-12.9,31.4-30,31.9c-17.1,0.5-31.4-12.9-31.9-30
	c-0.3-9.2,3.5-17.5,9.6-23.4"/>
</svg>
