<?xml version="1.0" encoding="utf-8"?>
<!-- Generator: Adobe Illustrator 21.0.0, SVG Export Plug-In . SVG Version: 6.00 Build 0)  -->
<svg version="1.1" id="Слой_1" xmlns="http://www.w3.org/2000/svg" xmlns:xlink="http://www.w3.org/1999/xlink" x="0px" y="0px"
	 viewBox="0 0 130.8 107.9" style="enable-background:new 0 0 130.8 107.9;" xml:space="preserve">
<style type="text/css">
	.st0{fill:none;stroke:#FFFFFF;stroke-width:2.545;stroke-linecap:round;stroke-linejoin:round;stroke-miterlimit:10;}
	.st1{fill:none;stroke:#FFFFFF;stroke-width:1.697;stroke-linecap:round;stroke-linejoin:round;stroke-miterlimit:10;}
</style>
<path class="st0" d="M101.6,46.1l5.2-6.4L65.4,2.5L23.9,39.8l5.9,6.2 M32.2,63H12.9v38.8h19.3 M117.9,63.8v38H98.6 M97.9,44.6v60.9
	H32.8V44.6"/>
<path class="st1" d="M41.8,104.6v-5.3h47.1v5.3 M46.4,98.4v-5.3h37.9v5.3 M50.7,92.3V87H80v5.3 M56.7,87V61.4h17.4V87 M74.1,48.2
	H56.7V32.8h17.4V48.2z M29.8,46l35.3-31.6l35.8,32.2"/>
<path class="st0" d="M96.2,30.2h13.8l17.7,23.5V63H97.9 M38.9,25.5V11.1h8.5v7"/>
<line class="st1" x1="97.9" y1="54.6" x2="127.8" y2="54.6"/>
<polyline class="st0" points="34.4,30.2 20.6,30.2 2.9,53.8 2.9,63 32.7,63 "/>
<line class="st1" x1="32.7" y1="54.6" x2="2.9" y2="54.6"/>
</svg>
