<?xml version="1.0" encoding="utf-8"?>
<!-- Generator: Adobe Illustrator 21.0.0, SVG Export Plug-In . SVG Version: 6.00 Build 0)  -->
<svg version="1.1" id="Слой_1" xmlns="http://www.w3.org/2000/svg" xmlns:xlink="http://www.w3.org/1999/xlink" x="0px" y="0px"
	 viewBox="0 0 125 110.4" style="enable-background:new 0 0 125 110.4;" xml:space="preserve">
<style type="text/css">
	.st0{fill:none;stroke:#FFFFFF;stroke-width:3;stroke-linejoin:round;stroke-miterlimit:10;}
	.st1{fill:none;stroke:#FFFFFF;stroke-width:1.5;stroke-linecap:round;stroke-linejoin:round;stroke-miterlimit:10;}
</style>
<path class="st0" d="M10.6,50.2v34.8c0,1.7,1,3.2,2.6,3.8l46.1,18.1c1.6,0.6,3.5,0.6,5.1-0.1l47.4-19.9c1.5-0.6,2.5-2.1,2.5-3.7
	V46.4"/>
<path class="st1" d="M65.3,32.7L84.6,41c1.5,0.6,2.4,2.1,2.4,3.7V97 M59.9,33.3l-19.3,8.3c-1.5,0.6-2.4,2.1-2.4,3.7v53.7
	 M101.7,91.3V42.7c0-1.6-1-3.1-2.5-3.7l-2.4-1 M23.6,92.7v-50c0-1.6,1-3.1,2.5-3.7l2.4-1"/>
<ellipse class="st0" cx="62.6" cy="25.9" rx="12.5" ry="7.4"/>
<path class="st1" d="M73.1,31.3c0,0,10.3,7.2,22.8,6.7c12.5-0.5,23.7-7.1,19.6-20.4C111.7,5.2,99.6,9.9,94.3,14
	c-9.5,7.3-18.6,10.4-19.4,10.7c0,0,3.5,4.6,14,1.6 M70.2,20.7c0,0,9.9-6,18.8-14.7c7.6-7.5,18-2.6,19.3,3.9 M52.1,31.3
	c0,0-10.3,7.2-22.8,6.7C16.8,37.5,5.6,30.9,9.7,17.6C13.5,5.2,25.5,9.9,30.9,14c9.5,7.3,18.6,10.4,19.4,10.7c0,0-3.5,4.6-14,1.6
	 M53.9,20.7c0,0-9.9-6-18.8-14.7c-7.6-7.5-18-2.6-19.3,3.9"/>
<path class="st0" d="M38.3,59.1l21.5,8.4c1.7,0.7,3.5,0.6,5.2-0.1l22.1-9.5 M101.7,51.6l18.6-8c1-0.4,1.6-1.4,1.6-2.5v-11
	c0-1.1-0.6-2.1-1.6-2.5l-3.9-1.7 M82.6,11.6L66.5,4.7c-2-0.9-4.3-0.9-6.3,0l-18,7.5 M9.1,25.9l-4.1,1.7c-1,0.4-1.7,1.4-1.7,2.5v15.5
	c0,1.1,0.7,2.2,1.8,2.5l18.4,6.6"/>
</svg>
