<?xml version="1.0" encoding="utf-8"?>
<!-- Generator: Adobe Illustrator 21.0.0, SVG Export Plug-In . SVG Version: 6.00 Build 0)  -->
<svg version="1.1" id="Слой_1" xmlns="http://www.w3.org/2000/svg" xmlns:xlink="http://www.w3.org/1999/xlink" x="0px" y="0px"
	 viewBox="0 0 165.8 147.5" style="enable-background:new 0 0 165.8 147.5;" xml:space="preserve">
<style type="text/css">
	.st0{fill:none;stroke:#FFFFFF;stroke-width:3.5;stroke-linecap:round;stroke-linejoin:round;stroke-miterlimit:10;}
	.st1{fill:none;stroke:#FFFFFF;stroke-width:2;stroke-linecap:round;stroke-linejoin:round;stroke-miterlimit:10;}
	.st2{fill:#FFFFFF;}
</style>
<path class="st0" d="M105.4,105.4h30.2c5.7,0,8.1-1.1,12.9-5.7c4.2-3.9,11.1-10.7,13.1-12.7c1.6-1.6,1-1.9-1.7-1.9
	c-7.5,0-29,0-32.3,0c-1.6,0-3.5,0.6-5.4,2.1c-3.1,2.5-12.8,11.2-16.7,14.6C103,103.9,102.5,105.4,105.4,105.4z M103.4,144.4h33.5
	c4.4,0,8.5-1.4,13.2-5.6c3.2-2.9,11.6-11.2,11.6-11.2 M103.4,131.4h33.5c5,0,8.3-1.4,12.8-5.5c3.1-2.8,12-11.3,12-11.3 M103.4,118.4
	h33.5c5,0,8.5-2.1,12.8-6.2c3.1-2.9,12-12.2,12-12.2 M85.6,144.4H9.9c-3.3,0-5.9-2.6-5.9-5.9V23.2c0-3.3,2.6-5.9,5.9-5.9
	 M112.6,17.3c3.3,0,5.9,2.6,5.9,5.9v50.2"/>
<path class="st1" d="M97,13.5V9c0-2.8,2.2-5,5-5c2.8,0,5,2.2,5,5v4.5 M107,19.8v11c0,2.8-2.2,5-5,5c-2.8,0-5-2.2-5-5v-11 M76.8,13.5
	V9c0-2.8,2.2-5,5-5c2.8,0,5,2.2,5,5v4.5 M86.8,19.8v11c0,2.8-2.2,5-5,5c-2.8,0-5-2.2-5-5v-11 M56.6,13.5V9c0-2.8,2.2-5,5-5
	c2.8,0,5,2.2,5,5v4.5 M66.6,19.8v11c0,2.8-2.2,5-5,5c-2.8,0-5-2.2-5-5v-11 M36.3,13.5V9c0-2.8,2.2-5,5-5c2.8,0,5,2.2,5,5v4.5
	 M46.4,19.8v11c0,2.8-2.2,5-5,5c-2.8,0-5-2.2-5-5v-11 M16.1,13.5V9c0-2.8,2.2-5,5-5c2.8,0,5,2.2,5,5v4.5 M26.2,19.8v11
	c0,2.8-2.2,5-5,5c-2.8,0-5-2.2-5-5v-11 M3.2,50.4h114.6"/>
<path class="st2" d="M20.2,71.4c-0.2,0-0.4,0-0.6-0.1c-0.2-0.1-0.3-0.2-0.5-0.3c-0.1-0.1-0.2-0.3-0.3-0.5c-0.1-0.2-0.1-0.4-0.1-0.6
	c0-0.1,0-0.2,0-0.3c0-0.1,0.1-0.2,0.1-0.3c0-0.1,0.1-0.2,0.1-0.3c0.1-0.1,0.1-0.2,0.2-0.2c0.4-0.3,0.9-0.5,1.4-0.4
	c0.1,0,0.2,0,0.3,0.1s0.2,0.1,0.3,0.1c0.1,0.1,0.2,0.1,0.2,0.2c0.3,0.3,0.4,0.7,0.4,1.1c0,0.2,0,0.4-0.1,0.6
	c-0.1,0.2-0.2,0.4-0.3,0.5C21,71.2,20.6,71.4,20.2,71.4"/>
<path class="st2" d="M30.6,69.9c0-0.8,0.7-1.5,1.5-1.5c0.8,0,1.5,0.7,1.5,1.5c0,0.8-0.7,1.5-1.5,1.5C31.3,71.4,30.6,70.7,30.6,69.9
	 M24.7,69.9c0-0.8,0.7-1.5,1.5-1.5c0.8,0,1.5,0.7,1.5,1.5c0,0.8-0.7,1.5-1.5,1.5C25.3,71.4,24.7,70.7,24.7,69.9"/>
<path class="st2" d="M38.1,71.4c-0.2,0-0.4,0-0.6-0.1c-0.2-0.1-0.3-0.2-0.5-0.3s-0.2-0.3-0.3-0.5c-0.1-0.2-0.1-0.4-0.1-0.6
	c0-0.4,0.2-0.8,0.4-1.1c0.6-0.6,1.6-0.6,2.1,0c0.3,0.3,0.4,0.7,0.4,1.1c0,0.2,0,0.4-0.1,0.6c-0.1,0.2-0.2,0.4-0.3,0.5
	s-0.3,0.2-0.5,0.3C38.5,71.3,38.3,71.4,38.1,71.4"/>
<path class="st2" d="M20.2,95.2c-0.4,0-0.8-0.1-1.1-0.4c-0.1-0.1-0.2-0.3-0.3-0.5c-0.1-0.2-0.1-0.4-0.1-0.6c0-0.1,0-0.2,0-0.3
	c0-0.1,0.1-0.2,0.1-0.3c0-0.1,0.1-0.2,0.1-0.3c0.1-0.1,0.1-0.2,0.2-0.2c0.1-0.1,0.1-0.1,0.2-0.2c0.1-0.1,0.2-0.1,0.3-0.1
	c0.1,0,0.2-0.1,0.3-0.1c0.2,0,0.4,0,0.6,0c0.1,0,0.2,0.1,0.3,0.1s0.2,0.1,0.3,0.1c0.1,0,0.2,0.1,0.2,0.2c0.1,0.1,0.1,0.2,0.2,0.2
	c0,0.1,0.1,0.2,0.1,0.3c0,0.1,0.1,0.2,0.1,0.3c0,0.1,0,0.2,0,0.3c0,0.2,0,0.4-0.1,0.6c-0.1,0.2-0.2,0.3-0.3,0.5
	c-0.1,0.2-0.3,0.2-0.5,0.3S20.4,95.2,20.2,95.2"/>
<path class="st2" d="M30.6,93.7c0-0.8,0.7-1.5,1.5-1.5c0.8,0,1.5,0.7,1.5,1.5s-0.7,1.5-1.5,1.5C31.3,95.2,30.6,94.6,30.6,93.7
	 M24.7,93.7c0-0.8,0.7-1.5,1.5-1.5c0.8,0,1.5,0.7,1.5,1.5s-0.7,1.5-1.5,1.5C25.3,95.2,24.7,94.6,24.7,93.7"/>
<path class="st2" d="M38.1,95.2c-0.4,0-0.8-0.1-1.1-0.4c-0.1-0.1-0.2-0.3-0.3-0.5c-0.1-0.2-0.1-0.4-0.1-0.6c0-0.1,0-0.2,0-0.3
	c0-0.1,0-0.2,0.1-0.3c0-0.1,0.1-0.2,0.1-0.3c0.1-0.1,0.1-0.2,0.2-0.2c0.1-0.1,0.1-0.1,0.2-0.2c0.1-0.1,0.2-0.1,0.2-0.1
	c0.1,0,0.2-0.1,0.3-0.1c0.2,0,0.4,0,0.6,0c0.1,0,0.2,0.1,0.3,0.1s0.2,0.1,0.3,0.1c0.1,0,0.2,0.1,0.2,0.2c0.1,0.1,0.1,0.2,0.2,0.2
	c0,0.1,0.1,0.2,0.1,0.3c0,0.1,0.1,0.2,0.1,0.3c0,0.1,0,0.2,0,0.3c0,0.2,0,0.4-0.1,0.6c-0.1,0.2-0.2,0.3-0.3,0.5
	C38.9,95.1,38.5,95.2,38.1,95.2"/>
<path class="st2" d="M20.2,119.1c-0.2,0-0.4,0-0.6-0.1c-0.2-0.1-0.3-0.2-0.5-0.3c-0.3-0.3-0.4-0.7-0.4-1.1c0-0.4,0.2-0.8,0.4-1.1
	c0.1-0.1,0.1-0.1,0.2-0.2c0.1-0.1,0.2-0.1,0.3-0.1c0.1,0,0.2-0.1,0.3-0.1c0.5-0.1,1,0.1,1.4,0.4c0.1,0.1,0.1,0.1,0.2,0.2
	c0,0.1,0.1,0.2,0.1,0.2c0,0.1,0.1,0.2,0.1,0.3c0,0.1,0,0.2,0,0.3c0,0.4-0.2,0.8-0.4,1.1c-0.1,0.1-0.3,0.2-0.5,0.3
	C20.6,119.1,20.4,119.1,20.2,119.1"/>
<path class="st2" d="M30.6,117.6c0-0.8,0.7-1.5,1.5-1.5c0.8,0,1.5,0.7,1.5,1.5s-0.7,1.5-1.5,1.5C31.3,119.1,30.6,118.4,30.6,117.6
	 M24.7,117.6c0-0.8,0.7-1.5,1.5-1.5c0.8,0,1.5,0.7,1.5,1.5s-0.7,1.5-1.5,1.5C25.3,119.1,24.7,118.4,24.7,117.6"/>
<path class="st2" d="M38.1,119.1c-0.2,0-0.4,0-0.6-0.1c-0.2-0.1-0.3-0.2-0.5-0.3s-0.2-0.3-0.3-0.5c-0.1-0.2-0.1-0.4-0.1-0.6
	c0-0.4,0.2-0.8,0.4-1.1c0.1-0.1,0.1-0.1,0.2-0.2c0.1-0.1,0.2-0.1,0.3-0.1c0.1,0,0.2-0.1,0.3-0.1c0.2,0,0.4,0,0.6,0
	c0.1,0,0.2,0.1,0.3,0.1c0.1,0,0.2,0.1,0.3,0.1c0.1,0.1,0.2,0.1,0.2,0.2c0.3,0.3,0.4,0.7,0.4,1.1c0,0.2,0,0.4-0.1,0.6
	c-0.1,0.2-0.2,0.4-0.3,0.5s-0.3,0.2-0.5,0.3C38.5,119.1,38.3,119.1,38.1,119.1"/>
<path class="st2" d="M53.2,71.4c-0.2,0-0.4,0-0.6-0.1c-0.2-0.1-0.3-0.2-0.5-0.3s-0.2-0.3-0.3-0.5c-0.1-0.2-0.1-0.4-0.1-0.6
	c0-0.1,0-0.2,0-0.3c0-0.1,0-0.2,0.1-0.3c0-0.1,0.1-0.2,0.1-0.3c0.1-0.1,0.1-0.2,0.2-0.2c0.3-0.3,0.9-0.5,1.3-0.4
	c0.1,0,0.2,0,0.3,0.1s0.2,0.1,0.3,0.1c0.1,0.1,0.2,0.1,0.2,0.2c0.3,0.3,0.4,0.7,0.4,1.1c0,0.2,0,0.4-0.1,0.6
	c-0.1,0.2-0.2,0.4-0.3,0.5C54,71.2,53.6,71.4,53.2,71.4"/>
<path class="st2" d="M63.6,69.9c0-0.8,0.7-1.5,1.5-1.5s1.5,0.7,1.5,1.5c0,0.8-0.7,1.5-1.5,1.5S63.6,70.7,63.6,69.9 M57.7,69.9
	c0-0.8,0.7-1.5,1.5-1.5c0.8,0,1.5,0.7,1.5,1.5c0,0.8-0.7,1.5-1.5,1.5C58.3,71.4,57.7,70.7,57.7,69.9"/>
<path class="st2" d="M71.1,71.4c-0.2,0-0.4,0-0.6-0.1c-0.2-0.1-0.3-0.2-0.5-0.3s-0.2-0.3-0.3-0.5c-0.1-0.2-0.1-0.4-0.1-0.6
	c0-0.4,0.2-0.8,0.4-1.1c0.6-0.6,1.6-0.6,2.1,0c0.3,0.3,0.4,0.7,0.4,1.1c0,0.2,0,0.4-0.1,0.6c-0.1,0.2-0.2,0.4-0.3,0.5
	s-0.3,0.2-0.5,0.3C71.5,71.3,71.3,71.4,71.1,71.4"/>
<path class="st2" d="M86.2,71.4c-0.2,0-0.4,0-0.6-0.1c-0.2-0.1-0.3-0.2-0.5-0.3c-0.1-0.1-0.2-0.3-0.3-0.5c-0.1-0.2-0.1-0.4-0.1-0.6
	c0-0.4,0.1-0.8,0.4-1.1c0.1-0.1,0.2-0.1,0.2-0.2c0.1,0,0.2-0.1,0.3-0.1c0.1,0,0.2-0.1,0.3-0.1c0.2,0,0.4,0,0.6,0
	c0.1,0,0.2,0,0.3,0.1c0.1,0,0.2,0.1,0.3,0.1c0.1,0.1,0.2,0.1,0.2,0.2c0.3,0.3,0.5,0.7,0.5,1.1c0,0.2,0,0.4-0.1,0.6
	c-0.1,0.2-0.2,0.4-0.3,0.5C87,71.2,86.6,71.4,86.2,71.4"/>
<path class="st2" d="M96.6,69.9c0-0.8,0.7-1.5,1.5-1.5c0.8,0,1.5,0.7,1.5,1.5c0,0.8-0.7,1.5-1.5,1.5C97.3,71.4,96.6,70.7,96.6,69.9
	 M90.7,69.9c0-0.8,0.7-1.5,1.5-1.5c0.8,0,1.5,0.7,1.5,1.5c0,0.8-0.7,1.5-1.5,1.5C91.3,71.4,90.7,70.7,90.7,69.9"/>
<path class="st2" d="M104.1,71.4c-0.2,0-0.4,0-0.6-0.1c-0.2-0.1-0.3-0.2-0.5-0.3c-0.1-0.1-0.2-0.3-0.3-0.5c-0.1-0.2-0.1-0.4-0.1-0.6
	c0-0.4,0.2-0.8,0.4-1.1c0.6-0.6,1.6-0.6,2.1,0c0.3,0.3,0.4,0.7,0.4,1.1c0,0.2,0,0.4-0.1,0.6c-0.1,0.2-0.2,0.4-0.3,0.5
	c-0.2,0.1-0.3,0.2-0.5,0.3C104.5,71.3,104.3,71.4,104.1,71.4"/>
<polygon class="st2" points="90.6,106.1 90.6,105.7 90.2,105.7 73.9,89.4 68.3,95.1 78.9,105.7 53.6,105.7 53.6,114.7 79.5,114.7 
	67.6,126.6 73.2,132.3 95,110.5 "/>
</svg>
