<?xml version="1.0" encoding="utf-8"?>
<!-- Generator: Adobe Illustrator 21.0.0, SVG Export Plug-In . SVG Version: 6.00 Build 0)  -->
<svg version="1.1" id="Слой_1" xmlns="http://www.w3.org/2000/svg" xmlns:xlink="http://www.w3.org/1999/xlink" x="0px" y="0px"
	 viewBox="0 0 165.8 147.5" style="enable-background:new 0 0 165.8 147.5;" xml:space="preserve">
<style type="text/css">
	.st0{fill:none;stroke:#FFFFFF;stroke-width:3.5;stroke-linecap:round;stroke-linejoin:round;stroke-miterlimit:10;}
	.st1{fill:#FFFFFF;}
	.st2{fill:none;}
</style>
<path class="st0" d="M73.7,29.8c6,3.3,12.2,8,17.6,13.7 M65.1,131.4c-2.5,0.3-5.1,0.5-7.7,0.5c-29.2,0-52.9-20.1-52.9-48.4
	c0-21.7,19.1-44.5,37.2-54 M41.7,29.4c0,0-8.8-12.3-14.5-19.8c11.5-8.7,18.9,0.2,18.9,0.2s4.7-6.6,11.3-6.6s11.5,6.6,11.5,6.6
	s7.4-10.1,19.1-0.9c-7.4,9.7-14.3,20.6-14.3,20.6"/>
<path class="st1" d="M67.3,31c-0.1-0.8,0.4-1.6,1.2-1.7l0,0c0.8-0.1,1.6,0.4,1.7,1.2c0.1,0.8-0.4,1.6-1.2,1.7c-0.1,0-0.2,0-0.2,0
	C68.1,32.3,67.5,31.8,67.3,31 M61.7,31.6c-0.1-0.8,0.5-1.5,1.4-1.6c0.8-0.1,1.5,0.5,1.6,1.4c0.1,0.8-0.6,1.5-1.4,1.6h-0.1
	C62.5,33,61.8,32.4,61.7,31.6"/>
<path class="st1" d="M56.1,32c-0.1-0.8,0.5-1.5,1.4-1.6c0.8-0.1,1.5,0.5,1.6,1.4c0.1,0.8-0.6,1.5-1.4,1.6h-0.1
	C56.8,33.4,56.1,32.8,56.1,32"/>
<path class="st1" d="M46,32.3c-0.8-0.1-1.4-0.9-1.2-1.7c0.1-0.8,0.9-1.4,1.7-1.2c0.8,0.1,1.4,0.9,1.2,1.7c-0.1,0.7-0.8,1.2-1.5,1.2
	C46.2,32.3,46.1,32.3,46,32.3 M51.8,33c-0.8-0.1-1.5-0.8-1.4-1.6c0.1-0.8,0.8-1.4,1.6-1.4c0.8,0.1,1.4,0.8,1.4,1.6
	c-0.1,0.8-0.7,1.4-1.5,1.4C51.9,33,51.8,33,51.8,33"/>
<path class="st0" d="M134.9,129.4l-26.3,14.9l-26.3-14.9c-6.9-3.9-11.1-11.1-11.1-18.8V59c0-0.4,0.3-0.8,0.7-1
	c3.4-1,18.6-4.8,36.8-4.8c18.2,0,33.3,3.9,36.8,4.8c0.4,0.1,0.7,0.5,0.7,1v51.5C146.1,118.3,141.8,125.4,134.9,129.4z"/>
<rect x="2.7" y="1.5" class="st2" width="145.1" height="144.5"/>
<polygon class="st1" points="127.1,75.8 104.6,97.6 91.8,86.8 85.1,94.3 104.6,110.7 105.1,111.2 105.1,111.1 105.2,111.2 
	106.4,109.9 134.4,82.9 "/>
<path class="st1" d="M19.5,81.6c-0.8,0-1.5-0.7-1.4-1.6c0-0.8,0.8-1.5,1.6-1.4c0.8,0,1.5,0.7,1.4,1.6C21.1,81,20.4,81.6,19.5,81.6
	L19.5,81.6z M18.7,86c-0.2-0.8,0.4-1.6,1.2-1.8c0.8-0.1,1.6,0.4,1.8,1.2c0.2,0.8-0.4,1.6-1.2,1.8c-0.1,0-0.2,0-0.3,0
	C19.5,87.2,18.8,86.7,18.7,86 M20.2,91.7L20.2,91.7c-0.3-0.8,0.1-1.6,0.9-1.9c0.8-0.3,1.6,0.1,1.9,0.9v0c0.3,0.8-0.1,1.6-0.9,1.9
	c-0.2,0.1-0.3,0.1-0.5,0.1C21,92.7,20.5,92.3,20.2,91.7 M22.7,97c-0.4-0.7-0.1-1.6,0.6-2c0.7-0.4,1.6-0.2,2,0.6
	c0.4,0.7,0.2,1.6-0.6,2c-0.2,0.1-0.5,0.2-0.7,0.2C23.5,97.8,23,97.5,22.7,97 M26,101.9c-0.5-0.6-0.4-1.6,0.2-2.1
	c0.6-0.5,1.6-0.4,2.1,0.2c0.5,0.6,0.4,1.6-0.2,2.1c-0.3,0.2-0.6,0.3-1,0.3C26.7,102.4,26.3,102.2,26,101.9 M30.1,106.1
	c-0.6-0.5-0.7-1.5-0.1-2.1c0.5-0.6,1.5-0.7,2.1-0.1c0.6,0.5,0.7,1.5,0.1,2.1c-0.3,0.3-0.7,0.5-1.1,0.5
	C30.7,106.5,30.4,106.3,30.1,106.1 M34.8,109.6L34.8,109.6c-0.7-0.4-0.9-1.4-0.5-2.1c0.4-0.7,1.4-0.9,2.1-0.5
	c0.7,0.4,0.9,1.4,0.5,2.1c-0.3,0.4-0.8,0.7-1.3,0.7C35.3,109.8,35,109.7,34.8,109.6 M39.9,112.3c-0.8-0.3-1.1-1.2-0.8-2
	c0.3-0.8,1.2-1.1,2-0.8c0.8,0.3,1.1,1.2,0.8,2c-0.2,0.6-0.8,0.9-1.4,0.9C40.3,112.4,40.1,112.4,39.9,112.3 M45.4,114.3L45.4,114.3
	c-0.8-0.2-1.2-1.1-1-1.9c0.2-0.8,1.1-1.2,1.9-1c0.8,0.2,1.2,1.1,1,1.9c-0.2,0.6-0.8,1.1-1.4,1.1C45.7,114.4,45.5,114.4,45.4,114.3
	 M51,115.8c-0.8-0.2-1.4-0.9-1.2-1.8c0.2-0.8,0.9-1.3,1.8-1.2c0.8,0.2,1.3,0.9,1.2,1.8c-0.1,0.7-0.8,1.2-1.5,1.2
	C51.2,115.8,51.1,115.8,51,115.8"/>
</svg>
