<?xml version="1.0" encoding="utf-8"?>
<!-- Generator: Adobe Illustrator 21.0.0, SVG Export Plug-In . SVG Version: 6.00 Build 0)  -->
<svg version="1.1" id="Слой_1" xmlns="http://www.w3.org/2000/svg" xmlns:xlink="http://www.w3.org/1999/xlink" x="0px" y="0px"
	 viewBox="0 0 198.7 147.5" style="enable-background:new 0 0 198.7 147.5;" xml:space="preserve">
<style type="text/css">
	.st0{fill:none;stroke:#FFFFFF;stroke-width:3.5;stroke-linecap:round;stroke-linejoin:round;stroke-miterlimit:10;}
	.st1{fill:none;stroke:#FFFFFF;stroke-width:2;stroke-linecap:round;stroke-linejoin:round;stroke-miterlimit:10;}
	.st2{fill:#FFFFFF;}
</style>
<ellipse class="st0" cx="98.5" cy="23.2" rx="9.5" ry="9.5"/>
<path class="st0" d="M154.7,100.5c17.9,0,32.6-14,33.8-31.7c0.1-1.2-0.9-2.2-2-2.2H123c-1.2,0-2.1,1-2,2.2
	C122.1,86.5,136.8,100.5,154.7,100.5z"/>
<line class="st0" x1="62.8" y1="144.3" x2="134" y2="144.3"/>
<line class="st0" x1="70.5" y1="134.6" x2="126.1" y2="134.6"/>
<line class="st1" x1="109.2" y1="23.2" x2="168.9" y2="23.2"/>
<path class="st0" d="M43.4,100.5c-17.9,0-32.6-14-33.8-31.7c-0.1-1.2,0.9-2.2,2-2.2h63.4c1.2,0,2.1,1,2,2.2
	C76,86.5,61.3,100.5,43.4,100.5z M160.4,24.7c0,3-2.5,5.5-5.5,5.5s-5.5-2.5-5.5-5.5"/>
<path class="st1" d="M172.1,64.7l-15.4-34.5 M152.8,30.5l-15.2,34.2 M60.6,64.7L45.2,30.2 M41.4,30.5L26.2,64.7 M89,23.2H29.2"/>
<path class="st0" d="M37.8,24.7c0,3.1,2.5,5.5,5.6,5.5c3.1,0,5.6-2.5,5.6-5.5"/>
<path class="st1" d="M82.4,134.6L94.9,32.9 M114.5,134.6L102,32.9"/>
<path class="st2" d="M1.8,89.2c-0.4-0.7-0.1-1.6,0.6-2c0.7-0.4,1.6-0.1,2,0.6c0.4,0.7,0.1,1.6-0.6,2C3.6,90,3.4,90,3.2,90
	C2.6,90,2.1,89.8,1.8,89.2 M4.9,94.2c-0.5-0.7-0.3-1.6,0.4-2.1c0.7-0.5,1.6-0.3,2.1,0.4c0.5,0.7,0.3,1.6-0.4,2.1
	c-0.3,0.2-0.6,0.3-0.9,0.3C5.7,94.8,5.2,94.6,4.9,94.2 M8.6,98.7L8.6,98.7C8,98.1,8,97.2,8.7,96.6c0.6-0.6,1.6-0.5,2.1,0.1
	c0.5,0.6,0.5,1.6-0.1,2.1c-0.3,0.3-0.6,0.4-1,0.4C9.3,99.2,8.8,99,8.6,98.7 M12.7,102.8c-0.6-0.5-0.7-1.5-0.2-2.1
	c0.5-0.6,1.5-0.7,2.1-0.2c0.6,0.5,0.7,1.5,0.2,2.1c-0.3,0.3-0.7,0.5-1.1,0.5C13.4,103.1,13,103,12.7,102.8 M17.4,106.3L17.4,106.3
	c-0.7-0.5-0.9-1.4-0.4-2.1c0.5-0.7,1.4-0.9,2.1-0.4c0.7,0.5,0.9,1.4,0.4,2.1c-0.3,0.4-0.8,0.7-1.2,0.7
	C17.9,106.5,17.6,106.4,17.4,106.3 M22.4,109.2c-0.7-0.4-1-1.3-0.7-2c0.4-0.7,1.3-1,2-0.7c0.7,0.4,1,1.3,0.7,2
	c-0.3,0.5-0.8,0.8-1.3,0.8C22.8,109.3,22.6,109.3,22.4,109.2 M27.7,111.5c-0.8-0.3-1.2-1.1-0.9-1.9c0.3-0.8,1.1-1.2,1.9-0.9
	c0.8,0.3,1.2,1.1,0.9,1.9c-0.2,0.6-0.8,1-1.4,1C28.1,111.5,27.9,111.5,27.7,111.5 M33.3,113L33.3,113c-0.8-0.2-1.3-1-1.2-1.8
	c0.2-0.8,1-1.3,1.8-1.2h0c0.8,0.2,1.3,1,1.1,1.8c-0.1,0.7-0.8,1.2-1.5,1.2C33.6,113.1,33.4,113.1,33.3,113"/>
<path class="st2" d="M194,89.9c-0.7-0.4-1-1.3-0.6-2h0c0.4-0.7,1.3-1,2-0.6c0.7,0.4,1,1.3,0.6,2c-0.3,0.5-0.8,0.8-1.3,0.8
	C194.4,90,194.2,90,194,89.9 M190.8,94.5c-0.7-0.5-0.8-1.4-0.3-2.1c0.5-0.7,1.4-0.8,2.1-0.4c0.7,0.5,0.8,1.4,0.3,2.1
	c-0.3,0.4-0.8,0.6-1.2,0.6C191.4,94.8,191.1,94.7,190.8,94.5 M187.2,98.8c-0.6-0.6-0.7-1.5-0.1-2.1c0.6-0.6,1.5-0.7,2.1-0.1
	c0.6,0.6,0.7,1.5,0.1,2.1c-0.3,0.3-0.7,0.5-1.1,0.5C187.8,99.2,187.4,99.1,187.2,98.8 M183,102.6c-0.5-0.6-0.5-1.6,0.2-2.1
	c0.6-0.5,1.6-0.5,2.1,0.2c0.5,0.6,0.5,1.6-0.2,2.1c-0.3,0.2-0.6,0.4-1,0.4C183.7,103.1,183.3,102.9,183,102.6 M178.4,105.9
	c-0.5-0.7-0.3-1.6,0.4-2.1c0.7-0.5,1.6-0.3,2.1,0.4c0.5,0.7,0.3,1.6-0.4,2.1c-0.2,0.2-0.5,0.2-0.8,0.2
	C179.2,106.5,178.7,106.3,178.4,105.9 M173.4,108.5c-0.4-0.7-0.1-1.7,0.7-2c0.7-0.4,1.6-0.1,2,0.7c0.4,0.7,0.1,1.6-0.7,2
	c-0.2,0.1-0.4,0.2-0.7,0.2C174.2,109.3,173.7,109,173.4,108.5 M168.2,110.5c-0.3-0.8,0.1-1.6,0.9-1.9c0.8-0.3,1.6,0.1,1.9,0.9
	c0.3,0.8-0.1,1.6-0.9,1.9c-0.2,0.1-0.3,0.1-0.5,0.1C169,111.5,168.4,111.2,168.2,110.5 M162.7,111.9c-0.2-0.8,0.3-1.6,1.1-1.8
	c0.8-0.2,1.6,0.3,1.8,1.1c0.2,0.8-0.3,1.6-1.2,1.8c-0.1,0-0.2,0-0.3,0C163.5,113.1,162.9,112.6,162.7,111.9"/>
<path class="st2" d="M80,15.8c-0.4,0-0.8-0.2-1.1-0.4s-0.4-0.7-0.4-1.1c0-0.4,0.2-0.8,0.4-1.1c0.1-0.1,0.2-0.1,0.2-0.2
	c0.1,0,0.2-0.1,0.3-0.1c0.1,0,0.2-0.1,0.3-0.1c0.5-0.1,1,0.1,1.4,0.4c0.3,0.3,0.4,0.7,0.4,1.1c0,0.4-0.2,0.8-0.4,1.1
	C80.8,15.7,80.4,15.8,80,15.8"/>
<path class="st2" d="M97,2.8c0-0.8,0.7-1.5,1.5-1.5S100,2,100,2.8s-0.7,1.5-1.5,1.5S97,3.6,97,2.8 M103.8,5L103.8,5
	c-0.8-0.2-1.3-1.1-1-1.8c0.2-0.8,1.1-1.3,1.8-1c0.8,0.2,1.3,1.1,1,1.9c-0.2,0.6-0.8,1.1-1.4,1.1C104,5.1,103.9,5.1,103.8,5 M91.4,4
	c-0.2-0.8,0.2-1.6,1-1.9c0.8-0.2,1.6,0.2,1.9,1C94.5,4,94,4.8,93.2,5c-0.1,0-0.3,0.1-0.4,0.1C92.2,5.1,91.6,4.7,91.4,4 M108.6,7.2
	c-0.7-0.4-0.9-1.4-0.5-2.1c0.4-0.7,1.4-0.9,2.1-0.5c0.7,0.4,0.9,1.4,0.5,2.1c-0.3,0.4-0.8,0.7-1.3,0.7
	C109.1,7.4,108.9,7.3,108.6,7.2 M86.3,6.7c-0.4-0.7-0.2-1.6,0.5-2.1c0.7-0.4,1.6-0.2,2.1,0.5c0.4,0.7,0.2,1.6-0.5,2.1
	c-0.2,0.2-0.5,0.2-0.8,0.2C87.1,7.4,86.6,7.2,86.3,6.7 M112.7,10.6L112.7,10.6c-0.6-0.6-0.5-1.6,0.1-2.1c0.6-0.5,1.6-0.5,2.1,0.1h0
	c0.6,0.6,0.5,1.6-0.1,2.1c-0.3,0.3-0.7,0.4-1,0.4C113.4,11.1,113,10.9,112.7,10.6 M82.2,10.7c-0.6-0.6-0.7-1.5-0.1-2.1
	c0.6-0.6,1.5-0.7,2.1-0.1c0.6,0.6,0.7,1.5,0.1,2.1c-0.3,0.3-0.7,0.5-1.1,0.5C82.8,11.1,82.5,11,82.2,10.7"/>
<path class="st2" d="M117,15.9c-0.4,0-0.8-0.2-1.1-0.4c-0.1-0.1-0.2-0.3-0.3-0.5c-0.1-0.2-0.1-0.4-0.1-0.6c0-0.4,0.2-0.8,0.4-1.1
	c0.1-0.1,0.2-0.1,0.2-0.2c0.1-0.1,0.2-0.1,0.3-0.1c0.1,0,0.2-0.1,0.3-0.1c0.2,0,0.4,0,0.6,0c0.1,0,0.2,0,0.3,0.1
	c0.1,0,0.2,0.1,0.3,0.1c0.1,0.1,0.2,0.1,0.2,0.2c0.3,0.3,0.4,0.7,0.4,1.1c0,0.2,0,0.4-0.1,0.6c-0.1,0.2-0.2,0.3-0.3,0.5
	c-0.1,0.2-0.3,0.3-0.5,0.3C117.4,15.8,117.2,15.9,117,15.9"/>
</svg>
