<?xml version="1.0" encoding="UTF-8"?>
<svg width="18px" height="16px" viewBox="0 0 18 16" version="1.1" xmlns="http://www.w3.org/2000/svg" xmlns:xlink="http://www.w3.org/1999/xlink">
    <!-- Generator: Sketch 56.3 (81716) - https://sketch.com -->
    <title>case</title>
    <desc>Created with Sketch.</desc>
    <g id="Page-1" stroke="none" stroke-width="1" fill="none" fill-rule="evenodd">
        <g id="2" transform="translate(-280.000000, -327.000000)" fill="#fff" fill-rule="nonzero">
            <g id="tags" transform="translate(260.000000, 263.000000)">
                <g id="корп" transform="translate(0.000000, 55.000000)">
                    <g id="case" transform="translate(20.000000, 9.000000)">
                        <path d="M16.9542688,2.60117459 L11.814306,2.60117459 C11.814306,2.60117459 11.814306,2.57127603 11.814306,2.55419114 L11.814306,0.901227977 C11.814306,0.403470368 11.4150184,0 10.922421,0 L6.91950588,0 C6.4269085,0 6.02762089,0.403470368 6.02762089,0.901227977 L6.02762089,2.55846236 C6.02762089,2.55846236 6.02762089,2.58836092 6.02762089,2.60544581 L0.891884998,2.60544581 C0.399287614,2.60544581 0,3.00891618 0,3.50667379 L0,15.098772 C0,15.5965296 0.399287614,16 0.891884998,16 L16.9542688,16 C17.4468662,16 17.8461538,15.5965296 17.8461538,15.098772 L17.8461538,3.50240256 C17.8461538,3.00464495 17.4468662,2.60117459 16.9542688,2.60117459 Z M6.87300951,2.54991991 L6.8814634,0.892685531 C6.8814634,0.866737854 6.90228109,0.845702082 6.92795977,0.845702082 L10.9393288,0.845702082 C10.9650075,0.845702082 10.9858252,0.866737854 10.9858252,0.892685531 L10.9858252,2.54991991 C10.9858252,2.57586759 10.9650075,2.59690336 10.9393288,2.59690336 L6.91950588,2.59690336 C6.89382721,2.59690336 6.87300951,2.57586759 6.87300951,2.54991991 C6.87300951,2.54991991 6.87300951,2.54991991 6.87300951,2.54991991 Z M0.891884998,3.45541911 L16.9542688,3.45541911 C16.5569362,4.21569674 14.489961,7.8120662 10.6434428,8.67485318 L10.6434428,8.17939135 C10.6435484,7.68825414 10.2544055,7.28745328 9.76846555,7.27816337 L8.0776883,7.27816337 C7.58509092,7.27816337 7.1858033,7.68163374 7.1858033,8.17939135 L7.1858033,8.68339562 C3.34351201,7.82915109 1.26808294,4.21996797 0.874977226,3.46396156 L0.891884998,3.45541911 Z M9.80228109,8.17939135 L9.80228109,10.6652429 C9.80228109,10.6911906 9.7814634,10.7122264 9.75578472,10.7122264 L8.0776883,10.7122264 C8.05200962,10.7122264 8.03119193,10.6911906 8.03119193,10.6652429 L8.03119193,8.17939135 C8.03119193,8.15344367 8.05200962,8.1324079 8.0776883,8.1324079 L9.76846555,8.1324079 C9.78912473,8.13828083 9.80307364,8.1577149 9.80228109,8.17939135 Z M16.9880844,15.1030432 C16.9880844,15.1289909 16.9672667,15.1500267 16.941588,15.1500267 L0.891884998,15.1500267 C0.866206319,15.1500267 0.845388624,15.1289909 0.845388624,15.1030432 L0.845388624,5.05285638 C1.88521663,6.57768286 3.95641876,8.89695675 7.1858033,9.55472504 L7.1858033,10.6609717 C7.1858033,11.1587293 7.58509092,11.5621997 8.0776883,11.5621997 L9.76846555,11.5621997 C10.2610629,11.5621997 10.6603505,11.1587293 10.6603505,10.6609717 L10.6603505,9.55472504 C13.8897351,8.9054992 15.9609372,6.56486919 17.0007652,5.05285638 L16.9880844,15.1030432 Z" id="Shape"></path>
                    </g>
                </g>
            </g>
        </g>
    </g>
</svg>