<?xml version="1.0" encoding="UTF-8"?>
<svg width="23px" height="16px" viewBox="0 0 23 16" version="1.1" xmlns="http://www.w3.org/2000/svg" xmlns:xlink="http://www.w3.org/1999/xlink">
    <!-- Generator: Sketch 56.3 (81716) - https://sketch.com -->
    <title>Shape</title>
    <desc>Created with Sketch.</desc>
    <g id="Page-1" stroke="none" stroke-width="1" fill="none" fill-rule="evenodd">
        <g id="2" transform="translate(-1104.000000, -275.000000)" fill="#fff" fill-rule="nonzero">
            <g id="tags" transform="translate(260.000000, 263.000000)">
                <g id="кредит" transform="translate(809.000000, 0.000000)">
                    <path d="M57.9679411,20.7769866 C57.8855038,20.1845628 57.2718041,19.7106238 56.122262,19.3642837 C55.1925528,19.0863002 54.0155317,18.9176873 52.733174,18.8903446 L52.733174,14.0279123 C52.733174,13.9276559 52.7011151,13.8319567 52.6369972,13.7544859 C52.4858622,13.2258616 51.8721625,12.7974936 50.8096376,12.4784962 C49.7791716,12.1686129 48.4326961,12 47.0175229,12 C45.6069295,12 44.2741935,12.1686129 43.2666268,12.4784962 C42.4376742,12.7336941 41.4438471,13.2076332 41.4438471,14.0233552 C41.4438471,14.0734833 41.4484269,14.1236115 41.4575866,14.1737397 L41.507965,16.2517801 C38.5356432,15.6821418 35.6640781,17.6280262 35.0961768,20.5901453 C35.0320589,20.922814 35,21.264597 35,21.6063799 C35,24.6140701 37.4593787,27.0612361 40.4820789,27.0612361 C41.7415372,27.0612361 42.959777,26.628311 43.9398646,25.8399316 C44.8008761,26.0404443 45.8084429,26.1498149 46.8755476,26.1589291 C47.1091199,27.4212475 49.8570291,28 52.4217443,28 C53.8323377,28 55.1604938,27.82683 56.1772202,27.5123896 C57.0107527,27.2571917 58,26.7786955 58,25.9629735 L58,20.9547138 C58,20.8954714 57.9908403,20.8316719 57.9679411,20.7769866 Z M43.5414178,13.3489034 C44.4665472,13.0663629 45.7031063,12.9068641 47.0221027,12.9068641 C48.3319395,12.9068641 49.6142971,13.0663629 50.5485862,13.3489034 C51.5424134,13.6496725 51.7576663,13.9595557 51.7576663,14.0233552 C51.7576663,14.0871547 51.5424134,14.401595 50.5440064,14.6978069 C49.6142971,14.9757904 48.3319395,15.1398462 47.0221027,15.1398462 C45.7580645,15.1398462 44.5581442,14.9940188 43.6467543,14.7297066 C42.6620868,14.447166 42.3872959,14.1327257 42.3643967,14.0324694 C42.3643967,14.0233552 42.3643967,14.0187981 42.3598168,14.0187981 C42.3643967,13.9549986 42.5750697,13.6451154 43.5414178,13.3489034 Z M51.8172043,15.1626317 L51.8172043,16.3292509 C51.7759857,16.3930504 51.7530864,16.4705212 51.7576663,16.547992 C51.7576663,16.6072344 51.5424134,16.9216747 50.5440064,17.2224437 C49.6142971,17.5004272 48.3273596,17.6644831 47.0175229,17.6644831 C45.8863003,17.6644831 44.7779769,17.5459983 43.898646,17.3227001 C43.8849064,17.318143 43.8757467,17.318143 43.8620072,17.3135859 C43.4269215,16.9718029 42.9460374,16.7029336 42.4285145,16.5069781 L42.3964556,15.2218741 C42.7124652,15.3813728 43.0422143,15.5089718 43.3857029,15.6001139 C44.3795301,15.8872116 45.6664675,16.0421532 47.0175229,16.0421532 C48.4326961,16.0421532 49.7791716,15.8735403 50.8050577,15.5636571 C51.1577061,15.4679578 51.4966149,15.3312447 51.8172043,15.1626317 Z M43.5551573,24.9649672 C41.6911589,26.6556537 38.8012744,26.5189405 37.1067304,24.6641982 C35.4121864,22.809456 35.545002,19.933922 37.4090004,18.2477927 C38.2516926,17.4867559 39.3462764,17.062945 40.4820789,17.062945 C40.9400637,17.062945 41.3980486,17.1313016 41.8377141,17.2634577 C43.4223417,17.7601823 44.6176822,19.0680718 44.9611708,20.6858445 C45.0207089,20.9866135 45.0527678,21.2964967 45.0527678,21.6018228 C45.0527678,22.8869268 44.5077658,24.1082313 43.5551573,24.9649672 Z M44.7184389,25.0652236 C45.0894066,24.6140701 45.3870968,24.1082313 45.5977698,23.5659356 C45.9870569,23.5978354 46.3992433,23.6206209 46.8205894,23.625178 L46.8205894,23.7072059 L46.8434886,25.2520649 C46.1336121,25.2429507 45.4237356,25.1791512 44.7184389,25.0652236 Z M45.9366786,21.0640843 C46.2068897,21.0823127 46.4862605,21.0914269 46.7702111,21.0959841 C46.7702111,21.1050983 46.7747909,21.1187696 46.7747909,21.1278838 L46.80227,22.7091997 C46.4771008,22.7046426 46.1610912,22.6909712 45.8542413,22.6681857 C45.9229391,22.3172885 45.9595779,21.9572771 45.9595779,21.6018228 C45.9641577,21.4240957 45.954998,21.2463686 45.9366786,21.0640843 Z M47.0633214,20.1891199 C47.0495818,20.1891199 47.0358423,20.1891199 47.0221027,20.1891199 C46.5824373,20.1891199 46.1565114,20.1708915 45.7626444,20.1435488 C45.5886101,19.5328966 45.3138192,18.9587012 44.9428515,18.4483053 C45.6298288,18.5348903 46.3213859,18.5804614 47.0175229,18.5804614 C48.4326961,18.5804614 49.7791716,18.4118485 50.8096376,18.1019653 C51.1622859,17.9925947 51.4966149,17.8604386 51.8172043,17.6918257 L51.8172043,18.8994588 C49.8478694,18.9541441 47.8144166,19.3642837 47.0633214,20.1891199 Z M47.6770211,20.8909143 C47.7228196,20.7633153 48.0571485,20.4671034 48.9960175,20.2027912 C49.889088,19.9521504 51.0523696,19.8154372 52.2751892,19.8154372 L52.3347272,19.8154372 C53.6445639,19.8154372 54.9269215,19.9658217 55.8612107,20.2483623 C56.8275587,20.5400171 57.0565512,20.8316719 57.0702907,20.9091427 L57.0702907,20.9136998 C57.0657109,20.9820564 56.8367184,21.2964967 55.819992,21.5972657 C54.8811231,21.8752492 53.6445639,22.0256337 52.3347272,22.0256337 C51.0981681,22.0256337 49.9165671,21.8843634 49.0097571,21.6337226 C48.135006,21.3876388 47.7823576,21.1096554 47.6953405,20.9683851 C47.6907607,20.9410424 47.6861808,20.9136998 47.6770211,20.8909143 Z M57.0840303,25.9629735 C57.0840303,26.026773 56.8779371,26.3412133 55.9070092,26.6419823 C54.9772999,26.92908 53.7407407,27.0885788 52.4217443,27.0885788 C51.0981681,27.0885788 49.8616089,26.9336371 48.9456392,26.6556537 C47.9747113,26.3594418 47.7777778,26.0541156 47.7777778,25.985759 C47.7777778,25.9812019 47.7777778,25.9812019 47.7777778,25.9766448 L47.7548785,24.6596411 C48.8448825,25.211051 50.6630824,25.4616918 52.3301474,25.4616918 C53.7453206,25.4616918 55.0826364,25.2930789 56.1085225,24.9831957 C56.4474313,24.8829393 56.7726006,24.7462261 57.0840303,24.5821703 L57.0840303,25.9629735 Z M57.0428116,23.4383367 C57.0428116,23.5021361 56.8321386,23.8120194 55.8428913,24.1127884 C54.9040223,24.395329 53.6583035,24.5502706 52.3301474,24.5502706 C49.8158104,24.5502706 48.1121067,23.9897465 47.7365591,23.5477072 L47.7273994,23.1557961 L47.70908,22.1122187 C48.043409,22.2808317 48.3914775,22.4129878 48.7532855,22.508687 C49.737953,22.7821134 51.0065711,22.937055 52.3255675,22.937055 C53.7178415,22.937055 55.0459976,22.7729991 56.0673039,22.4722301 C56.4199522,22.3719738 56.758861,22.2398177 57.0794504,22.0712048 L57.0794504,23.2423811 L57.0840303,23.2423811 C57.0840303,23.3016235 57.0428116,23.3699801 57.0428116,23.4383367 Z" id="Shape"></path>
                </g>
            </g>
        </g>
    </g>
</svg>