<?xml version="1.0" encoding="UTF-8"?>
<svg width="11px" height="14px" viewBox="0 0 11 14" version="1.1" xmlns="http://www.w3.org/2000/svg" xmlns:xlink="http://www.w3.org/1999/xlink">
    <!-- Generator: Sketch 56.3 (81716) - https://sketch.com -->
    <title>Р</title>
    <desc>Created with Sketch.</desc>
    <g id="Page-1" stroke="none" stroke-width="1" fill="none" fill-rule="evenodd">
        <g id="2" transform="translate(-705.000000, -274.000000)" fill="#fff">
            <g id="tags" transform="translate(260.000000, 263.000000)">
                <g id="накопления" transform="translate(410.000000, 0.000000)">
                    <path d="M37,11 L40.536,11 C43.384,11 45.432,12.536 45.432,15.112 C45.432,17.704 43.384,19.224 40.536,19.224 L38.248,19.224 L38.248,21.1044495 L42.248,21.1044495 L42.248,22.2907745 L38.248,22.2907745 L38.248,24.2 L37,24.2 L37,22.2907745 L35,22.2907745 L35,21.1044495 L37,21.1044495 L37,19.2634155 L35,19.2634155 L35,18.0584747 L37,18.0584747 L37,11 Z M38.248,18.056 L40.616,18.056 C42.552,18.056 44.248,17.192 44.248,15.112 C44.248,13.064 42.552,12.168 40.616,12.168 L38.248,12.168 L38.248,18.056 Z" id="Р"></path>
                </g>
            </g>
        </g>
    </g>
</svg>