<?xml version="1.0" encoding="UTF-8"?>
<svg width="13px" height="13px" viewBox="0 0 13 13" version="1.1" xmlns="http://www.w3.org/2000/svg" xmlns:xlink="http://www.w3.org/1999/xlink">
    <!-- Generator: Sketch 56.3 (81716) - https://sketch.com -->
    <title>Rectangle 3</title>
    <desc>Created with Sketch.</desc>
    <g id="Page-1" stroke="none" stroke-width="1" fill="none" fill-rule="evenodd">
        <g id="2" transform="translate(-477.000000, -275.000000)" fill-rule="nonzero" stroke="#fff">
            <g id="tags" transform="translate(260.000000, 263.000000)">
                <g id="жизнь" transform="translate(200.000000, 0.000000)">
                    <path d="M29,15.75 L26.25,15.75 L26.25,13 C26.25,12.7238576 26.0261424,12.5 25.75,12.5 L21.25,12.5 C20.9738576,12.5 20.75,12.7238576 20.75,13 L20.75,15.75 L18,15.75 C17.7238576,15.75 17.5,15.9738576 17.5,16.25 L17.5,20.75 C17.5,21.0261424 17.7238576,21.25 18,21.25 L20.75,21.25 L20.75,24 C20.75,24.2761424 20.9738576,24.5 21.25,24.5 L25.75,24.5 C26.0261424,24.5 26.25,24.2761424 26.25,24 L26.25,21.25 L29,21.25 C29.2761424,21.25 29.5,21.0261424 29.5,20.75 L29.5,16.25 C29.5,15.9738576 29.2761424,15.75 29,15.75 Z" id="Rectangle-3"></path>
                </g>
            </g>
        </g>
    </g>
</svg>