<?xml version="1.0" encoding="UTF-8"?>
<svg width="21px" height="15px" viewBox="0 0 21 15" version="1.1" xmlns="http://www.w3.org/2000/svg" xmlns:xlink="http://www.w3.org/1999/xlink">
    <!-- Generator: Sketch 56.3 (81716) - https://sketch.com -->
    <title>graph</title>
    <desc>Created with Sketch.</desc>
    <g id="Page-1" stroke="none" stroke-width="1" fill="none" fill-rule="evenodd">
        <g id="2" transform="translate(-902.000000, -274.000000)" fill-rule="nonzero" stroke="#fff">
            <g id="tags" transform="translate(260.000000, 263.000000)">
                <g id="инвестиции" transform="translate(609.000000, 0.000000)">
                    <g id="graph" transform="translate(33.000000, 11.000000)">
                        <rect id="Rectangle-4" x="0.5" y="0.5" width="20" height="14" rx="2"></rect>
                        <path d="M0.717132568,2.90490723 C3.60779419,4.45349121 5.16373901,5.31835938 5.38496704,5.49951172 C5.71680908,5.77124023 6.49597778,7.15966797 6.69003296,7.15966797 C6.88408813,7.15966797 8.35718994,7.4296875 8.57418823,7.4296875 C8.79118652,7.4296875 9.9284729,8.7388916 10.1552124,8.7388916 C10.3819519,8.7388916 13.0087463,9.07446289 13.2461243,9.35571289 C13.4835022,9.63696289 13.8754578,10.6394043 14.0772034,10.815918 C14.2117004,10.9335937 14.719696,10.9335937 15.6011902,10.815918 C17.2293396,11.1651204 18.119165,11.4064941 18.2706665,11.5400391 C18.4979187,11.7403564 18.8917969,13.1580811 19.1463501,13.1580811 C19.3160522,13.1580811 19.7477417,13.1580811 20.4414185,13.1580811" id="Path-2" transform="translate(10.579276, 8.031494) scale(-1, 1) translate(-10.579276, -8.031494) "></path>
                    </g>
                </g>
            </g>
        </g>
    </g>
</svg>