<?xml version="1.0" encoding="UTF-8"?>
<svg width="21px" height="16px" viewBox="0 0 21 16" version="1.1" xmlns="http://www.w3.org/2000/svg" xmlns:xlink="http://www.w3.org/1999/xlink">
    <!-- Generator: Sketch 56.3 (81716) - https://sketch.com -->
    <title>Shape</title>
    <desc>Created with Sketch.</desc>
    <g id="Page-1" stroke="none" stroke-width="1" fill="none" fill-rule="evenodd">
        <g id="2" transform="translate(-1258.000000, -274.000000)" fill="#fff" fill-rule="nonzero">
            <g id="tags" transform="translate(260.000000, 263.000000)">
                <g id="премьер" transform="translate(979.000000, 0.000000)">
                    <path d="M39.8958235,15.164231 L36.271842,11.1378487 C36.1929595,11.0501936 36.0795399,11 35.9604265,11 L23.0396151,11 C22.9205017,11 22.8070821,11.0501936 22.7281996,11.1378487 L19.1041765,15.164231 C18.995952,15.2844915 18.9695609,15.4558434 19.0367232,15.6021802 C19.0620338,15.6573523 19.0989398,15.7050158 19.1438256,15.7430895 C19.1446983,15.744028 19.1453633,15.745089 19.1462361,15.7460684 L29.1890833,26.8627226 C29.2679658,26.9500513 29.381136,27 29.5,27 C29.618864,27 29.7320342,26.9500105 29.8109167,26.8627226 L39.8537639,15.7460684 C39.8546367,15.7451298 39.8553432,15.7440688 39.8561744,15.7430895 C39.9010186,15.7050158 39.9379246,15.6573115 39.9632768,15.6021802 C40.0304391,15.4558434 40.004048,15.2844915 39.8958235,15.164231 Z M35.2234695,11.816115 L33.3764637,14.7397483 L30.4164999,11.816115 L35.2234695,11.816115 Z M32.4946256,15.0263822 L26.5053744,15.0263822 L29.5,12.0685112 L32.4946256,15.0263822 Z M28.5835001,11.8161558 L25.6235363,14.7397891 L23.7765305,11.8161558 L28.5835001,11.8161558 Z M22.9751126,12.095934 L24.8264407,15.0263822 L20.3375363,15.0263822 L22.9751126,12.095934 Z M20.3445185,15.842538 L25.2560968,15.842538 L28.6489585,25.0349417 L20.3445185,15.842538 Z M30.3664606,25.017884 L32.7370085,18.7183038 C32.8165559,18.5068787 32.7065028,18.2721931 32.4912176,18.194087 C32.2758077,18.1158992 32.0368328,18.2239991 31.9573269,18.4354242 L29.503782,24.9555705 L26.1402208,15.842538 L38.6554815,15.842538 L30.3664606,25.017884 Z M34.1735593,15.0263822 L36.0248874,12.095934 L38.6624637,15.0263822 L34.1735593,15.0263822 Z M32.7117647,17.3030303 C32.5070945,17.3030303 32.3411765,17.1402248 32.3411765,16.9393939 C32.3411765,16.7385631 32.5070945,16.5757576 32.7117647,16.5757576 C32.9164349,16.5757576 33.0823529,16.7385631 33.0823529,16.9393939 C33.0823529,17.1402248 32.9164349,17.3030303 32.7117647,17.3030303 Z" id="Shape"></path>
                </g>
            </g>
        </g>
    </g>
</svg>