<?xml version="1.0" encoding="utf-8"?>
<!-- Generator: Adobe Illustrator 21.0.0, SVG Export Plug-In . SVG Version: 6.00 Build 0)  -->
<svg version="1.1" id="Слой_1" xmlns="http://www.w3.org/2000/svg" xmlns:xlink="http://www.w3.org/1999/xlink" x="0px" y="0px"
	 viewBox="0 0 166 147.5" style="enable-background:new 0 0 166 147.5;" xml:space="preserve">
<style type="text/css">
	.st0{fill:none;stroke:#FFFFFF;stroke-width:3.5;stroke-linecap:round;stroke-linejoin:round;stroke-miterlimit:10;}
	.st1{fill:none;stroke:#FFFFFF;stroke-width:2;stroke-linecap:round;stroke-linejoin:round;stroke-miterlimit:10;}
	.st2{fill:#FFFFFF;}
</style>
<path class="st0" d="M113.4,15.8c3.3,0,5.9,2.6,5.9,5.9V72 M86.3,142.9H10.7c-3.3,0-5.9-2.6-5.9-5.9V21.7c0-3.3,2.6-5.9,5.9-5.9
	 M104.2,117h33.5c5,0,8.5-2.1,12.8-6.2c3.1-2.9,12-12.2,12-12.2 M104.2,130h33.5c5,0,8.3-1.4,12.8-5.5c3.1-2.8,12-11.3,12-11.3
	 M104.2,143h33.5c4.4,0,8.5-1.4,13.2-5.6c3.2-2.9,11.7-11.2,11.7-11.2 M106.2,104h30.2c5.7,0,8.1-1.1,12.9-5.7
	c4.2-3.9,11.1-10.7,13.1-12.7c1.6-1.6,1-1.9-1.7-1.9c-7.5,0-29,0-32.3,0c-1.6,0-3.5,0.6-5.4,2.1c-3.1,2.5-12.8,11.2-16.7,14.6
	C103.8,102.5,103.3,104,106.2,104z"/>
<path class="st1" d="M4,49h114.6 M26.9,18.3v11c0,2.8-2.2,5-5,5c-2.8,0-5-2.2-5-5v-11 M16.9,12V7.5c0-2.8,2.2-5,5-5c2.8,0,5,2.2,5,5
	V12 M47.1,18.3v11c0,2.8-2.2,5-5,5s-5-2.2-5-5v-11 M37.1,12V7.5c0-2.8,2.2-5,5-5s5,2.2,5,5V12 M67.4,18.3v11c0,2.8-2.2,5-5,5
	c-2.8,0-5-2.2-5-5v-11 M57.3,12V7.5c0-2.8,2.2-5,5-5c2.8,0,5,2.2,5,5V12 M87.6,18.3v11c0,2.8-2.2,5-5,5c-2.8,0-5-2.2-5-5v-11
	 M77.6,12V7.5c0-2.8,2.2-5,5-5c2.8,0,5,2.2,5,5V12 M107.8,18.3v11c0,2.8-2.2,5-5,5c-2.8,0-5-2.2-5-5v-11 M97.8,12V7.5
	c0-2.8,2.2-5,5-5c2.8,0,5,2.2,5,5V12"/>
<path class="st2" d="M21,69.9c-0.2,0-0.4,0-0.6-0.1c-0.2-0.1-0.3-0.2-0.5-0.3c-0.1-0.1-0.2-0.3-0.3-0.5c-0.1-0.2-0.1-0.4-0.1-0.6
	c0-0.1,0-0.2,0-0.3c0-0.1,0.1-0.2,0.1-0.3c0-0.1,0.1-0.2,0.1-0.3c0.1-0.1,0.1-0.2,0.2-0.2c0.4-0.3,0.9-0.5,1.4-0.4
	c0.1,0,0.2,0,0.3,0.1s0.2,0.1,0.3,0.1c0.1,0.1,0.2,0.1,0.2,0.2c0.3,0.3,0.4,0.7,0.4,1.1c0,0.2,0,0.4-0.1,0.6
	c-0.1,0.2-0.2,0.4-0.3,0.5C21.8,69.7,21.4,69.9,21,69.9"/>
<path class="st2" d="M25.5,68.4c0-0.8,0.7-1.5,1.5-1.5c0.8,0,1.5,0.7,1.5,1.5c0,0.8-0.7,1.5-1.5,1.5C26.1,69.9,25.5,69.2,25.5,68.4
	 M31.4,68.4c0-0.8,0.7-1.5,1.5-1.5c0.8,0,1.5,0.7,1.5,1.5c0,0.8-0.7,1.5-1.5,1.5C32.1,69.9,31.4,69.2,31.4,68.4"/>
<path class="st2" d="M38.9,69.9c-0.2,0-0.4,0-0.6-0.1c-0.2-0.1-0.3-0.2-0.5-0.3s-0.2-0.3-0.3-0.5c-0.1-0.2-0.1-0.4-0.1-0.6
	c0-0.4,0.2-0.8,0.4-1.1c0.6-0.6,1.6-0.6,2.1,0c0.3,0.3,0.4,0.7,0.4,1.1c0,0.2,0,0.4-0.1,0.6c-0.1,0.2-0.2,0.4-0.3,0.5
	s-0.3,0.2-0.5,0.3C39.3,69.9,39.1,69.9,38.9,69.9"/>
<path class="st2" d="M21,93.8c-0.4,0-0.8-0.2-1.1-0.4c-0.1-0.1-0.2-0.3-0.3-0.5c-0.1-0.2-0.1-0.4-0.1-0.6c0-0.1,0-0.2,0-0.3
	c0-0.1,0.1-0.2,0.1-0.3c0-0.1,0.1-0.2,0.1-0.3c0.1-0.1,0.1-0.2,0.2-0.2c0.1-0.1,0.1-0.1,0.2-0.2c0.1-0.1,0.2-0.1,0.3-0.1
	c0.1,0,0.2-0.1,0.3-0.1c0.2,0,0.4,0,0.6,0c0.1,0,0.2,0.1,0.3,0.1s0.2,0.1,0.3,0.1c0.1,0.1,0.2,0.1,0.2,0.2c0.1,0.1,0.1,0.2,0.2,0.2
	c0,0.1,0.1,0.2,0.1,0.3c0,0.1,0.1,0.2,0.1,0.3c0,0.1,0,0.2,0,0.3c0,0.2,0,0.4-0.1,0.6c-0.1,0.2-0.2,0.3-0.3,0.5
	c-0.1,0.1-0.3,0.2-0.5,0.3C21.4,93.7,21.2,93.8,21,93.8"/>
<path class="st2" d="M25.5,92.3c0-0.8,0.7-1.5,1.5-1.5c0.8,0,1.5,0.7,1.5,1.5c0,0.8-0.7,1.5-1.5,1.5C26.1,93.8,25.5,93.1,25.5,92.3
	 M31.4,92.3c0-0.8,0.7-1.5,1.5-1.5c0.8,0,1.5,0.7,1.5,1.5c0,0.8-0.7,1.5-1.5,1.5C32.1,93.8,31.4,93.1,31.4,92.3"/>
<path class="st2" d="M38.9,93.8c-0.4,0-0.8-0.2-1.1-0.4c-0.1-0.1-0.2-0.3-0.3-0.5c-0.1-0.2-0.1-0.4-0.1-0.6c0-0.1,0-0.2,0-0.3
	c0-0.1,0-0.2,0.1-0.3c0-0.1,0.1-0.2,0.1-0.3c0.1-0.1,0.1-0.2,0.2-0.2c0.1-0.1,0.1-0.1,0.2-0.2c0.1-0.1,0.2-0.1,0.2-0.1
	c0.1,0,0.2-0.1,0.3-0.1c0.2,0,0.4,0,0.6,0c0.1,0,0.2,0.1,0.3,0.1s0.2,0.1,0.3,0.1c0.1,0.1,0.2,0.1,0.2,0.2c0.1,0.1,0.1,0.2,0.2,0.2
	c0,0.1,0.1,0.2,0.1,0.3c0,0.1,0.1,0.2,0.1,0.3c0,0.1,0,0.2,0,0.3c0,0.2,0,0.4-0.1,0.6c-0.1,0.2-0.2,0.3-0.3,0.5
	C39.7,93.6,39.3,93.8,38.9,93.8"/>
<path class="st2" d="M21,117.6c-0.2,0-0.4,0-0.6-0.1c-0.2-0.1-0.3-0.2-0.5-0.3c-0.3-0.3-0.4-0.7-0.4-1.1c0-0.4,0.2-0.8,0.4-1.1
	c0.1-0.1,0.1-0.1,0.2-0.2c0.1,0,0.2-0.1,0.3-0.1c0.1,0,0.2-0.1,0.3-0.1c0.5-0.1,1,0.1,1.4,0.4c0.1,0.1,0.1,0.1,0.2,0.2
	c0,0.1,0.1,0.2,0.1,0.2c0,0.1,0.1,0.2,0.1,0.3c0,0.1,0,0.2,0,0.3c0,0.4-0.2,0.8-0.4,1.1c-0.1,0.1-0.3,0.2-0.5,0.3
	C21.4,117.6,21.2,117.6,21,117.6"/>
<path class="st2" d="M25.4,116.1c0-0.8,0.7-1.5,1.5-1.5c0.8,0,1.5,0.7,1.5,1.5c0,0.8-0.7,1.5-1.5,1.5
	C26.1,117.6,25.4,117,25.4,116.1 M31.4,116.1c0-0.8,0.7-1.5,1.5-1.5s1.5,0.7,1.5,1.5c0,0.8-0.7,1.5-1.5,1.5S31.4,117,31.4,116.1"/>
<path class="st2" d="M38.9,117.6c-0.2,0-0.4,0-0.6-0.1c-0.2-0.1-0.3-0.2-0.5-0.3s-0.2-0.3-0.3-0.5c-0.1-0.2-0.1-0.4-0.1-0.6
	c0-0.4,0.2-0.8,0.4-1.1c0.1-0.1,0.1-0.1,0.2-0.2c0.1,0,0.2-0.1,0.3-0.1c0.1,0,0.2-0.1,0.3-0.1c0.2,0,0.4,0,0.6,0
	c0.1,0,0.2,0,0.3,0.1c0.1,0,0.2,0.1,0.3,0.1c0.1,0.1,0.2,0.1,0.2,0.2c0.3,0.3,0.4,0.7,0.4,1.1c0,0.2,0,0.4-0.1,0.6
	c-0.1,0.2-0.2,0.4-0.3,0.5s-0.3,0.2-0.5,0.3C39.3,117.6,39.1,117.6,38.9,117.6"/>
<path class="st2" d="M54,69.9c-0.2,0-0.4,0-0.6-0.1c-0.2-0.1-0.3-0.2-0.5-0.3s-0.2-0.3-0.3-0.5c-0.1-0.2-0.1-0.4-0.1-0.6
	c0-0.1,0-0.2,0-0.3c0-0.1,0-0.2,0.1-0.3c0-0.1,0.1-0.2,0.1-0.3c0.1-0.1,0.1-0.2,0.2-0.2c0.3-0.3,0.9-0.5,1.3-0.4
	c0.1,0,0.2,0,0.3,0.1s0.2,0.1,0.3,0.1c0.1,0.1,0.2,0.1,0.2,0.2c0.3,0.3,0.4,0.7,0.4,1.1c0,0.2,0,0.4-0.1,0.6
	c-0.1,0.2-0.2,0.4-0.3,0.5C54.8,69.7,54.4,69.9,54,69.9"/>
<path class="st2" d="M58.5,68.4c0-0.8,0.7-1.5,1.5-1.5c0.8,0,1.5,0.7,1.5,1.5c0,0.8-0.7,1.5-1.5,1.5C59.1,69.9,58.5,69.2,58.5,68.4
	 M64.4,68.4c0-0.8,0.7-1.5,1.5-1.5s1.5,0.7,1.5,1.5c0,0.8-0.7,1.5-1.5,1.5S64.4,69.2,64.4,68.4"/>
<path class="st2" d="M71.9,69.9c-0.2,0-0.4,0-0.6-0.1c-0.2-0.1-0.3-0.2-0.5-0.3s-0.2-0.3-0.3-0.5c-0.1-0.2-0.1-0.4-0.1-0.6
	c0-0.4,0.2-0.8,0.4-1.1c0.6-0.6,1.6-0.6,2.1,0c0.3,0.3,0.4,0.7,0.4,1.1c0,0.2,0,0.4-0.1,0.6c-0.1,0.2-0.2,0.4-0.3,0.5
	s-0.3,0.2-0.5,0.3C72.3,69.9,72.1,69.9,71.9,69.9"/>
<path class="st2" d="M87,69.9c-0.2,0-0.4,0-0.6-0.1c-0.2-0.1-0.3-0.2-0.5-0.3c-0.1-0.1-0.2-0.3-0.3-0.5c-0.1-0.2-0.1-0.4-0.1-0.6
	c0-0.4,0.1-0.8,0.4-1.1c0.1-0.1,0.2-0.1,0.2-0.2c0.1,0,0.2-0.1,0.3-0.1c0.1,0,0.2-0.1,0.3-0.1c0.2,0,0.4,0,0.6,0
	c0.1,0,0.2,0,0.3,0.1c0.1,0,0.2,0.1,0.3,0.1c0.1,0.1,0.2,0.1,0.2,0.2c0.3,0.3,0.5,0.7,0.5,1.1c0,0.2,0,0.4-0.1,0.6
	c-0.1,0.2-0.2,0.4-0.3,0.5C87.7,69.7,87.4,69.9,87,69.9"/>
<path class="st2" d="M91.4,68.4c0-0.8,0.7-1.5,1.5-1.5c0.8,0,1.5,0.7,1.5,1.5c0,0.8-0.7,1.5-1.5,1.5C92.1,69.9,91.4,69.2,91.4,68.4
	 M97.4,68.4c0-0.8,0.7-1.5,1.5-1.5c0.8,0,1.5,0.7,1.5,1.5c0,0.8-0.7,1.5-1.5,1.5C98.1,69.9,97.4,69.2,97.4,68.4"/>
<path class="st2" d="M104.9,69.9c-0.2,0-0.4,0-0.6-0.1c-0.2-0.1-0.3-0.2-0.5-0.3c-0.1-0.1-0.2-0.3-0.3-0.5c-0.1-0.2-0.1-0.4-0.1-0.6
	c0-0.4,0.2-0.8,0.4-1.1c0.6-0.6,1.6-0.6,2.1,0c0.3,0.3,0.4,0.7,0.4,1.1c0,0.2,0,0.4-0.1,0.6c-0.1,0.2-0.2,0.4-0.3,0.5
	c-0.2,0.1-0.3,0.2-0.5,0.3C105.3,69.9,105.1,69.9,104.9,69.9"/>
<polygon class="st2" points="91.4,104.6 91.4,104.2 91,104.2 74.7,87.9 69.1,93.6 79.7,104.2 54.4,104.2 54.4,113.3 80.3,113.3 
	68.3,125.2 74,130.8 95.8,109 "/>
</svg>
