<?xml version="1.0" encoding="utf-8"?>
<!-- Generator: Adobe Illustrator 21.0.0, SVG Export Plug-In . SVG Version: 6.00 Build 0)  -->
<svg version="1.1" id="Слой_1" xmlns="http://www.w3.org/2000/svg" xmlns:xlink="http://www.w3.org/1999/xlink" x="0px" y="0px"
	 viewBox="0 0 190 147.5" style="enable-background:new 0 0 190 147.5;" xml:space="preserve">
<style type="text/css">
	.st0{fill:none;stroke:#FFFFFF;stroke-width:3.5;stroke-linecap:round;stroke-linejoin:round;stroke-miterlimit:10;}
	.st1{fill:#FFFFFF;}
</style>
<path class="st0" d="M147.2,32.7c18.7,10.6,38.2,34.9,38.2,58c0,30.7-24.9,52.5-55.6,52.5s-55.6-21.8-55.6-52.5
	c0-23.4,20-48.1,38.9-58.4"/>
<path class="st1" d="M88,102.3c-0.3-0.8,0.1-1.6,0.9-1.9c0.8-0.3,1.6,0.1,1.9,0.9c0.3,0.8-0.1,1.6-0.9,1.9c-0.2,0.1-0.3,0.1-0.5,0.1
	C88.8,103.2,88.2,102.9,88,102.3 M90.1,107c-0.4-0.7-0.1-1.6,0.6-2c0.7-0.4,1.7-0.1,2,0.6c0.4,0.7,0.1,1.6-0.7,2
	c-0.2,0.1-0.5,0.2-0.7,0.2C90.8,107.8,90.3,107.5,90.1,107 M92.7,111.4L92.7,111.4c-0.5-0.7-0.3-1.6,0.4-2.1
	c0.7-0.5,1.6-0.3,2.1,0.4c0.5,0.7,0.3,1.6-0.4,2.1c-0.3,0.2-0.6,0.3-0.8,0.3C93.5,112.1,93,111.9,92.7,111.4 M95.9,115.5L95.9,115.5
	c-0.5-0.6-0.5-1.6,0.1-2.1c0.6-0.5,1.6-0.5,2.1,0.1c0.6,0.6,0.5,1.6-0.1,2.1c-0.3,0.3-0.7,0.4-1,0.4C96.6,116,96.2,115.8,95.9,115.5
	 M99.6,119.2c-0.6-0.6-0.7-1.5-0.1-2.1c0.6-0.6,1.5-0.7,2.1-0.1c0.6,0.6,0.7,1.5,0.1,2.1c-0.3,0.3-0.7,0.5-1.1,0.5
	C100.2,119.5,99.9,119.4,99.6,119.2 M103.7,122.4c-0.7-0.5-0.8-1.4-0.4-2.1c0.5-0.7,1.4-0.9,2.1-0.4c0.7,0.5,0.8,1.4,0.4,2.1
	c-0.3,0.4-0.8,0.6-1.2,0.6C104.2,122.6,103.9,122.5,103.7,122.4 M108.1,125.1c-0.7-0.4-1-1.3-0.6-2c0.4-0.7,1.3-1,2-0.6
	c0.7,0.4,1,1.3,0.6,2c-0.3,0.5-0.8,0.8-1.3,0.8C108.5,125.2,108.3,125.2,108.1,125.1 M112.7,127.2c-0.8-0.3-1.2-1.2-0.8-1.9
	c0.3-0.8,1.2-1.1,2-0.8h0c0.8,0.3,1.2,1.2,0.8,1.9c-0.2,0.6-0.8,0.9-1.4,0.9C113.1,127.4,112.9,127.3,112.7,127.2 M117.6,128.9
	L117.6,128.9c-0.8-0.2-1.3-1-1-1.8c0.2-0.8,1.1-1.3,1.9-1c0.8,0.2,1.3,1,1,1.8c-0.2,0.7-0.8,1.1-1.4,1.1
	C117.9,129,117.8,128.9,117.6,128.9 M122.6,130.1c-0.8-0.1-1.4-0.9-1.2-1.7c0.1-0.8,0.9-1.4,1.7-1.2c0.8,0.1,1.4,0.9,1.2,1.7
	c-0.1,0.7-0.8,1.2-1.5,1.2C122.8,130.1,122.7,130.1,122.6,130.1 M127.8,130.7c-0.8-0.1-1.5-0.8-1.4-1.6c0.1-0.8,0.8-1.4,1.6-1.4
	c0.8,0.1,1.5,0.8,1.4,1.6c-0.1,0.8-0.7,1.4-1.5,1.4H127.8z"/>
<path class="st0" d="M146.9,32.2c0,0,7.2-11.8,15-22.3c-12.2-10-20.1,1-20.1,1s-5.1-7.1-12.1-7.1c-6.9,0-11.9,7.1-11.9,7.1
	S110,1.3,98,10.8c6,8.1,15.3,21.5,15.3,21.5"/>
<path class="st1" d="M146.2,32.9c-0.3-0.8,0.1-1.6,0.8-1.9c0.8-0.3,1.6,0.1,1.9,0.8c0.3,0.8-0.1,1.6-0.8,2c-0.2,0.1-0.4,0.1-0.6,0.1
	C147,33.9,146.4,33.5,146.2,32.9 M112.6,34.2L112.6,34.2c-0.8-0.2-1.2-1.1-1-1.9s1.1-1.2,1.9-1c0.8,0.2,1.2,1.1,1,1.9
	c-0.2,0.6-0.8,1.1-1.4,1.1C112.9,34.2,112.8,34.2,112.6,34.2 M141.3,34c-0.2-0.8,0.4-1.6,1.2-1.8v0c0.8-0.2,1.6,0.4,1.8,1.2
	c0.2,0.8-0.4,1.6-1.2,1.8c-0.1,0-0.2,0-0.3,0C142.1,35.2,141.5,34.7,141.3,34 M117.6,35.4c-0.8-0.2-1.3-0.9-1.2-1.8
	c0.1-0.8,0.9-1.3,1.8-1.2c0.8,0.2,1.3,0.9,1.2,1.8c-0.1,0.7-0.8,1.2-1.5,1.2C117.8,35.4,117.7,35.4,117.6,35.4 M136.4,34.7
	c-0.1-0.8,0.5-1.6,1.3-1.7c0.8-0.1,1.6,0.5,1.7,1.3c0.1,0.8-0.5,1.6-1.3,1.7c-0.1,0-0.1,0-0.2,0C137.1,36,136.4,35.5,136.4,34.7
	 M122.7,36.1c-0.8-0.1-1.4-0.8-1.3-1.6c0.1-0.8,0.8-1.4,1.6-1.3c0.8,0.1,1.4,0.8,1.3,1.6c-0.1,0.8-0.7,1.3-1.5,1.3
	C122.8,36.1,122.8,36.1,122.7,36.1 M131.4,35c0-0.8,0.6-1.5,1.4-1.6c0.8,0,1.5,0.6,1.6,1.4c0,0.8-0.6,1.5-1.4,1.6h-0.1
	C132.1,36.4,131.4,35.8,131.4,35 M127.8,36.4c-0.8,0-1.5-0.7-1.5-1.5c0-0.8,0.7-1.5,1.5-1.5c0.8,0,1.5,0.7,1.4,1.5
	C129.3,35.8,128.7,36.4,127.8,36.4L127.8,36.4z"/>
<path class="st0" d="M81.2,130.6c-8.2,6.2-18.8,9.8-30.3,9.8c-26.3,0-47.6-18.6-47.6-44.9c0-19.7,17-40.8,32.9-49.9
	c0,0-7.8-11.6-13-18.6c10.3-8.1,17,0.2,17,0.2s4.2-6.1,10.2-6.1s10.3,6.1,10.3,6.1s6.7-9.4,17.2-0.9c-6.7,9-12.9,19.1-12.9,19.1
	c4.2,2.3,8.4,5.3,12.4,9"/>
<path class="st1" d="M64.4,46.3c-0.3-0.8,0.1-1.6,0.8-2c0.8-0.3,1.6,0.1,1.9,0.8c0.3,0.8-0.1,1.6-0.8,1.9c-0.2,0.1-0.4,0.1-0.6,0.1
	C65.2,47.2,64.6,46.9,64.4,46.3 M35.7,47.4L35.7,47.4c-0.8-0.2-1.2-1.1-1-1.9c0.2-0.8,1.1-1.2,1.9-1c0.8,0.2,1.2,1.1,1,1.9
	c-0.2,0.6-0.8,1.1-1.4,1.1C36,47.5,35.9,47.5,35.7,47.4 M59.5,47.3c-0.2-0.8,0.4-1.6,1.2-1.8c0.8-0.2,1.6,0.4,1.8,1.2
	c0.2,0.8-0.4,1.6-1.2,1.8c-0.1,0-0.2,0-0.3,0C60.2,48.5,59.6,48,59.5,47.3 M40.8,48.6c-0.8-0.1-1.4-0.9-1.2-1.7
	c0.1-0.8,0.9-1.4,1.7-1.2c0.8,0.1,1.4,0.9,1.2,1.7c-0.1,0.7-0.8,1.2-1.5,1.2C40.9,48.7,40.9,48.6,40.8,48.6 M54.5,47.8
	c-0.1-0.8,0.5-1.6,1.4-1.6c0.8-0.1,1.5,0.5,1.6,1.3c0.1,0.8-0.5,1.6-1.4,1.6c0,0-0.1,0-0.1,0C55.2,49.2,54.6,48.6,54.5,47.8
	 M45.9,49.3L45.9,49.3c-0.8-0.1-1.5-0.8-1.4-1.6c0.1-0.8,0.8-1.4,1.6-1.4c0.8,0.1,1.4,0.8,1.4,1.6c-0.1,0.8-0.7,1.4-1.5,1.4
	C46,49.3,45.9,49.3,45.9,49.3 M49.5,48c0-0.8,0.7-1.5,1.5-1.5c0.8,0,1.5,0.7,1.5,1.5c0,0.8-0.7,1.5-1.5,1.5h0
	C50.2,49.4,49.5,48.8,49.5,48"/>
<path class="st1" d="M127.5,72.5h4.7c5.2,0,6.8,2.9,6.8,6.9c0,3.8-2.2,6.9-8.2,6.9h-3.3V72.5z M130.4,93.7c12,0,18.5-6.6,18.5-14.5
	c0-9-6.5-14.3-15.5-14.3h-15.6v32.9h-4v3.9h4v3.3h9.7v-3.3h12.1v-3.9h-12.1v-4.1H130.4z"/>
<path class="st1" d="M18.4,103.7c-0.3-0.8,0.1-1.6,0.9-1.9c0.8-0.3,1.6,0.1,1.9,0.9c0.3,0.8-0.1,1.6-0.9,1.9
	c-0.2,0.1-0.3,0.1-0.5,0.1C19.2,104.6,18.6,104.3,18.4,103.7 M20.6,108.4c-0.4-0.7-0.2-1.6,0.6-2c0.7-0.4,1.6-0.2,2.1,0.6
	c0.4,0.7,0.2,1.6-0.6,2.1c-0.2,0.1-0.5,0.2-0.7,0.2C21.4,109.1,20.9,108.9,20.6,108.4 M23.6,112.7c-0.5-0.7-0.4-1.6,0.2-2.1
	c0.6-0.5,1.6-0.4,2.1,0.2c0.5,0.7,0.4,1.6-0.2,2.1c-0.3,0.2-0.6,0.3-0.9,0.3C24.3,113.3,23.9,113.1,23.6,112.7 M27.1,116.6
	c-0.6-0.6-0.6-1.5-0.1-2.1c0.6-0.6,1.5-0.6,2.1-0.1c0.6,0.6,0.6,1.5,0.1,2.1c-0.3,0.3-0.7,0.5-1.1,0.5
	C27.7,117,27.4,116.8,27.1,116.6 M31.2,119.8L31.2,119.8c-0.7-0.5-0.9-1.4-0.4-2.1c0.5-0.7,1.4-0.9,2.1-0.4c0.7,0.5,0.8,1.4,0.4,2.1
	c-0.3,0.4-0.8,0.6-1.2,0.6C31.7,120.1,31.4,120,31.2,119.8 M35.7,122.5c-0.7-0.4-1.1-1.3-0.7-2c0.4-0.7,1.3-1.1,2-0.7
	c0.7,0.4,1.1,1.3,0.7,2c-0.3,0.5-0.8,0.9-1.3,0.9C36.1,122.6,35.9,122.6,35.7,122.5 M40.5,124.4L40.5,124.4c-0.8-0.2-1.2-1.1-1-1.9
	c0.2-0.8,1.1-1.2,1.9-1c0.8,0.2,1.2,1.1,1,1.9c-0.2,0.6-0.8,1.1-1.4,1.1C40.8,124.5,40.7,124.4,40.5,124.4 M45.6,125.6
	c-0.8-0.1-1.4-0.9-1.3-1.7c0.1-0.8,0.9-1.4,1.7-1.3c0.8,0.1,1.4,0.9,1.3,1.7c-0.1,0.8-0.8,1.3-1.5,1.3
	C45.8,125.6,45.7,125.6,45.6,125.6 M49.3,124.4c0-0.8,0.7-1.5,1.5-1.5c0.8,0,1.5,0.7,1.5,1.5c0,0.8-0.7,1.5-1.5,1.5
	C50,125.9,49.3,125.3,49.3,124.4"/>
</svg>
