<?xml version="1.0" encoding="utf-8"?>
<!-- Generator: Adobe Illustrator 21.0.0, SVG Export Plug-In . SVG Version: 6.00 Build 0)  -->
<svg version="1.1" id="Слой_1" xmlns="http://www.w3.org/2000/svg" xmlns:xlink="http://www.w3.org/1999/xlink" x="0px" y="0px"
	 viewBox="0 0 168.2 126.5" style="enable-background:new 0 0 168.2 126.5;" xml:space="preserve">
<style type="text/css">
	.st0{fill:none;stroke:#FFFFFF;stroke-width:3.5;stroke-linecap:round;stroke-linejoin:round;stroke-miterlimit:10;}
	
		.st1{fill:none;stroke:#FFFFFF;stroke-width:3;stroke-linecap:round;stroke-linejoin:round;stroke-miterlimit:10;stroke-dasharray:0.164,6.164;}
	
		.st2{fill:none;stroke:#FFFFFF;stroke-width:3;stroke-linecap:round;stroke-linejoin:round;stroke-miterlimit:10;stroke-dasharray:0.16,6.16;}
	.st3{fill:none;stroke:#FFFFFF;stroke-width:3;stroke-linecap:round;stroke-linejoin:round;stroke-miterlimit:10;}
</style>
<path class="st0" d="M100.2,10.6h19.9c3.9,0,7.1,3.2,7.1,7.1v33.7 M43.2,51.4V17.7c0-3.9,3.2-7.1,7.1-7.1h19.9 M59.4,67.4
	c8.7-11.6,12-25.7,12-40.2V10.1c0-4,3.3-7.3,7.3-7.3h13.6c4,0,7.3,3.3,7.3,7.3v23.1c0,11,2.7,21.9,8,31.7l1.1,2 M42.1,30.8
	c-10.9,7.5-19.7,19.4-25.2,32.1c-1.4,3.1-3.4,5.9-6.1,8.1c-1.2,1-2.3,1.8-3.3,2.5c-1.6,1.1-2.8,2.8-3.4,4.6c-1.1,3.7-1.8,7.1-1,11.9
	c0.4,2.5,1.9,4.6,4.1,5.8c2.9,1.7,5.1,4.4,6,7.7l1.6,5.4c1.4,4.8,5.3,8.4,10.2,9.3c17.9,3.3,36.4,5,55.2,5h7.6
	c18.9,0,37.3-1.7,55.2-5c4.9-0.9,8.8-4.5,10.2-9.3l1.6-5.4c1-3.3,3.1-6,6-7.7c2.2-1.3,3.7-3.3,4.1-5.8c0.7-4.8,0.1-8.2-1-11.9
	c-0.6-1.9-1.8-3.5-3.4-4.6c-1-0.7-2.1-1.6-3.3-2.5c-2.6-2.2-4.7-5-6.1-8.1c-5.4-12.3-13.7-23.8-24.1-31.3"/>
<path class="st1" d="M142.6,82.9c-13,2.6-30.8,4.9-53.6,5.1"/>
<path class="st2" d="M79.7,88c-23.1-0.4-40.8-2.7-53.5-5.2"/>
<path class="st3" d="M23.2,82.1C23.2,82.1,23.1,82.1,23.2,82.1 M86,88C86,88,86,88,86,88c-0.1,0-0.1,0-0.2,0 M148.7,81.6L148.7,81.6
	"/>
</svg>
