<svg width="41" height="54" viewBox="0 0 41 54" fill="none" xmlns="http://www.w3.org/2000/svg">
<path d="M13.3157 13.3159H23.5787M7.15765 40.0004H17.421M7.15765 44.1051H15.3682M27.6841 1.00031V12.2899C27.6841 12.8565 28.1438 13.3162 28.7103 13.3162H40M27.6841 1.00031L40 13.3162M27.6841 1.00031L2.02628 1C1.4594 1 1 1.45939 1 2.02657V9.21052V51.2891C1 51.8559 1.4594 52.3156 2.02628 52.3156H38.9734C39.5403 52.3156 40 51.8559 40 51.2891L40 13.3162" stroke="#EEF3FF" stroke-width="2" stroke-linecap="round" stroke-linejoin="round"/>
<path d="M7.15768 25.6319H33.8421M25.6315 31.7896V19.4736M33.8421 30.7633C33.8421 31.3302 33.3824 31.7899 32.8155 31.7899H8.18426C7.61738 31.7899 7.15799 31.3302 7.15799 30.7633V20.5002C7.15799 19.9333 7.61738 19.4736 8.18426 19.4736H32.8155C33.3824 19.4736 33.8421 19.9333 33.8421 20.5002V30.7633Z" stroke="#EEF3FF" stroke-width="2" stroke-linecap="round" stroke-linejoin="round"/>
</svg>
