<svg width="43" height="56" viewBox="0 0 43 56" fill="none" xmlns="http://www.w3.org/2000/svg">
<g clip-path="url(#clip0)">
<path d="M38.6281 22.3319C40.2947 22.3319 41.646 20.9809 41.646 19.3143M34.0832 21.7113C33.8324 18.2518 30.7643 15.5419 27.0983 15.5419M4.15798 24.5955C4.9581 28.5311 7.79464 31.7268 11.5237 33.0235C12.4088 33.3312 12.9766 34.199 12.9766 35.1361V37.4211C12.9766 37.8378 13.3143 38.1755 13.7311 38.1755H18.2576C18.6744 38.1755 19.0121 37.8378 19.0121 37.4211V34.4033C19.0121 33.9866 19.3498 33.6487 19.7665 33.6487H27.3111C27.7279 33.6487 28.0656 33.9866 28.0656 34.4033V37.4211C28.0656 37.8378 28.4033 38.1755 28.8201 38.1755H33.3466C33.7634 38.1755 34.1009 37.8378 34.1009 37.4211L34.1013 32.427C34.1013 31.7968 34.3603 31.1913 34.8292 30.7706C37.3478 28.5097 38.865 25.0565 38.5981 21.3834C38.169 15.4756 33.0216 11.0151 27.0983 11.0151H16.866C16.5566 11.0151 16.2893 10.8219 16.1644 10.5388C15.1115 8.15464 12.7328 6.4884 9.9587 6.4884V11.9102C9.9587 12.1815 9.80921 12.4259 9.57436 12.5623C7.9712 13.4923 6.61415 14.7981 5.63352 16.3661C5.36348 16.7979 4.88252 17.0511 4.37284 17.0511H1.65956C1.24274 17.0511 0.905049 17.3888 0.905049 17.8056V21.5778C0.905049 23.2445 2.25607 24.5957 3.92293 24.5957L4.15798 24.5955ZM9.2042 17.8052C9.2042 18.2219 9.54202 18.5597 9.95873 18.5597C10.3754 18.5597 10.7132 18.2219 10.7132 17.8052C10.7132 17.3885 10.3754 17.0507 9.95873 17.0507C9.54202 17.0507 9.2042 17.3885 9.2042 17.8052Z" stroke="#21A038" stroke-width="1.15683" stroke-linecap="round" stroke-linejoin="round"/>
<path d="M28.8198 7.99718C28.8198 5.49709 26.7934 3.47046 24.2933 3.47046C21.793 3.47046 19.7664 5.49709 19.7664 7.99718M25.0476 7.24286L24.2931 6.48834V7.99739" stroke="#333F48" stroke-width="1.15683" stroke-linecap="round" stroke-linejoin="round"/>
</g>
<defs>
<clipPath id="clip0">
<rect width="42.8027" height="56" fill="white" transform="matrix(-1 0 0 1 42.8027 0)"/>
</clipPath>
</defs>
</svg>
