<svg width="33" height="37" viewBox="0 0 33 37" fill="none" xmlns="http://www.w3.org/2000/svg">
<path d="M32.9999 18.4724C32.9926 18.0095 32.6189 17.6393 32.1624 17.6456H27.9748C27.5783 15.2678 25.542 13.4446 23.0999 13.4446C20.6577 13.4446 18.6214 15.2688 18.2249 17.6456H0.838004C-0.277987 17.6456 -0.277987 19.3265 0.838004 19.3265H18.2249C18.6214 21.7022 20.6577 23.5275 23.0999 23.5275C25.542 23.5275 27.5783 21.7022 27.9748 19.3265H32.1624C32.6293 19.3328 33.0071 18.9469 32.9999 18.4724ZM26.3992 18.4861C26.3992 20.3514 24.9322 21.8467 23.0999 21.8467C21.2675 21.8467 19.8005 20.3514 19.8005 18.4861C19.8005 16.6196 21.2675 15.1244 23.0999 15.1244C24.9322 15.1244 26.3992 16.6196 26.3992 18.4861Z" fill="#21A038"/>
<path d="M32.9999 31.917C32.9926 31.4541 32.6189 31.0839 32.1624 31.0902H21.3762C20.9807 28.7134 18.9434 26.8892 16.5002 26.8892C14.0581 26.8892 12.0218 28.7134 11.6273 31.0902H0.836993C-0.278998 31.0744 -0.278998 32.7858 0.836993 32.7711H11.6273C12.0218 35.1468 14.0581 36.9721 16.5002 36.9721C18.9434 36.9721 20.9807 35.1479 21.3762 32.7711H32.1624C32.6293 32.7774 33.0071 32.3915 32.9999 31.917ZM19.8016 31.9306C19.8016 33.796 18.3326 35.2913 16.5013 35.2913C14.6678 35.2913 13.2009 33.796 13.2009 31.9306C13.2009 30.0642 14.6689 28.569 16.5013 28.569C18.3326 28.569 19.8016 30.0642 19.8016 31.9306Z" fill="#21A038"/>
<path d="M32.9998 5.02885C32.9926 4.56488 32.6189 4.19472 32.1623 4.20105H13.676C13.2806 1.82426 11.2432 0 8.80104 0C6.35891 0 4.3226 1.82426 3.9261 4.20105H0.839015C-0.276976 4.18523 -0.276976 5.8977 0.839015 5.88188H3.9261C4.3226 8.25867 6.35891 10.0829 8.80104 10.0829C11.2432 10.0829 13.2806 8.25867 13.676 5.88188H32.1623C32.6292 5.88821 33.0071 5.50231 32.9998 5.02885ZM12.1004 5.04146C12.1004 6.90789 10.6334 8.4021 8.80104 8.4021C6.96866 8.4021 5.50174 6.90789 5.50174 5.04146C5.50174 3.17504 6.96866 1.6798 8.80104 1.6798C10.6334 1.6798 12.1004 3.17504 12.1004 5.04146Z" fill="#21A038"/>
<circle cx="8.8945" cy="4.8945" r="4.1445" stroke="#333F48" stroke-width="1.5"/>
</svg>
