<svg width="34" height="44" viewBox="0 0 34 44" fill="none" xmlns="http://www.w3.org/2000/svg">
<path d="M14.51 21.3097C14.51 20.3797 15.253 19.6239 16.165 19.6239H30.421C32.129 19.6239 33.518 18.2071 33.518 16.4664V8.60293C33.518 6.8632 32.129 5.44838 30.421 5.44838H27.576V0H0V12.3584H27.576V6.91308H30.421C31.334 6.91308 32.077 7.66991 32.077 8.59886V16.4602C32.077 17.3912 31.334 18.148 30.421 18.148H16.166C14.458 18.148 13.068 19.5638 13.068 21.3026V26.6246H14.51V21.3097ZM26.135 10.8947H1.44199V1.4749H26.135V10.8947Z" fill="#21A038"/>
<path d="M9.267 26.6246V39.4537C9.267 41.8617 11.189 43.8214 13.552 43.8214C15.915 43.8214 17.837 41.8617 17.837 39.4537V26.6246H9.267ZM16.397 28.0944V39.4619C16.397 41.059 15.121 42.3597 13.552 42.3597C11.983 42.3597 10.706 41.06 10.706 39.4619V28.0944H16.397Z" fill="#333F48"/>
</svg>
